<svg width="32" height="32" viewBox="0 0 32 32" fill="none" xmlns="http://www.w3.org/2000/svg">
<path d="M4.60713 26.1426C4.60713 26.7747 5.11785 27.2854 5.74999 27.2854H26.25C26.8821 27.2854 27.3928 26.7747 27.3928 26.1426V17.8211C27.3928 11.5283 22.2928 6.42829 16 6.42829C9.70713 6.42829 4.60713 11.5283 4.60713 17.8211V26.1426ZM7.17856 17.8211C7.17856 12.9497 11.1286 8.99972 16 8.99972C20.8714 8.99972 24.8214 12.9497 24.8214 17.8211V24.714H12.1428V18.6069C12.1428 18.4104 11.9821 18.2497 11.7857 18.2497H10.2143C10.0178 18.2497 9.85713 18.4104 9.85713 18.6069V24.714H7.17856V17.8211ZM5.46071 8.80329L6.87499 7.38901C6.98571 7.27829 6.98571 7.09615 6.87499 6.98544L4.44999 4.56044C4.39629 4.50726 4.32378 4.47744 4.2482 4.47744C4.17263 4.47744 4.10012 4.50726 4.04642 4.56044L2.63213 5.97472C2.57896 6.02842 2.54913 6.10094 2.54913 6.17651C2.54913 6.25208 2.57896 6.32459 2.63213 6.37829L5.05713 8.80329C5.16785 8.91401 5.34642 8.91401 5.46071 8.80329ZM29.375 5.97472L27.9607 4.56044C27.907 4.50726 27.8345 4.47744 27.7589 4.47744C27.6834 4.47744 27.6108 4.50726 27.5571 4.56044L25.1321 6.98544C25.079 7.03913 25.0491 7.11165 25.0491 7.18722C25.0491 7.26279 25.079 7.33531 25.1321 7.38901L26.5464 8.80329C26.6571 8.91401 26.8393 8.91401 26.95 8.80329L29.375 6.37829C29.4857 6.26401 29.4857 6.08544 29.375 5.97472ZM27.4286 29.5712H4.57142C3.93928 29.5712 3.42856 30.0819 3.42856 30.714V31.5712C3.42856 31.7283 3.55713 31.8569 3.71428 31.8569H28.2857C28.4429 31.8569 28.5714 31.7283 28.5714 31.5712V30.714C28.5714 30.0819 28.0607 29.5712 27.4286 29.5712ZM15 4.14258H17C17.1571 4.14258 17.2857 4.01401 17.2857 3.85686V0.428292C17.2857 0.27115 17.1571 0.142578 17 0.142578H15C14.8428 0.142578 14.7143 0.27115 14.7143 0.428292V3.85686C14.7143 4.01401 14.8428 4.14258 15 4.14258Z" fill="black"/>
</svg>
