<svg width="38" height="37" viewBox="0 0 38 37" fill="none" xmlns="http://www.w3.org/2000/svg">
<path d="M31.2505 20.7892H36.2192V16.2297H31.2505C30.9268 14.9054 30.4128 12.9189 29.7084 11.7838L33.2303 8.28378L28.8898 3.97027L25.3679 7.47027C24.2257 6.78919 22.2267 6.25946 20.8941 5.93784V1H16.3061V5.93784C14.9735 6.25946 12.9745 6.77027 11.8323 7.47027L8.31037 3.97027L3.96984 8.28378L7.49176 11.7838C6.80641 12.9189 6.27336 14.9054 5.94973 16.2297H1V20.7892H5.96877C6.2924 22.1135 6.80641 24.1 7.5108 25.2351L3.98887 28.7351L8.32941 33.0297L11.8513 29.5297C12.9936 30.2108 14.9925 30.7405 16.3251 31.0622V36H20.9131V31.0622C22.2458 30.7405 24.2447 30.2297 25.3869 29.5297L28.9089 33.0297L33.2303 28.7351L29.7084 25.2351C30.3938 24.1189 30.9268 22.1135 31.2505 20.7892Z" stroke="black" stroke-width="2" stroke-linecap="round" stroke-linejoin="round"/>
<path d="M25.7488 18.9732C25.7488 22.6245 22.5505 25.5948 18.6097 25.5948C14.669 25.5948 11.4707 22.6245 11.4707 18.9732C11.4707 15.3218 14.669 12.3516 18.6097 12.3516C22.5505 12.3516 25.7488 15.3218 25.7488 18.9732Z" stroke="black" stroke-width="2" stroke-linecap="round" stroke-linejoin="round"/>
</svg>
