<svg xmlns="http://www.w3.org/2000/svg" width="64" height="40" viewBox="0 0 64 40" fill="none">
  <rect width="64" height="40" fill="white"/>
  <path d="M44.2505 22.7892H49.2192V18.2297H44.2505C43.9268 16.9054 43.4128 14.9189 42.7084 13.7838L46.2303 10.2838L41.8898 5.97027L38.3679 9.47027C37.2257 8.78919 35.2267 8.25946 33.8941 7.93784V3H29.3061V7.93784C27.9735 8.25946 25.9745 8.77027 24.8323 9.47027L21.3104 5.97027L16.9698 10.2838L20.4918 13.7838C19.8064 14.9189 19.2734 16.9054 18.9497 18.2297H14V22.7892H18.9688C19.2924 24.1135 19.8064 26.1 20.5108 27.2351L16.9889 30.7351L21.3294 35.0297L24.8513 31.5297C25.9936 32.2108 27.9925 32.7405 29.3251 33.0622V38H33.9131V33.0622C35.2458 32.7405 37.2447 32.2297 38.3869 31.5297L41.9089 35.0297L46.2303 30.7351L42.7084 27.2351C43.3938 26.1189 43.9268 24.1135 44.2505 22.7892Z" stroke="black" stroke-width="2" stroke-linecap="round" stroke-linejoin="round"/>
  <path d="M38.7488 20.9732C38.7488 24.6245 35.5505 27.5948 31.6097 27.5948C27.669 27.5948 24.4707 24.6245 24.4707 20.9732C24.4707 17.3218 27.669 14.3516 31.6097 14.3516C35.5505 14.3516 38.7488 17.3218 38.7488 20.9732Z" stroke="black" stroke-width="2" stroke-linecap="round" stroke-linejoin="round"/>
</svg>