<svg width="39" height="32" viewBox="0 0 39 32" fill="none" xmlns="http://www.w3.org/2000/svg">
<path d="M28.0703 18.9497C28.0703 19.4036 28.2506 19.839 28.5716 20.1599C28.8925 20.4809 29.3279 20.6612 29.7818 20.6612C30.2357 20.6612 30.671 20.4809 30.992 20.1599C31.3129 19.839 31.4932 19.4036 31.4932 18.9497C31.4932 18.4958 31.3129 18.0605 30.992 17.7396C30.671 17.4186 30.2357 17.2383 29.7818 17.2383C29.3279 17.2383 28.8925 17.4186 28.5716 17.7396C28.2506 18.0605 28.0703 18.4958 28.0703 18.9497Z" fill="#333333"/>
<path d="M7.19006 18.9497C7.19006 19.4036 7.37038 19.839 7.69134 20.1599C8.0123 20.4809 8.44762 20.6612 8.90152 20.6612C9.35543 20.6612 9.79075 20.4809 10.1117 20.1599C10.4327 19.839 10.613 19.4036 10.613 18.9497C10.613 18.4958 10.4327 18.0605 10.1117 17.7396C9.79075 17.4186 9.35543 17.2383 8.90152 17.2383C8.44762 17.2383 8.0123 17.4186 7.69134 17.7396C7.37038 18.0605 7.19006 18.4958 7.19006 18.9497Z" fill="#333333"/>
<path d="M38.2969 11.7791L37.2829 10.0078C37.2373 9.92967 37.1626 9.87279 37.0753 9.84954C36.9879 9.82629 36.8949 9.83856 36.8165 9.88367L34.6472 11.1502L31.297 1.89972C31.1202 1.34775 30.7724 0.866274 30.3041 0.52481C29.8357 0.183346 29.271 -0.000435008 28.6913 7.73202e-07H10.152C8.66728 7.73202e-07 7.34945 0.958418 6.89164 2.37465L3.69977 11.1544L1.52621 9.88795C1.44785 9.84284 1.35482 9.83057 1.26744 9.85382C1.18006 9.87707 1.10543 9.93395 1.05984 10.012L0.0458024 11.7791C-0.0483279 11.9417 0.00729461 12.1471 0.169883 12.2412L2.75419 13.7473L2.13378 15.4588C2.08244 15.5957 2.05677 15.7411 2.05677 15.8866V30.7849C2.05677 31.4566 2.56165 32 3.18205 32H6.07442C6.60069 32 7.0585 31.6021 7.16975 31.0459L7.4992 29.4328H30.8435L31.173 31.0459C31.2885 31.6021 31.742 32 32.2683 32H35.1607C35.7811 32 36.2859 31.4566 36.2859 30.7849V15.8866C36.2859 15.7411 36.2603 15.5957 36.2089 15.4588L35.5885 13.7473L38.1685 12.2412C38.2462 12.1964 38.3032 12.1228 38.3272 12.0364C38.3512 11.95 38.3403 11.8576 38.2969 11.7791ZM9.78828 3.42292L9.80967 3.3673L9.82679 3.31167C9.87385 3.17048 10.0022 3.07635 10.152 3.07635H28.4475L31.6736 11.9759H6.6777L9.78828 3.42292ZM33.2053 26.3522H5.13739V16.2118L5.80486 14.372H32.5378L33.2053 16.2118V26.3522Z" fill="#333333"/>
</svg>
