<svg xmlns="http://www.w3.org/2000/svg" width="64" height="40" viewBox="0 0 64 40" fill="none">
  <rect width="64" height="40" fill="white"/>
  <path d="M31.1065 20L23.0564 16.02L31.1065 12L39.1566 16.02L31.1065 20Z" stroke="black" stroke-width="2" stroke-linecap="round" stroke-linejoin="round"/>
  <path d="M39.1566 16V24.02L31.1065 28L23.0564 24.02V16" stroke="black" stroke-width="2" stroke-linecap="round" stroke-linejoin="round"/>
  <path d="M31.1064 20V28" stroke="black" stroke-width="2" stroke-linecap="round" stroke-linejoin="round"/>
  <path d="M17.0188 13L14 16.98L17.0188 21" stroke="black" stroke-width="2" stroke-linecap="round" stroke-linejoin="round"/>
  <path d="M20.0376 17H14" stroke="black" stroke-width="2" stroke-linecap="round" stroke-linejoin="round"/>
  <path d="M27.0815 35L31.1267 38L35.1317 35" stroke="black" stroke-width="2" stroke-linecap="round" stroke-linejoin="round"/>
  <path d="M31.1064 31V38" stroke="black" stroke-width="2" stroke-linecap="round" stroke-linejoin="round"/>
  <path d="M27.0815 6L31.1267 3L35.1317 6" stroke="black" stroke-width="2" stroke-linecap="round" stroke-linejoin="round"/>
  <path d="M31.1064 9V3" stroke="black" stroke-width="2" stroke-linecap="round" stroke-linejoin="round"/>
  <path d="M45.1941 13L49.2191 16.98L45.1941 21" stroke="black" stroke-width="2" stroke-linecap="round" stroke-linejoin="round"/>
  <path d="M42.1753 17H49.2191" stroke="black" stroke-width="2" stroke-linecap="round" stroke-linejoin="round"/>
</svg>
