<svg width="17" height="12" viewBox="0 0 17 12" fill="none" xmlns="http://www.w3.org/2000/svg">
<path d="M11.1669 5.49036C10.3478 5.49036 9.6886 6.19622 9.6886 7.07855C9.6886 7.94128 10.3478 8.64714 11.1669 8.64714C12.0059 8.64714 12.6651 7.94128 12.6651 7.07855C12.6651 6.19622 12.0059 5.49036 11.1669 5.49036ZM5.87309 5.49036C5.05405 5.49036 4.37485 6.19622 4.37485 7.07855C4.37485 7.94128 5.05405 8.64714 5.87309 8.64714C6.69213 8.64714 7.35135 7.94128 7.35135 7.07855C7.35135 6.19622 6.69213 5.49036 5.87309 5.49036ZM12.5652 12C12.5652 12 12.0458 11.3726 11.6063 10.8432C13.5241 10.3138 14.2432 9.13733 14.2432 9.13733C13.6439 9.52947 13.0646 9.80398 12.5652 9.98044C11.8261 10.2746 11.1269 10.4902 10.4477 10.6079C9.04935 10.8628 7.77086 10.804 6.67215 10.6079C5.83314 10.451 5.11398 10.2157 4.53467 9.98044C4.19506 9.8628 3.83549 9.70594 3.45593 9.49026C3.41598 9.47065 3.37603 9.45104 3.33608 9.41183C3.29612 9.41183 3.27615 9.39222 3.25617 9.39222C2.99647 9.23536 2.85664 9.13733 2.85664 9.13733C2.85664 9.13733 3.55582 10.2746 5.41363 10.8236C4.97415 11.3726 4.43478 12 4.43478 12C1.21857 11.902 0 9.82358 0 9.82358C0 5.21585 2.09753 1.49045 2.09753 1.49045C4.19506 -0.058529 6.17274 0.000293092 6.17274 0.000293092L6.33255 0.157152C3.69565 0.902232 2.49706 2.03946 2.49706 2.03946C2.49706 2.03946 2.81669 1.86299 3.37603 1.6277C4.9342 0.961054 6.15276 0.784588 6.67215 0.725766C6.75206 0.725766 6.83196 0.706158 6.91187 0.686551C7.81081 0.588514 8.80964 0.549299 9.86839 0.666943C11.2468 0.823802 12.725 1.23556 14.2432 2.03946C14.2432 2.03946 13.1046 0.961054 10.6275 0.215974L10.8273 0.000293092C10.8273 0.000293092 12.8049 -0.058529 14.9025 1.49045C14.9025 1.49045 17 5.21585 17 9.82358C17 9.82358 15.7814 11.902 12.5652 12Z" fill="white"/>
</svg>
