<svg width="45" height="45" viewBox="0 0 45 45" fill="none" xmlns="http://www.w3.org/2000/svg">
<path fill-rule="evenodd" clip-rule="evenodd" d="M22.5 44C34.3741 44 44 34.3741 44 22.5C44 10.6259 34.3741 1 22.5 1C10.6259 1 1 10.6259 1 22.5C1 34.3741 10.6259 44 22.5 44Z" stroke="black"/>
<path d="M26.8701 22.5075H24.2331C24.2331 26.7205 24.2331 31.9062 24.2331 31.9062H20.3257C20.3257 31.9062 20.3257 26.7708 20.3257 22.5075H18.4683V19.1857H20.3257V17.0371C20.3257 15.4983 21.0569 13.0938 24.269 13.0938L27.1645 13.1048V16.3294C27.1645 16.3294 25.405 16.3294 25.0629 16.3294C24.7208 16.3294 24.2344 16.5004 24.2344 17.2343V19.1863H27.2115L26.8701 22.5075Z" fill="#C2D1D9"/>
<mask id="mask0_727_606" style="mask-type:luminance" maskUnits="userSpaceOnUse" x="18" y="13" width="10" height="19">
<path d="M26.8701 22.5075H24.2331C24.2331 26.7205 24.2331 31.9062 24.2331 31.9062H20.3257C20.3257 31.9062 20.3257 26.7708 20.3257 22.5075H18.4683V19.1857H20.3257V17.0371C20.3257 15.4983 21.0569 13.0938 24.269 13.0938L27.1645 13.1048V16.3294C27.1645 16.3294 25.405 16.3294 25.0629 16.3294C24.7208 16.3294 24.2344 16.5004 24.2344 17.2343V19.1863H27.2115L26.8701 22.5075Z" fill="white"/>
</mask>
<g mask="url(#mask0_727_606)">
<rect x="6.37451" y="6.375" width="32.25" height="32.25" fill="black"/>
</g>
</svg>
