<svg xmlns="http://www.w3.org/2000/svg" width="64" height="40" viewBox="0 0 64 40" fill="none">
  <rect width="64" height="40" fill="white"/>
  <path d="M26.7599 29.0266C24.2442 31.5466 20.199 31.5466 17.7236 29.0266L15.4696 26.8066C12.9942 24.3466 12.9942 20.3267 15.4696 17.8867L23.3788 10.0266C25.8542 7.56664 29.8994 7.56664 32.3547 10.0266L34.6087 12.2466C37.1244 14.7666 37.1244 18.7667 34.6087 21.2267L26.7397 29.0467" stroke="black" stroke-width="2" stroke-linecap="round" stroke-linejoin="round"/>
  <path d="M29.5775 8.54688L20.2394 17.8269C19.0319 19.0269 19.0319 20.9669 20.2394 22.1669L22.433 24.3269C23.6808 25.5269 25.6531 25.5269 26.8606 24.3269L36.1383 15.0469" stroke="black" stroke-width="2" stroke-linecap="round" stroke-linejoin="round"/>
  <path d="M24.6064 22.5269L22.0505 20.0269L24.6064 17.5469L27.0819 20.0269L24.6064 22.5269Z" stroke="black" stroke-width="2" stroke-linecap="round" stroke-linejoin="round"/>
  <path d="M42.1757 7.54688C42.1757 10.3069 39.9418 12.5469 37.1444 12.5469C34.3469 12.5469 32.113 10.3069 32.113 7.54688C32.113 4.78688 34.3671 2.54688 37.1444 2.54688C39.9216 2.54688 42.1757 4.78688 42.1757 7.54688Z" stroke="black" stroke-width="2" stroke-linecap="round" stroke-linejoin="round"/>
  <path d="M48.2135 10.5669C48.2135 13.3069 45.9595 15.5269 43.1822 15.5269C40.4049 15.5269 38.1509 13.3069 38.1509 10.5669C38.1509 7.82686 40.4049 5.54688 43.1822 5.54688C45.9595 5.54688 48.2135 7.82686 48.2135 10.5669Z" stroke="black" stroke-width="2" stroke-linecap="round" stroke-linejoin="round"/>
  <path d="M40.1633 21.7068C40.1633 19.9668 41.6325 18.5469 43.5243 18.5469H46.9053C48.7367 18.5469 50.226 19.9468 50.226 21.7068V26.5469H40.1633V21.7068Z" stroke="black" stroke-width="2" stroke-linecap="round" stroke-linejoin="round"/>
  <path d="M46.2009 26.5469H43.1821V34.4268L44.7116 37.5469L46.2009 34.4268V26.5469Z" stroke="black" stroke-width="2" stroke-linecap="round" stroke-linejoin="round"/>
  <path d="M45.1946 20.5469V12.5469" stroke="black" stroke-width="2" stroke-linecap="round" stroke-linejoin="round"/>
</svg>