<svg width="40" height="38" viewBox="0 0 40 38" fill="none" xmlns="http://www.w3.org/2000/svg">
<path d="M14.7599 28.0266C12.2442 30.5466 8.19903 30.5466 5.72362 28.0266L3.46959 25.8066C0.994185 23.3466 0.994185 19.3267 3.46959 16.8867L11.3788 9.02664C13.8542 6.56664 17.8994 6.56664 20.3547 9.02664L22.6087 11.2466C25.1244 13.7666 25.1244 17.7667 22.6087 20.2267L14.7397 28.0467" stroke="black" stroke-width="2" stroke-linecap="round" stroke-linejoin="round"/>
<path d="M17.5775 7.54688L8.23938 16.8269C7.03186 18.0269 7.03186 19.9669 8.23938 21.1669L10.433 23.3269C11.6808 24.5269 13.6531 24.5269 14.8606 23.3269L24.1383 14.0469" stroke="black" stroke-width="2" stroke-linecap="round" stroke-linejoin="round"/>
<path d="M12.6064 21.5269L10.0505 19.0269L12.6064 16.5469L15.0819 19.0269L12.6064 21.5269Z" stroke="black" stroke-width="2" stroke-linecap="round" stroke-linejoin="round"/>
<path d="M30.1757 6.54688C30.1757 9.30687 27.9418 11.5469 25.1444 11.5469C22.3469 11.5469 20.113 9.30687 20.113 6.54688C20.113 3.78688 22.3671 1.54688 25.1444 1.54688C27.9216 1.54688 30.1757 3.78688 30.1757 6.54688Z" stroke="black" stroke-width="2" stroke-linecap="round" stroke-linejoin="round"/>
<path d="M36.2135 9.56686C36.2135 12.3069 33.9595 14.5269 31.1822 14.5269C28.4049 14.5269 26.1509 12.3069 26.1509 9.56686C26.1509 6.82686 28.4049 4.54688 31.1822 4.54688C33.9595 4.54688 36.2135 6.82686 36.2135 9.56686Z" stroke="black" stroke-width="2" stroke-linecap="round" stroke-linejoin="round"/>
<path d="M28.1633 20.7068C28.1633 18.9668 29.6325 17.5469 31.5243 17.5469H34.9053C36.7367 17.5469 38.226 18.9468 38.226 20.7068V25.5469H28.1633V20.7068Z" stroke="black" stroke-width="2" stroke-linecap="round" stroke-linejoin="round"/>
<path d="M34.2009 25.5469H31.1821V33.4268L32.7116 36.5469L34.2009 33.4268V25.5469Z" stroke="black" stroke-width="2" stroke-linecap="round" stroke-linejoin="round"/>
<path d="M33.1946 19.5469V11.5469" stroke="black" stroke-width="2" stroke-linecap="round" stroke-linejoin="round"/>
</svg>
