<svg width="45" height="45" viewBox="0 0 45 45" fill="none" xmlns="http://www.w3.org/2000/svg">
<path fill-rule="evenodd" clip-rule="evenodd" d="M22.5 44C34.3741 44 44 34.3741 44 22.5C44 10.6259 34.3741 1 22.5 1C10.6259 1 1 10.6259 1 22.5C1 34.3741 10.6259 44 22.5 44Z" stroke="black"/>
<g clip-path="url(#clip0_727_613)">
<path d="M22.9532 16.464C19.7738 16.464 17.2093 19.1568 17.2093 22.4951C17.2093 25.8335 19.7738 28.5263 22.9532 28.5263C26.1327 28.5263 28.6972 25.8335 28.6972 22.4951C28.6972 19.1568 26.1327 16.464 22.9532 16.464ZM22.9532 26.4162C20.8986 26.4162 19.2189 24.6577 19.2189 22.4951C19.2189 20.3326 20.8936 18.5741 22.9532 18.5741C25.0129 18.5741 26.6875 20.3326 26.6875 22.4951C26.6875 24.6577 25.0079 26.4162 22.9532 26.4162ZM30.2719 16.2173C30.2719 16.9994 29.672 17.6241 28.9321 17.6241C28.1873 17.6241 27.5924 16.9942 27.5924 16.2173C27.5924 15.4405 28.1923 14.8106 28.9321 14.8106C29.672 14.8106 30.2719 15.4405 30.2719 16.2173ZM34.0762 17.6451C33.9912 15.7607 33.5813 14.0915 32.2665 12.7162C30.9568 11.341 29.3671 10.9106 27.5724 10.8161C25.7227 10.7058 20.1788 10.7058 18.3291 10.8161C16.5394 10.9053 14.9497 11.3357 13.635 12.711C12.3202 14.0862 11.9153 15.7554 11.8253 17.6398C11.7203 19.5819 11.7203 25.4031 11.8253 27.3452C11.9103 29.2296 12.3202 30.8988 13.635 32.2741C14.9497 33.6493 16.5344 34.0797 18.3291 34.1742C20.1788 34.2845 25.7227 34.2845 27.5724 34.1742C29.3671 34.085 30.9568 33.6546 32.2665 32.2741C33.5763 30.8988 33.9862 29.2296 34.0762 27.3452C34.1812 25.4031 34.1812 19.5872 34.0762 17.6451ZM31.6866 29.4291C31.2967 30.4579 30.5418 31.2505 29.557 31.6652C28.0823 32.2793 24.5829 32.1376 22.9532 32.1376C21.3235 32.1376 17.8192 32.2741 16.3495 31.6652C15.3697 31.2558 14.6148 30.4632 14.2199 29.4291C13.635 27.8806 13.77 24.2063 13.77 22.4951C13.77 20.784 13.64 17.1044 14.2199 15.5612C14.6098 14.5324 15.3647 13.7398 16.3495 13.3251C17.8242 12.711 21.3235 12.8527 22.9532 12.8527C24.5829 12.8527 28.0873 12.7162 29.557 13.3251C30.5368 13.7345 31.2917 14.5271 31.6866 15.5612C32.2715 17.1097 32.1365 20.784 32.1365 22.4951C32.1365 24.2063 32.2715 27.8859 31.6866 29.4291Z" fill="black"/>
</g>
<defs>
<clipPath id="clip0_727_613">
<rect width="22.3958" height="26.875" fill="white" transform="translate(11.7505 9.0625)"/>
</clipPath>
</defs>
</svg>
