<svg width="17" height="20" viewBox="0 0 17 20" fill="none" xmlns="http://www.w3.org/2000/svg">
<g clip-path="url(#clip0_819_4389)">
<path d="M8.33691 5.50879C5.97084 5.50879 4.06236 7.5127 4.06236 9.99707C4.06236 12.4814 5.97084 14.4854 8.33691 14.4854C10.703 14.4854 12.6115 12.4814 12.6115 9.99707C12.6115 7.5127 10.703 5.50879 8.33691 5.50879ZM8.33691 12.915C6.8079 12.915 5.55789 11.6064 5.55789 9.99707C5.55789 8.3877 6.80417 7.0791 8.33691 7.0791C9.86965 7.0791 11.1159 8.3877 11.1159 9.99707C11.1159 11.6064 9.86593 12.915 8.33691 12.915ZM13.7833 5.3252C13.7833 5.90723 13.3369 6.37207 12.7863 6.37207C12.232 6.37207 11.7893 5.90332 11.7893 5.3252C11.7893 4.74707 12.2357 4.27832 12.7863 4.27832C13.3369 4.27832 13.7833 4.74707 13.7833 5.3252ZM16.6144 6.3877C16.5512 4.98535 16.2461 3.74316 15.2677 2.71973C14.293 1.69629 13.11 1.37598 11.7744 1.30566C10.3979 1.22363 6.27218 1.22363 4.89569 1.30566C3.56385 1.37207 2.38081 1.69238 1.40239 2.71582C0.423968 3.73926 0.122628 4.98145 0.055664 6.38379C-0.0224609 7.8291 -0.0224609 12.1611 0.055664 13.6064C0.118908 15.0088 0.423968 16.251 1.40239 17.2744C2.38081 18.2979 3.56013 18.6182 4.89569 18.6885C6.27218 18.7705 10.3979 18.7705 11.7744 18.6885C13.11 18.6221 14.293 18.3018 15.2677 17.2744C16.2424 16.251 16.5475 15.0088 16.6144 13.6064C16.6926 12.1611 16.6926 7.83301 16.6144 6.3877ZM14.8362 15.1572C14.546 15.9229 13.9842 16.5127 13.2513 16.8213C12.1539 17.2783 9.54971 17.1729 8.33691 17.1729C7.12411 17.1729 4.51623 17.2744 3.42248 16.8213C2.69331 16.5166 2.13156 15.9268 1.83766 15.1572C1.40239 14.0049 1.50284 11.2705 1.50284 9.99707C1.50284 8.72363 1.40611 5.98535 1.83766 4.83691C2.12784 4.07129 2.68959 3.48145 3.42248 3.17285C4.51995 2.71582 7.12411 2.82129 8.33691 2.82129C9.54971 2.82129 12.1576 2.71973 13.2513 3.17285C13.9805 3.47754 14.5423 4.06738 14.8362 4.83691C15.2714 5.98926 15.171 8.72363 15.171 9.99707C15.171 11.2705 15.2714 14.0088 14.8362 15.1572Z" fill="white"/>
</g>
<defs>
<clipPath id="clip0_819_4389">
<rect width="16.6667" height="20" fill="white"/>
</clipPath>
</defs>
</svg>
