<svg width="16" height="14" viewBox="0 0 16 14" fill="none" xmlns="http://www.w3.org/2000/svg">
<path d="M14.7895 12.5624L16 13.8006V13.8416H9.86V13.8006L11.0925 12.5624C11.224 12.4477 11.287 12.2658 11.2568 12.087V4.17193C11.2568 3.83742 11.2568 3.38532 11.3118 2.99864L7.17 14H7.12075L2.832 3.87847L2.65125 3.43829V10.0749C2.59986 10.5188 2.67025 10.969 2.854 11.3716L4.5795 13.8008V13.8419H0V13.8008L1.7255 11.3658C1.908 10.9653 1.9755 10.5172 1.928 10.0749V2.74014C1.956 2.37889 1.85425 2.01975 1.643 1.73689L0.42175 0.0410518V0H4.80375L8.47375 8.57268L11.7055 0H15.9945V0.0410518L14.7895 1.47866C14.645 1.59175 14.573 1.78271 14.6032 1.97128V12.087C14.5875 12.1768 14.5967 12.2696 14.6297 12.354C14.6628 12.4384 14.7183 12.5108 14.7895 12.5624Z" fill="white"/>
</svg>
