<svg width="18" height="18" viewBox="0 0 18 18" fill="none" xmlns="http://www.w3.org/2000/svg">
<path d="M6.88081 5.65807C7.53719 4.99263 7.53719 3.9261 6.88081 3.26067L5.094 1.49224C4.43762 0.835919 3.38923 0.835919 2.72374 1.49224L1.74828 2.46761C0.891344 3.32448 0.754597 4.64624 1.42009 5.63984C4.25529 9.94239 8.04771 13.7345 12.3415 16.5785C13.3534 17.244 14.6753 17.1072 15.514 16.2686L16.5077 15.275C17.1641 14.6278 17.1641 13.5613 16.5077 12.905L14.7209 11.1183C14.0645 10.4802 13.0161 10.4802 12.3506 11.1183L11.749 11.7199C9.80717 10.1247 7.90185 8.21955 6.28824 6.25058L6.88992 5.66718" stroke="white" stroke-linecap="round" stroke-linejoin="round"/>
</svg>
