<svg width="44" height="37" viewBox="0 0 44 37" fill="none" xmlns="http://www.w3.org/2000/svg">
<path d="M15.9494 20.4581H11.3655V17.0244H15.9494V20.4581Z" stroke="black" stroke-width="2" stroke-linecap="round" stroke-linejoin="round"/>
<path d="M32.0971 20.4581H28.6418V17.0244H32.0971V20.4581Z" stroke="black" stroke-width="2" stroke-linecap="round" stroke-linejoin="round"/>
<path d="M33.2259 17.0238V11.5527L29.6786 7.86719H13.7615L10.2141 11.5527V17.0238H33.2259Z" stroke="black" stroke-width="2" stroke-linecap="round" stroke-linejoin="round"/>
<path d="M28.0199 1H15.4429L13.6692 7.86744H29.7705L28.0199 1Z" stroke="black" stroke-width="2" stroke-linecap="round" stroke-linejoin="round"/>
<path d="M10.2141 13.5898H14.8211" stroke="black" stroke-width="2" stroke-linecap="round" stroke-linejoin="round"/>
<path d="M29.7935 13.5898H33.2487" stroke="black" stroke-width="2" stroke-linecap="round" stroke-linejoin="round"/>
<path d="M1 36H7.91045" stroke="black" stroke-width="2" stroke-linecap="round" stroke-linejoin="round"/>
<path d="M3.30347 3.95215H6.75869V36.0002H3.30347V3.95215Z" stroke="black" stroke-width="2" stroke-linecap="round" stroke-linejoin="round"/>
<path d="M35.5522 36H42.4627" stroke="black" stroke-width="2" stroke-linecap="round" stroke-linejoin="round"/>
<path d="M37.8557 3.95215H41.3109V36.0002H37.8557V3.95215Z" stroke="black" stroke-width="2" stroke-linecap="round" stroke-linejoin="round"/>
<path d="M6.75879 21.0137L37.8558 22.1582" stroke="black" stroke-width="2" stroke-linecap="round" stroke-linejoin="round"/>
</svg>
