<svg xmlns="http://www.w3.org/2000/svg" width="64" height="40" viewBox="0 0 64 40" fill="none">
  <rect width="64" height="40" fill="white"/>
  <path d="M25.9494 22.4581H21.3655V19.0244H25.9494V22.4581Z" stroke="black" stroke-width="2" stroke-linecap="round" stroke-linejoin="round"/>
  <path d="M42.0971 22.4581H38.6418V19.0244H42.0971V22.4581Z" stroke="black" stroke-width="2" stroke-linecap="round" stroke-linejoin="round"/>
  <path d="M43.2259 19.0238V13.5527L39.6786 9.86719H23.7615L20.2141 13.5527V19.0238H43.2259Z" stroke="black" stroke-width="2" stroke-linecap="round" stroke-linejoin="round"/>
  <path d="M38.0199 3H25.4429L23.6692 9.86744H39.7705L38.0199 3Z" stroke="black" stroke-width="2" stroke-linecap="round" stroke-linejoin="round"/>
  <path d="M20.2141 15.5898H24.8211" stroke="black" stroke-width="2" stroke-linecap="round" stroke-linejoin="round"/>
  <path d="M39.7935 15.5898H43.2487" stroke="black" stroke-width="2" stroke-linecap="round" stroke-linejoin="round"/>
  <path d="M11 38H17.9105" stroke="black" stroke-width="2" stroke-linecap="round" stroke-linejoin="round"/>
  <path d="M13.3035 5.95215H16.7587V38.0002H13.3035V5.95215Z" stroke="black" stroke-width="2" stroke-linecap="round" stroke-linejoin="round"/>
  <path d="M45.5522 38H52.4627" stroke="black" stroke-width="2" stroke-linecap="round" stroke-linejoin="round"/>
  <path d="M47.8557 5.95215H51.3109V38.0002H47.8557V5.95215Z" stroke="black" stroke-width="2" stroke-linecap="round" stroke-linejoin="round"/>
  <path d="M16.7588 23.0137L47.8558 24.1582" stroke="black" stroke-width="2" stroke-linecap="round" stroke-linejoin="round"/>
</svg>