<svg width="34" height="34" viewBox="0 0 34 34" fill="none" xmlns="http://www.w3.org/2000/svg">
<path fill-rule="evenodd" clip-rule="evenodd" d="M17 33C25.8366 33 33 25.8366 33 17C33 8.16344 25.8366 1 17 1C8.16344 1 1 8.16344 1 17C1 25.8366 8.16344 33 17 33Z" stroke="white"/>
<path fill-rule="evenodd" clip-rule="evenodd" d="M23.5076 11.4929L23.4704 11.4681C22.7014 10.7363 21.7961 10.3891 20.7543 10.4387L20.7171 10.3643L20.7419 10.3519C21.6844 10.141 22.2426 9.91778 22.4162 9.66973C22.4658 9.47129 22.4038 9.35967 22.1929 9.33486C21.7217 9.39688 21.2752 9.4961 20.8907 9.65733C21.3868 9.33486 21.5728 9.11162 21.4612 9C20.9775 9.0124 20.4442 9.26045 19.8985 9.75655C20.0969 9.40928 20.1838 9.21084 20.1341 9.18604C19.8613 9.35967 19.638 9.55811 19.4396 9.76895C19.0179 10.2402 18.6831 10.6743 18.4226 11.0712L18.4102 11.096C17.7529 12.175 17.2816 13.254 17.0087 14.3578L16.9095 14.4447L16.8847 14.4571C16.4878 13.961 16.0041 13.5393 15.4336 13.2044C14.7639 12.7579 13.9702 12.3486 13.0524 11.9394C12.0602 11.4185 11.0432 10.9968 10.0262 10.6619C10.0138 11.8153 10.5843 12.7207 11.6881 13.3905V13.4029C11.3036 13.4029 10.9192 13.4649 10.5471 13.5765C10.6215 14.6431 11.378 15.3748 12.8043 15.7717L12.7919 15.7965C12.2338 15.7593 11.7749 15.9577 11.4153 16.367C11.8865 17.2848 12.7175 17.7189 13.9205 17.6941C13.6849 17.8181 13.4989 17.9421 13.3748 18.091C13.1516 18.3266 13.0772 18.5995 13.1516 18.9095C13.412 19.3808 13.8709 19.5917 14.5531 19.5544L14.5903 19.6041L14.5779 19.6289C13.3996 20.8443 11.9734 21.39 10.3114 21.2784L10.2866 21.2908C9.26964 21.2784 8.17823 20.7947 7 19.8273C8.17823 21.5264 9.75333 22.7543 11.7005 23.5356C13.9205 24.2674 16.153 24.3294 18.373 23.6968H18.4102C20.5682 23.0767 22.3914 21.7869 23.9045 19.8521C24.599 18.8475 25.0331 17.8801 25.2067 16.9499C26.3353 16.9871 27.1415 16.6647 27.65 15.9701L27.6376 15.9453C27.2531 16.0818 26.5214 16.0446 25.4424 15.8213V15.6973C26.633 15.5609 27.3399 15.1764 27.5632 14.5439C26.7322 14.8663 25.9137 14.8787 25.1075 14.5687C24.9587 13.4525 24.4254 12.4231 23.5076 11.4929" fill="#C2D1D9"/>
<mask id="mask0_819_4372" style="mask-type:luminance" maskUnits="userSpaceOnUse" x="7" y="9" width="21" height="16">
<path fill-rule="evenodd" clip-rule="evenodd" d="M23.5076 11.4929L23.4704 11.4681C22.7014 10.7363 21.7961 10.3891 20.7543 10.4387L20.7171 10.3643L20.7419 10.3519C21.6844 10.141 22.2426 9.91778 22.4162 9.66973C22.4658 9.47129 22.4038 9.35967 22.1929 9.33486C21.7217 9.39688 21.2752 9.4961 20.8907 9.65733C21.3868 9.33486 21.5728 9.11162 21.4612 9C20.9775 9.0124 20.4442 9.26045 19.8985 9.75655C20.0969 9.40928 20.1838 9.21084 20.1341 9.18604C19.8613 9.35967 19.638 9.55811 19.4396 9.76895C19.0179 10.2402 18.6831 10.6743 18.4226 11.0712L18.4102 11.096C17.7529 12.175 17.2816 13.254 17.0087 14.3578L16.9095 14.4447L16.8847 14.4571C16.4878 13.961 16.0041 13.5393 15.4336 13.2044C14.7639 12.7579 13.9702 12.3486 13.0524 11.9394C12.0602 11.4185 11.0432 10.9968 10.0262 10.6619C10.0138 11.8153 10.5843 12.7207 11.6881 13.3905V13.4029C11.3036 13.4029 10.9192 13.4649 10.5471 13.5765C10.6215 14.6431 11.378 15.3748 12.8043 15.7717L12.7919 15.7965C12.2338 15.7593 11.7749 15.9577 11.4153 16.367C11.8865 17.2848 12.7175 17.7189 13.9205 17.6941C13.6849 17.8181 13.4989 17.9421 13.3748 18.091C13.1516 18.3266 13.0772 18.5995 13.1516 18.9095C13.412 19.3808 13.8709 19.5917 14.5531 19.5544L14.5903 19.6041L14.5779 19.6289C13.3996 20.8443 11.9734 21.39 10.3114 21.2784L10.2866 21.2908C9.26964 21.2784 8.17823 20.7947 7 19.8273C8.17823 21.5264 9.75333 22.7543 11.7005 23.5356C13.9205 24.2674 16.153 24.3294 18.373 23.6968H18.4102C20.5682 23.0767 22.3914 21.7869 23.9045 19.8521C24.599 18.8475 25.0331 17.8801 25.2067 16.9499C26.3353 16.9871 27.1415 16.6647 27.65 15.9701L27.6376 15.9453C27.2531 16.0818 26.5214 16.0446 25.4424 15.8213V15.6973C26.633 15.5609 27.3399 15.1764 27.5632 14.5439C26.7322 14.8663 25.9137 14.8787 25.1075 14.5687C24.9587 13.4525 24.4254 12.4231 23.5076 11.4929" fill="white"/>
</mask>
<g mask="url(#mask0_819_4372)">
<rect x="5" y="5" width="24" height="24" fill="white"/>
</g>
</svg>
