<svg width="45" height="45" viewBox="0 0 45 45" fill="none" xmlns="http://www.w3.org/2000/svg">
<path fill-rule="evenodd" clip-rule="evenodd" d="M22.5 44C34.3741 44 44 34.3741 44 22.5C44 10.6259 34.3741 1 22.5 1C10.6259 1 1 10.6259 1 22.5C1 34.3741 10.6259 44 22.5 44Z" stroke="black"/>
<path fill-rule="evenodd" clip-rule="evenodd" d="M31.2441 15.0998L31.1941 15.0665C30.1608 14.0832 28.9442 13.6166 27.5443 13.6832L27.4943 13.5832L27.5276 13.5666C28.7942 13.2832 29.5442 12.9833 29.7775 12.6499C29.8442 12.3833 29.7608 12.2333 29.4775 12.2C28.8442 12.2833 28.2443 12.4166 27.7276 12.6333C28.3943 12.2 28.6442 11.9 28.4943 11.75C27.8443 11.7667 27.1277 12.1 26.3944 12.7666C26.661 12.3 26.7777 12.0333 26.711 12C26.3444 12.2333 26.0444 12.5 25.7777 12.7833C25.2111 13.4166 24.7611 13.9999 24.4111 14.5332L24.3945 14.5665C23.5112 16.0164 22.8779 17.4663 22.5113 18.9496L22.3779 19.0663L22.3446 19.0829C21.8113 18.4163 21.1613 17.8497 20.3947 17.3997C19.4948 16.7997 18.4282 16.2497 17.1949 15.6998C15.8616 14.9998 14.495 14.4332 13.1284 13.9832C13.1118 15.5331 13.8784 16.7497 15.3617 17.6497V17.6663C14.845 17.6663 14.3284 17.7497 13.8284 17.8997C13.9284 19.3329 14.945 20.3162 16.8616 20.8495L16.8449 20.8828C16.0949 20.8328 15.4783 21.0995 14.995 21.6494C15.6283 22.8827 16.7449 23.466 18.3615 23.4327C18.0448 23.5993 17.7949 23.766 17.6282 23.966C17.3282 24.2826 17.2282 24.6493 17.3282 25.0659C17.6782 25.6992 18.2948 25.9825 19.2114 25.9325L19.2614 25.9992L19.2448 26.0325C17.6615 27.6658 15.745 28.3991 13.5118 28.2491L13.4784 28.2657C12.1118 28.2491 10.6453 27.5991 9.06201 26.2992C10.6453 28.5824 12.7618 30.2323 15.3783 31.2822C18.3615 32.2655 21.3613 32.3488 24.3445 31.4989H24.3945C27.2943 30.6656 29.7442 28.9324 31.7774 26.3325C32.7107 24.9826 33.294 23.6827 33.5273 22.4327C35.0439 22.4827 36.1272 22.0494 36.8104 21.1161L36.7938 21.0828C36.2771 21.2661 35.2939 21.2161 33.844 20.9162V20.7495C35.4439 20.5662 36.3938 20.0495 36.6938 19.1996C35.5772 19.6329 34.4772 19.6496 33.394 19.2329C33.194 17.733 32.4774 16.3497 31.2441 15.0998Z" fill="#C2D1D9"/>
<mask id="mask0_727_599" style="mask-type:luminance" maskUnits="userSpaceOnUse" x="9" y="11" width="28" height="22">
<path fill-rule="evenodd" clip-rule="evenodd" d="M31.2441 15.0998L31.1941 15.0665C30.1608 14.0832 28.9442 13.6166 27.5443 13.6832L27.4943 13.5832L27.5276 13.5666C28.7942 13.2832 29.5442 12.9833 29.7775 12.6499C29.8442 12.3833 29.7608 12.2333 29.4775 12.2C28.8442 12.2833 28.2443 12.4166 27.7276 12.6333C28.3943 12.2 28.6442 11.9 28.4943 11.75C27.8443 11.7667 27.1277 12.1 26.3944 12.7666C26.661 12.3 26.7777 12.0333 26.711 12C26.3444 12.2333 26.0444 12.5 25.7777 12.7833C25.2111 13.4166 24.7611 13.9999 24.4111 14.5332L24.3945 14.5665C23.5112 16.0164 22.8779 17.4663 22.5113 18.9496L22.3779 19.0663L22.3446 19.0829C21.8113 18.4163 21.1613 17.8497 20.3947 17.3997C19.4948 16.7997 18.4282 16.2497 17.1949 15.6998C15.8616 14.9998 14.495 14.4332 13.1284 13.9832C13.1118 15.5331 13.8784 16.7497 15.3617 17.6497V17.6663C14.845 17.6663 14.3284 17.7497 13.8284 17.8997C13.9284 19.3329 14.945 20.3162 16.8616 20.8495L16.8449 20.8828C16.0949 20.8328 15.4783 21.0995 14.995 21.6494C15.6283 22.8827 16.7449 23.466 18.3615 23.4327C18.0448 23.5993 17.7949 23.766 17.6282 23.966C17.3282 24.2826 17.2282 24.6493 17.3282 25.0659C17.6782 25.6992 18.2948 25.9825 19.2114 25.9325L19.2614 25.9992L19.2448 26.0325C17.6615 27.6658 15.745 28.3991 13.5118 28.2491L13.4784 28.2657C12.1118 28.2491 10.6453 27.5991 9.06201 26.2992C10.6453 28.5824 12.7618 30.2323 15.3783 31.2822C18.3615 32.2655 21.3613 32.3488 24.3445 31.4989H24.3945C27.2943 30.6656 29.7442 28.9324 31.7774 26.3325C32.7107 24.9826 33.294 23.6827 33.5273 22.4327C35.0439 22.4827 36.1272 22.0494 36.8104 21.1161L36.7938 21.0828C36.2771 21.2661 35.2939 21.2161 33.844 20.9162V20.7495C35.4439 20.5662 36.3938 20.0495 36.6938 19.1996C35.5772 19.6329 34.4772 19.6496 33.394 19.2329C33.194 17.733 32.4774 16.3497 31.2441 15.0998Z" fill="white"/>
</mask>
<g mask="url(#mask0_727_599)">
<rect x="6.37451" y="6.375" width="32.25" height="32.25" fill="black"/>
</g>
</svg>
