<svg width="150" height="37" viewBox="0 0 150 37" fill="none" xmlns="http://www.w3.org/2000/svg">
<path d="M59.3494 17.795C61.0832 18.7075 62.3869 19.8808 62.8953 21.745C63.6384 24.4827 62.3869 27.4158 59.6623 28.8368C58.5933 29.3843 57.3287 29.8015 56.1424 29.8406C52.2185 29.9579 48.2815 29.8928 44.3445 29.8797C44.2011 29.8797 44.0577 29.8406 43.81 29.8015C43.7839 29.4365 43.7448 29.0715 43.7448 28.7064C43.7448 21.6929 43.7579 14.6923 43.7188 7.67874C43.7188 6.66191 44.0186 6.41422 44.9833 6.44029C48.2424 6.50547 51.5015 6.44029 54.7606 6.46636C58.4368 6.50547 60.8616 8.13502 61.7481 11.1595C62.5563 13.8971 61.7481 16.1003 59.3363 17.7819M49.5851 20.4414V24.965C51.3972 24.965 53.118 25.0432 54.8258 24.9389C56.0121 24.8737 56.7682 23.9091 56.7943 22.7358C56.8203 21.6277 55.999 20.5326 54.8649 20.4674C53.118 20.3632 51.3711 20.4414 49.5721 20.4414M49.4808 11.3811C49.4808 12.7238 49.4548 13.9884 49.5069 15.2399C49.5069 15.4093 49.885 15.6831 50.1066 15.6961C51.4493 15.7352 52.8051 15.7613 54.1479 15.6961C55.2299 15.6309 56.0381 14.6271 56.0121 13.5321C55.986 12.3849 55.2168 11.4593 54.1088 11.4072C52.6226 11.342 51.1234 11.3941 49.4939 11.3941" fill="#8C9592"/>
<path d="M143.082 14.9792V6.53159H149.209V29.8146H143.095V20.7152H135.912V29.8015H129.837V6.51855H135.808V14.9792H143.082Z" fill="#8C9592"/>
<path d="M86.5297 18.199C86.3603 23.7264 83.5053 28.1588 78.9165 29.7362C73.6367 31.5482 67.8616 28.8497 65.7888 23.6612C64.4982 20.4282 64.3809 17.1691 65.3325 13.8579C66.6101 9.42548 70.5471 6.21853 74.8882 6.06209C79.6726 5.89262 83.8182 8.6433 85.3695 13.18C85.917 14.7965 86.1517 16.5173 86.5297 18.1859M80.6764 18.0165C80.3765 16.9344 80.168 15.709 79.7117 14.5879C78.9556 12.7628 77.5085 11.8372 75.4879 11.7981C73.4673 11.759 72.1506 12.8149 71.3163 14.5097C70.1039 16.9866 70.1691 19.5417 71.4075 21.9795C72.2809 23.6873 73.728 24.7563 75.7617 24.6129C77.8475 24.4695 79.2293 23.2441 79.9463 21.3538C80.3244 20.35 80.4287 19.2549 80.6894 18.0165" fill="#8C9592"/>
<path d="M18.428 36.8149C8.35087 36.7497 -0.292262 28.8366 0.00757539 18.0034C0.294376 7.88715 8.42908 0.0392465 18.5323 0.000137358C28.7528 -0.0389718 36.8093 8.27824 36.7702 18.7465C36.7441 28.6932 28.466 36.841 18.428 36.8019M34.1368 18.5509C34.1368 9.82957 27.0842 2.62045 18.5453 2.62045C9.7979 2.62045 2.65396 9.76439 2.65396 18.5118C2.65396 27.0506 9.87612 34.1816 18.5323 34.1685C27.1363 34.1685 34.1368 27.1419 34.1368 18.5509Z" fill="#8C9592"/>
<path d="M105.237 9.33381C104.103 10.5723 103.021 11.7455 102.056 12.7885C100.505 12.1757 99.1359 11.5109 97.6758 11.1328C96.9458 10.9373 95.9941 11.1068 95.3032 11.4587C94.7818 11.7195 94.2473 12.5017 94.2342 13.0753C94.2212 13.6358 94.7166 14.3919 95.212 14.757C95.7856 15.1741 96.5938 15.2784 97.3239 15.4609C98.5884 15.7999 99.9051 15.9954 101.13 16.4256C104.246 17.5207 105.837 19.6847 105.902 22.6831C105.967 25.6684 104.285 28.2887 101.43 29.4881C98.445 30.7396 95.4336 30.5962 92.4352 29.5272C90.5058 28.8363 88.8241 27.7542 87.2598 26.255C88.4852 24.9384 89.6845 23.6608 90.8839 22.3832C91.8877 23.0351 92.7611 23.7912 93.778 24.2214C94.9643 24.7298 96.2418 25.1078 97.5194 25.2382C98.797 25.3686 99.8268 24.4039 99.9572 23.361C100.088 22.2138 99.4227 21.3925 98.0148 21.0275C96.307 20.5842 94.5601 20.2844 92.9045 19.6847C90.3103 18.7461 88.6677 16.8558 88.3027 14.0791C87.9507 11.4327 89.0197 9.33381 91.1316 7.73034C92.6829 6.55706 94.4428 5.9965 96.3461 5.87917C99.1881 5.69666 103.099 7.20888 105.263 9.34685" fill="#8C9592"/>
<path d="M127.556 10.9902C127.412 11.0814 127.321 11.1466 127.23 11.2118C125.796 12.1635 124.362 13.1151 122.732 14.1971C122.628 14.0146 122.537 13.806 122.406 13.6366C121.298 12.1244 119.825 11.3031 117.935 11.642C116.018 11.981 114.702 13.1803 114.011 14.9924C113.333 16.7523 113.294 18.5904 113.789 20.4155C114.363 22.5535 115.575 24.1178 117.87 24.6002C120.047 25.0565 121.546 24.0135 122.797 22.1884C124.388 23.2444 125.965 24.2743 127.634 25.3824C125.665 28.4329 122.954 30.1667 119.46 30.3362C112.394 30.6751 107.336 25.3041 107.584 17.8213C107.727 13.5584 109.122 9.88209 112.942 7.50947C117.87 4.45896 124.362 5.97118 127.543 11.0032" fill="#8C9592"/>
<path d="M23.6948 24.0915H13.0962C13.0962 25.7341 13.1353 27.3245 13.0701 28.928C13.0571 29.3973 12.9137 30.0231 12.6008 30.2838C12.3922 30.4533 11.6883 30.2056 11.3233 29.9579C3.24069 24.5739 2.94086 13.0888 10.7105 7.26152C10.9843 7.05294 11.2581 6.85739 11.5449 6.68792C12.5226 6.11432 13.0571 6.36201 13.0832 7.48314C13.1223 8.79982 13.0571 10.1035 13.0571 11.4201C13.0571 11.8243 13.0962 12.2284 13.1223 12.6716H23.6426C23.6818 12.3848 23.7469 12.1111 23.7469 11.8243C23.7469 10.5076 23.7078 9.19091 23.773 7.88727C23.7991 7.41796 23.9946 6.68792 24.2945 6.57059C24.6986 6.41416 25.4156 6.58363 25.7937 6.88347C26.7844 7.66565 27.7752 8.49998 28.5704 9.47771C33.7067 15.8134 32.4813 25.0692 25.924 29.7884C25.6763 29.9579 25.4417 30.1534 25.1679 30.2838C24.3466 30.6749 23.773 30.3359 23.7469 29.4104C23.7209 28.0285 23.7469 26.6336 23.7469 25.2517C23.7469 24.8867 23.7078 24.5217 23.6948 24.0915ZM23.6557 21.0019V15.8786H13.0571C13.0571 17.3387 13.0832 18.7205 13.0571 20.1024C13.0441 20.7803 13.3048 21.028 13.9696 21.0149C16.0294 20.9888 18.0891 21.0019 20.1489 21.0019C21.2961 21.0019 22.4563 21.0019 23.6426 21.0019M26.8235 12.45V24.4174C29.2744 21.3278 29.2744 15.4875 26.8235 12.45ZM9.95443 12.5413C7.51663 16.1263 7.60788 22.2925 9.95443 23.9611V12.5413Z" fill="#8C9592"/>
</svg>
