<svg width="65" height="77" viewBox="0 0 65 77" fill="none" xmlns="http://www.w3.org/2000/svg">
<path d="M58.664 0.0130364C60.111 0.351983 61.5321 0.847365 62.3012 2.21619C62.7314 2.9723 63.1095 3.88484 63.1225 4.73221C63.1877 12.1369 63.1616 19.5546 63.1616 26.9593C63.1616 27.1418 63.1225 27.3243 63.0964 27.5459H9.00843C8.94325 27.4546 8.86499 27.3503 8.7998 27.2591C9.17786 26.9723 9.58198 26.7116 9.93396 26.3987C18.9551 18.3943 27.9894 10.39 36.9845 2.34655C38.3924 1.09506 39.9568 0.378055 41.7428 0H58.664V0.0130364Z" fill="#8C9592"/>
<path d="M22.566 0.0126953C24 0.690588 24.0913 1.00346 23.1266 2.35925C17.8469 9.85517 12.5671 17.3641 7.30043 24.8601C7.0397 25.2251 6.67466 25.564 6.54429 25.9812C6.02284 27.6107 4.8235 27.7802 3.37646 27.6498C2.25533 27.5456 1.12113 27.5847 0 27.5586V4.08005C0.717001 1.85083 2.19014 0.455933 4.51062 0.0126953H22.566Z" fill="#8C9592"/>
<path d="M0 48.5474C2.05975 48.5213 4.1195 48.4822 6.19229 48.4691C10.1032 48.4691 14.0011 48.5083 17.899 48.4431C19.0332 48.417 19.8283 48.6908 20.3628 49.7206C20.5975 50.1769 20.9625 50.568 21.4188 51.2068H20.0369C13.7273 51.2068 7.41777 51.2068 1.12119 51.2068C0.743135 51.2068 0.378055 51.2459 0 51.2589V48.5474Z" fill="#8C9592"/>
<path d="M0 43.5811C4.8365 43.5811 9.67301 43.6202 14.5095 43.5811C15.5133 43.5811 16.2042 43.8157 16.6996 44.7022C17.0255 45.2758 17.4688 45.7972 17.9903 46.5273H0V43.5941V43.5811Z" fill="#8C9592"/>
<path d="M0 38.8359C3.57197 38.849 7.13093 38.9272 10.7029 38.862C11.9544 38.8359 12.8669 39.0967 13.4536 40.2569C13.6752 40.7132 14.0402 41.0912 14.5226 41.7691H0V38.8359Z" fill="#8C9592"/>
<path d="M0 34.0904C2.59424 34.0904 5.18852 34.1425 7.78277 34.0904C8.63013 34.0773 9.19065 34.299 9.60781 35.042C9.97283 35.6808 10.4683 36.2544 11.0288 37.0366H0V34.1034V34.0904Z" fill="#8C9592"/>
<path d="M0 29.5798C1.69473 29.5537 3.37644 29.5015 5.07117 29.5276C5.34494 29.5276 5.69691 29.7492 5.87942 29.9709C6.41392 30.6487 6.88325 31.3657 7.53507 32.3044H0.0130491V29.5928L0 29.5798Z" fill="#8C9592"/>
<path d="M63.1222 29.5928V32.2652H61.7795C45.3275 32.2652 28.8626 32.2522 12.4107 32.2913C10.4161 32.2913 9.68606 30.7921 8.43457 29.8926C8.47368 29.7883 8.52579 29.684 8.5649 29.5928H63.1222Z" fill="#8C9592"/>
<path d="M13.5576 34.1683H63.109V37.1145H61.6358C47.3871 37.1145 33.1383 37.1015 18.8895 37.1406C17.638 37.1406 16.6472 36.8668 15.7608 35.9804C15.1481 35.3807 14.4441 34.8723 13.5707 34.1553" fill="#8C9592"/>
<path d="M9.20394 67.9716C11.029 70.5919 12.815 73.147 14.7444 75.9238C13.167 75.9238 11.8113 75.9629 10.4555 75.8977C10.2078 75.8977 9.94709 75.4936 9.76458 75.2329C8.61738 73.6033 7.4832 71.9738 6.336 70.3312C6.11438 70.0053 5.86669 69.7054 5.43649 69.1449V75.8716H1.36914V60.5669H5.41039V66.8374C6.92261 65.0123 8.29141 63.5262 9.46469 61.9097C10.286 60.7625 11.2116 60.3062 12.5804 60.4757C13.4147 60.58 14.2752 60.5017 15.3702 60.5017C13.2322 63.096 11.2507 65.4947 9.20394 67.9716Z" fill="#8C9592"/>
<path d="M19.5156 38.9395H63.0832V41.7162H61.8187C49.4081 41.7162 37.0104 41.7032 24.5998 41.7423C23.4004 41.7423 22.4097 41.5207 21.5623 40.6603C21.0148 40.0997 20.363 39.6565 19.5156 38.9525" fill="#8C9592"/>
<path d="M34.5077 65.0121V60.5928H38.4708V75.8714C38.0666 75.8975 37.7016 75.9366 37.3366 75.9366C35.6158 75.9757 33.895 75.8714 32.1612 76.1713C29.8929 76.5623 28.0286 75.2587 27.3116 73.0686C26.738 71.3087 26.738 69.5097 27.2334 67.7497C27.9765 65.0773 30.3882 63.891 33.4257 64.6601C33.7516 64.7383 34.0645 64.8687 34.5208 65.0121M34.7814 70.3179C34.6511 69.5357 34.5729 68.7014 34.3643 67.9323C34.1427 67.124 33.4126 66.772 32.6826 66.9676C32.122 67.124 31.2877 67.6455 31.2486 68.0757C31.0922 69.5748 31.1182 71.1131 31.3138 72.6123C31.379 73.0686 32.2394 73.7335 32.7348 73.7204C33.2954 73.7204 34.0384 73.1729 34.3252 72.6514C34.6772 71.9996 34.638 71.1392 34.7814 70.331" fill="#8C9592"/>
<path d="M56.3951 71.1269V75.8721H52.3408V60.5674H56.3561V67.8156C57.1904 66.864 57.8552 66.1861 58.4028 65.43C58.9112 64.739 59.4978 64.5174 60.3191 64.5826C61.2186 64.6478 62.1181 64.5956 63.2914 64.5956C62.3789 65.7168 61.6097 66.6945 60.8275 67.6592C60.5407 68.0112 60.2799 68.3892 59.9671 68.7021C59.4847 69.1584 59.563 69.5364 59.928 70.0579C61.2577 71.9221 62.5353 73.8124 64.0084 75.9373C62.5353 75.9373 61.2968 75.9764 60.0583 75.8982C59.7846 75.8851 59.4978 75.4419 59.3023 75.1551C58.4028 73.8124 57.5293 72.4566 56.6428 71.1008C56.5646 71.1138 56.4733 71.1269 56.3951 71.1399" fill="#8C9592"/>
<path d="M63.1353 43.6846V46.5395H61.8187C51.3766 46.5395 40.9214 46.5265 30.4792 46.5656C29.3059 46.5656 28.3803 46.3179 27.533 45.5097C26.8811 44.897 26.1381 44.3885 25.2646 43.6846H63.1224H63.1353Z" fill="#8C9592"/>
<path d="M14.3663 70.2658C14.3663 66.3157 16.2826 64.4646 20.2978 64.4776C24.3391 64.4906 26.1772 66.3809 26.1642 70.4483C26.1642 74.1506 23.9871 76.2755 20.2196 76.2364C16.3869 76.1973 14.3532 74.1376 14.3663 70.2658ZM22.2142 70.3179C22.1099 69.5879 22.0708 68.8318 21.9013 68.1017C21.7058 67.2413 21.067 66.9024 20.2196 66.9154C19.4244 66.9154 18.7074 67.2674 18.6552 68.0756C18.5509 69.5488 18.564 71.0479 18.6944 72.5211C18.7595 73.3554 19.4635 73.8117 20.3109 73.7856C21.1582 73.7595 21.7318 73.2772 21.9143 72.4559C22.0708 71.7649 22.123 71.0479 22.2142 70.3179Z" fill="#8C9592"/>
<path d="M50.4904 75.8848C49.1477 75.8848 47.857 76.3542 46.9445 75.0244C45.2106 76.3672 43.4247 76.5627 41.5865 75.4416C40.4263 74.7376 39.6571 73.7469 39.7614 72.2998C39.8787 70.8137 40.7783 69.9142 42.1471 69.484C43.0727 69.1972 44.0373 68.9886 44.976 68.7409C45.1585 68.6888 45.3801 68.7018 45.5105 68.5975C45.9277 68.2716 46.3448 67.9326 46.6707 67.5155C46.7359 67.4373 46.3839 66.8245 46.1883 66.7985C45.5887 66.7333 44.5849 66.616 44.4154 66.9028C43.4637 68.5975 41.9906 67.6198 40.687 67.9196V64.7648C43.2161 64.7648 45.7582 64.6866 48.2872 64.8039C49.4475 64.8561 50.1514 65.8207 50.2818 66.9419C50.4382 68.2716 50.4382 69.6404 50.4643 70.9832C50.4904 72.5606 50.4643 74.1249 50.4643 75.8718M47.0618 70.1228C46.9315 70.0054 46.801 69.8881 46.6837 69.7577C45.8103 70.1097 44.7804 70.2792 44.1156 70.8658C43.6593 71.27 43.5159 72.2477 43.5681 72.9517C43.5942 73.3167 44.3763 73.9685 44.7153 73.9163C45.3671 73.799 46.2145 73.4079 46.4882 72.8734C46.9054 72.0782 46.8923 71.0483 47.0488 70.1228" fill="#8C9592"/>
<path d="M31.3138 48.5479H63.0966V51.1942H61.806C53.3193 51.1942 44.8325 51.1682 36.3328 51.2203C35.0552 51.2203 33.9993 51.0117 33.0998 50.0601C32.6175 49.5517 32.0308 49.1606 31.3008 48.5479" fill="#8C9592"/>
<path d="M62.875 53.1751C62.0667 54.9742 60.8152 56.1083 58.9249 56.1996C56.5262 56.3299 54.1276 56.2778 51.7158 56.2908C49.0173 56.3039 46.3057 56.2126 43.6072 56.3169C41.5996 56.3951 39.9179 55.8867 38.51 54.4527C38.0928 54.0225 37.5974 53.6836 36.9717 53.1621H62.8619L62.875 53.1751Z" fill="#8C9592"/>
<path d="M0.417346 53.0713H12.3326C15.5657 53.0713 18.7987 53.0713 22.0187 53.0713C22.9312 53.0713 23.6352 53.7492 23.6091 54.6748C23.5831 55.5612 23.1789 56.187 22.2012 56.2522C21.9013 56.2652 21.6015 56.2913 21.3017 56.2913C16.048 56.2913 10.7813 56.2913 5.52767 56.2913C2.80306 56.2913 1.22559 55.3005 0.404297 53.0713" fill="#8C9592"/>
</svg>
