<svg width="151" height="11" viewBox="0 0 151 11" fill="none" xmlns="http://www.w3.org/2000/svg">
<path d="M150.886 0.528661C150.953 0.633548 150.972 0.662154 150.981 0.681224C151.115 1.97166 150.536 2.61688 149.246 2.61688H133.713V4.60021H150.953V6.72658H133.656C133.656 7.36544 133.627 7.91848 133.675 8.47153C133.684 8.62409 133.913 8.8148 134.075 8.87201C134.275 8.93875 134.523 8.90061 134.743 8.90061C139.787 8.90061 144.84 8.90061 149.894 8.90061H150.953V10.9316H131.338C131.31 10.7123 131.253 10.5025 131.253 10.2832C131.253 7.26055 131.253 4.24741 131.243 1.22473C131.243 0.719365 131.329 0.461914 131.939 0.461914C138.118 0.480985 144.297 0.471448 150.476 0.480983C150.609 0.480983 150.752 0.50959 150.895 0.519125" fill="#8C9592"/>
<path d="M85.7027 2.62614H84.6157C79.7623 2.62614 74.9088 2.62614 70.0554 2.62614C69.0637 2.62614 68.6918 3.03616 68.8539 3.8848C68.9779 4.57134 69.4547 4.67623 70.0458 4.67623C73.5739 4.67623 77.1019 4.67623 80.63 4.67623C81.45 4.67623 82.27 4.62855 83.0805 4.6953C84.2152 4.78111 85.2737 5.07671 85.7409 6.28768C86.2367 7.59401 86.2939 8.94802 85.3499 10.0446C84.9209 10.5404 84.1008 10.9314 83.4524 10.9409C78.0936 11.0076 72.7348 10.979 67.376 10.9886C66.8897 10.9886 66.7085 10.8169 66.7467 10.3497C66.7657 10.1495 66.7753 9.94922 66.7467 9.75852C66.6608 9.09105 66.9278 8.88127 67.6048 8.89081C70.5989 8.91941 73.5834 8.90034 76.5775 8.90034C78.3797 8.90034 80.1913 8.90034 81.9935 8.90034C83.2426 8.90034 83.5192 8.70964 83.5192 7.861C83.5192 6.95515 83.3094 6.79305 82.0412 6.79305C77.9506 6.79305 73.86 6.79305 69.7693 6.79305C66.9755 6.79305 65.5452 4.36156 66.8897 1.90147C67.4999 0.785842 68.5298 0.499784 69.674 0.499784C72.9446 0.490248 76.2152 0.499784 79.4953 0.499784C81.2688 0.499784 83.0519 0.528389 84.8255 0.480713C85.5311 0.461642 85.8076 0.661883 85.7218 1.37703C85.6741 1.75844 85.7218 2.14938 85.7218 2.63568" fill="#8C9592"/>
<path d="M44.3296 0.481213H45.2259C50.5561 0.481213 55.8959 0.481213 61.2261 0.481213C63.1331 0.481213 63.9341 1.28218 63.9627 3.21783C63.9627 3.5325 63.9532 3.83762 63.9627 4.15229C64.0295 5.55397 63.8673 6.84123 62.2178 7.31799C63.4764 8.5385 63.915 9.54924 63.8102 10.9414C63.5908 10.9605 63.3715 10.9795 63.1522 10.9795C62.6468 10.9795 62.1415 10.9795 61.6933 10.9795C61.598 10.8651 61.5407 10.827 61.5312 10.7793C61.0449 8.40501 60.4061 7.88057 57.9746 7.87104C54.5324 7.87104 51.0901 7.87104 47.6479 7.87104H46.6276V10.9223H44.3105V0.47168L44.3296 0.481213ZM53.9507 2.5599C51.7576 2.5599 49.5549 2.56943 47.3523 2.55036C46.7802 2.55036 46.5227 2.70293 46.5799 3.32272C46.6276 3.85669 46.6372 4.4002 46.5799 4.92464C46.4941 5.67793 46.7802 5.8877 47.5144 5.87817C51.5478 5.84956 55.5717 5.8591 59.6051 5.8591C60.9527 5.8591 61.617 5.17574 61.598 3.80902C61.5884 2.76968 61.3977 2.5599 60.3679 2.5599C58.2225 2.5599 56.0866 2.5599 53.9412 2.5599" fill="#8C9592"/>
<path d="M31.8 10.9888C29.4543 10.9888 27.1182 10.9888 24.7725 10.9888C23.0085 10.9888 22.0359 10.0162 22.0264 8.28076C22.0264 6.59302 22.0264 4.89575 22.0264 3.20801C22.0264 1.54887 22.9704 0.519067 24.62 0.509531C29.4162 0.480926 34.2124 0.47139 39.0087 0.509531C40.6678 0.519067 41.6118 1.52027 41.6499 3.18894C41.6785 4.90528 41.688 6.63116 41.6499 8.34751C41.6118 10.0257 40.6106 10.9792 38.9133 10.9888C36.539 10.9983 34.1743 10.9888 31.8095 10.9888M31.8668 8.9673C33.8882 8.9673 35.9192 8.98637 37.9407 8.9673C39.0182 8.95777 39.4187 8.53822 39.4282 7.47027C39.4473 6.3165 39.4473 5.1532 39.4282 3.99943C39.4091 2.96009 39.0373 2.59775 37.9693 2.56915C37.3209 2.55961 36.6725 2.56915 36.0241 2.56915C32.6677 2.56915 29.3113 2.56915 25.9644 2.56915C24.7439 2.56915 24.4102 2.92195 24.4102 4.14246C24.4102 5.18181 24.4102 6.23068 24.4102 7.27003C24.4102 8.59543 24.763 8.94823 26.1265 8.95777C28.0431 8.9673 29.9502 8.95777 31.8668 8.95777" fill="#8C9592"/>
<path d="M2.38381 10.9514H0V0.538888C0.209776 0.519818 0.448158 0.491211 0.686539 0.491211C6.04535 0.491211 11.4042 0.491211 16.7725 0.491211C18.4602 0.491211 19.3756 1.33985 19.4996 3.03712C19.5473 3.7332 19.5473 4.44834 19.4996 5.15395C19.3756 6.8989 18.2409 7.89057 16.4865 7.89057C12.0812 7.89057 7.68542 7.9001 3.28013 7.8715C2.58406 7.8715 2.31706 8.04313 2.37427 8.76781C2.43148 9.46389 2.38381 10.1695 2.38381 10.9514ZM2.37427 5.8691H4.32901C8.07637 5.8691 11.8332 5.88816 15.5806 5.84049C16.086 5.84049 16.8107 5.64978 17.049 5.28744C17.8881 4.01926 17.0395 2.56036 15.552 2.56036C11.4614 2.56036 7.37075 2.56036 3.28013 2.56036C2.98454 2.56036 2.68893 2.58897 2.37427 2.60804V5.85956V5.8691Z" fill="#8C9592"/>
<path d="M107.214 0.566549V2.6357H106.175C101.465 2.6357 96.7542 2.65477 92.0438 2.61663C91.1951 2.61663 90.9568 2.90269 90.9758 3.69411C91.014 4.9623 90.9758 6.23049 90.9854 7.49868C90.9854 8.43949 91.4462 8.9099 92.368 8.9099C96.4872 8.9099 100.606 8.9099 104.726 8.9099C105.317 8.9099 105.908 8.9385 106.499 8.9099C107.109 8.87176 107.31 9.11014 107.262 9.69179C107.224 10.0827 107.262 10.4737 107.262 10.9981H106.385C101.474 10.9981 96.5635 10.9981 91.6624 10.9981C89.6886 10.9981 88.6588 10.0637 88.5825 8.0994C88.5253 6.44027 88.5348 4.78113 88.6016 3.122C88.6683 1.44379 89.5742 0.537944 91.2142 0.528409C96.43 0.499803 101.655 0.509338 106.871 0.509338C106.957 0.509338 107.033 0.537943 107.214 0.576084" fill="#8C9592"/>
<path d="M109.941 0.528887H112.287V4.52416H126.218V0.490745C126.962 0.490745 127.639 0.44307 128.287 0.528887C128.459 0.547958 128.697 0.986579 128.697 1.24403C128.726 3.80901 128.716 6.374 128.716 8.93898V10.9318H126.247V6.78401H112.335V10.9318H109.941V0.538423V0.528887Z" fill="#8C9592"/>
</svg>
