<svg width="106" height="24" viewBox="0 0 106 24" fill="none" xmlns="http://www.w3.org/2000/svg">
<path d="M0.0130491 22.7403C0.534505 21.4106 1.09507 20.0939 1.56438 18.7511C1.77296 18.1515 2.04676 17.8777 2.73769 17.8907C6.84415 17.9298 10.9506 17.8907 15.057 17.9168C15.9435 17.9168 16.491 17.617 16.7648 16.7826C16.9212 16.3133 17.0907 15.844 17.2863 15.3877C17.56 14.7359 17.2733 14.5013 16.6605 14.5013C15.4612 14.5013 14.2618 14.5013 13.0494 14.5013C11.2635 14.5013 9.46444 14.5534 7.67845 14.4882C5.82729 14.41 4.83648 13.8103 4.6279 12.3894C4.52361 11.6984 4.57576 10.9163 4.79738 10.2514C5.55349 7.97004 6.33569 5.67563 7.26128 3.45945C8.09561 1.46488 9.81639 0.474114 11.8892 0.448041C17.4818 0.356787 23.0614 0.421968 28.654 0.421968C28.7062 0.421968 28.7583 0.461077 28.9017 0.526259C28.3933 1.88204 27.8197 3.22479 27.3764 4.59361C27.0896 5.48009 26.6464 5.74081 25.7208 5.72778C22.201 5.6626 18.6812 5.70171 15.1613 5.70171C13.3493 5.70171 12.4368 6.53603 12.1891 8.36113C12.0978 9.01295 12.5149 9.01295 12.9712 9.01295C15.7349 9.01295 18.5117 8.94777 21.2754 9.05206C22.1097 9.07813 23.0614 9.36493 23.7132 9.86031C24.8995 10.7468 25.082 12.5849 24.4432 14.2405C23.7653 16.0265 23.0745 17.8125 22.4618 19.6115C21.823 21.4627 20.7018 22.7403 18.7073 23.1053C18.616 23.1183 18.5247 23.1965 18.4465 23.2487C12.2933 23.2487 6.15318 23.2487 0 23.2487V22.7403H0.0130491Z" fill="#8C9592"/>
<path d="M56.5257 23.2479C58.4029 18.2419 60.2672 13.249 62.1444 8.24298C63.057 5.80518 63.9695 3.36737 64.9081 0.942602C64.9994 0.720983 65.2992 0.434184 65.5078 0.434184C67.5414 0.395074 69.5751 0.40811 71.7783 0.40811C70.7614 3.14575 69.7707 5.80518 68.7669 8.51675C69.0015 8.54282 69.184 8.59496 69.3666 8.59496C71.9608 8.59496 74.5681 8.59496 77.1623 8.59496C77.6055 8.59496 77.8533 8.50371 78.0227 8.0344C78.8571 5.71392 79.7565 3.41952 80.5778 1.09904C80.7603 0.603657 80.9429 0.382037 81.5034 0.395074C83.485 0.434183 85.4534 0.40811 87.5784 0.40811C86.9526 2.07677 86.379 3.61506 85.8054 5.16639C84.3323 9.10338 82.8722 13.0534 81.3991 17.0034C80.7343 18.7633 80.0695 20.5233 79.4176 22.2962C79.3003 22.6091 79.2482 22.935 79.1699 23.2479H72.4562C72.4562 23.1175 72.391 22.9611 72.4431 22.8568C73.1862 20.8622 73.9423 18.8676 74.6984 16.8731C75.0634 15.8953 75.4154 14.9306 75.8065 13.8877C73.0689 13.8877 70.4616 13.9399 67.8673 13.8617C66.9157 13.8226 66.5898 14.2136 66.303 15.0219C65.3122 17.7856 64.2563 20.5102 63.2264 23.2609H56.5127L56.5257 23.2479Z" fill="#8C9592"/>
<path d="M81.6865 23.2479C82.7034 20.5885 83.7201 17.9291 84.7239 15.2566C86.523 10.4592 88.2959 5.66186 90.0949 0.864465C90.1601 0.681956 90.4208 0.434264 90.5903 0.434264C92.6761 0.408192 94.762 0.421228 96.9782 0.421228C94.775 6.2876 92.611 12.0627 90.4208 17.9161H105.465C104.787 19.7412 104.135 21.5011 103.496 23.2479H81.6996H81.6865Z" fill="#8C9592"/>
<path d="M30.2058 23.2485C32.3568 17.4474 34.4947 11.6331 36.6848 5.72764H29.3584C30.0233 3.91558 30.662 2.20781 31.3008 0.460938H53.0846C52.4459 2.1687 51.8462 3.81129 51.1813 5.44084C51.1161 5.61031 50.6599 5.68853 50.3861 5.68853C48.2612 5.70157 46.1362 5.7146 44.0113 5.68853C43.542 5.68853 43.3334 5.83193 43.1769 6.26213C41.8342 9.92536 40.4784 13.5886 39.1226 17.2388C38.3796 19.2333 37.6495 21.2409 36.9064 23.2355H30.1927L30.2058 23.2485Z" fill="#8C9592"/>
<path d="M47.1396 23.2483C47.8436 21.4232 48.5476 19.5981 49.2385 17.76C51.1679 12.6366 53.0842 7.50031 55.0006 2.36397C55.2482 1.72519 55.3526 0.825678 55.8349 0.525841C56.3694 0.199931 57.2428 0.408513 57.9598 0.408513C59.4069 0.408513 60.8539 0.408513 62.4183 0.408513C61.8838 1.9077 61.3884 3.32866 60.8539 4.73659C59.5111 8.33464 58.1684 11.9327 56.8126 15.5438C55.9522 17.8512 55.0788 20.1456 54.2184 22.4531C54.1271 22.7138 54.075 22.9875 54.0098 23.2483H47.1396Z" fill="#8C9592"/>
</svg>
