<svg width="61" height="62" viewBox="0 0 61 62" fill="none" xmlns="http://www.w3.org/2000/svg">
<path d="M28.3396 0.979782H31.7409C31.8318 1.00575 31.9097 1.03172 32.0006 1.04471C32.7535 1.12262 33.5195 1.17456 34.2724 1.27845C41.2178 2.27833 47.1766 5.27799 51.928 10.4332C58.6396 17.6921 61.184 26.3145 59.6522 36.0666C58.6136 42.7152 55.5499 48.3899 50.5908 52.9478C43.3598 59.5964 34.7917 62.1286 25.1071 60.6352C18.4993 59.6094 12.8781 56.5708 8.26952 51.7142C3.49215 46.6758 0.804903 40.6635 0.142822 33.7422C0.103876 33.3007 0.0519279 32.8592 0 32.4177V29.6258C0.025964 29.5219 0.0519121 29.4051 0.0648941 29.3012C0.207696 28.0805 0.272628 26.8599 0.493322 25.6523C1.93432 17.9259 5.80296 11.6669 12.0603 6.92715C16.3184 3.70674 21.1217 1.81085 26.4183 1.18755C27.0545 1.10964 27.6905 1.04471 28.3267 0.966797M42.7497 7.79718C42.6329 8.03092 42.568 8.1348 42.516 8.25167C41.6852 10.0826 40.8413 11.9006 40.0104 13.7316C37.7905 18.5752 35.5706 23.4058 33.3637 28.2494C33.13 28.7818 32.8055 29.0155 32.2083 29.0025C30.7803 28.9765 29.3393 28.9636 27.9113 29.0025C27.2752 29.0155 26.9506 28.7688 26.7039 28.2234C23.9777 22.289 21.2256 16.3676 18.4734 10.4462C18.0839 9.60216 17.6815 8.74512 17.279 7.88807C17.2011 7.92703 17.1492 7.94002 17.1102 7.96599C13.2546 10.2125 10.074 13.1732 7.6983 16.9649C7.62041 17.0818 7.62041 17.3156 7.6983 17.4454C12.0992 25.912 16.5001 34.3915 20.914 42.8451C21.0308 43.0658 21.2126 43.2346 21.3554 43.4424C21.5112 43.2346 21.7059 43.0528 21.8097 42.8191C23.4714 39.1832 25.1201 35.5472 26.7429 31.9113C26.9636 31.4178 27.2752 31.2101 27.8204 31.223C29.2614 31.249 30.7153 31.249 32.1563 31.223C32.7925 31.2101 33.143 31.4438 33.3897 32.0281C35.0124 35.6771 36.6741 39.313 38.3228 42.949C38.4137 43.1308 38.5695 43.2866 38.6993 43.4554C38.8421 43.2866 39.0368 43.1437 39.1277 42.9619C40.0104 41.2868 40.8673 39.5987 41.7371 37.9106C45.2422 31.1192 48.7473 24.3277 52.2654 17.5493C52.4082 17.2766 52.3823 17.0948 52.2265 16.8481C50.5518 14.238 48.4877 11.9785 46.0211 10.1086C44.9825 9.31648 43.8661 8.60228 42.7497 7.82315M5.19279 22.4059C1.49293 32.6385 4.60861 45.4162 15.1759 52.818C25.3668 59.96 39.1796 58.8432 48.2021 50.1559C57.2375 41.4556 57.8737 29.6388 55.0047 22.4448C54.9398 22.5747 54.8748 22.6786 54.8099 22.7954C53.8363 24.6913 52.8626 26.5742 51.902 28.4701L40.4778 50.7143C40.1533 51.3506 39.8287 51.9999 39.4782 52.6362C39.0758 53.3374 38.2319 53.3374 37.8165 52.6491C37.7126 52.4803 37.6348 52.3115 37.5569 52.1297C35.2331 47.0394 32.9093 41.9621 30.5985 36.8717C30.5076 36.664 30.4038 36.4562 30.2869 36.2484C30.1571 36.0277 30.0013 36.0407 29.8715 36.2354C29.8066 36.3263 29.7547 36.4302 29.7027 36.5341C28.5344 39.1442 27.366 41.7543 26.1847 44.3514C24.9773 47.0394 23.757 49.7274 22.5497 52.4154C22.3679 52.8179 22.1083 53.1036 21.628 53.1166C21.1476 53.1166 20.875 52.8569 20.6803 52.4544C20.6154 52.3245 20.5505 52.2076 20.4856 52.0778C19.3951 49.9481 18.3046 47.8185 17.2011 45.6889C13.7479 38.9754 10.2947 32.2619 6.84149 25.5484C6.30923 24.5225 5.77697 23.4837 5.21874 22.3929M21.5241 6.01816C21.576 6.14802 21.628 6.26489 21.6669 6.36877C24.3282 12.1084 26.9895 17.848 29.6508 23.5746C29.7547 23.7823 29.9365 23.9512 30.0663 24.1329C30.2091 23.9512 30.3908 23.7823 30.4817 23.5746C33.0132 18.1336 35.5316 12.6927 38.0631 7.2388C38.2449 6.84923 38.4267 6.44668 38.6214 6.01816C32.8964 4.03138 27.2232 4.03138 21.5112 6.01816" fill="#8C9592"/>
</svg>
