<svg width="74" height="73" viewBox="0 0 74 73" fill="none" xmlns="http://www.w3.org/2000/svg">
<path d="M0.803711 0.871094V72.2491C1.23838 72.2751 1.63353 72.3011 2.02869 72.0669C2.62142 71.7157 3.22733 71.3385 3.88593 71.1173C6.0066 70.3628 8.15361 69.6604 10.3006 68.9709C12.4081 68.3075 14.5025 67.566 16.6495 67.0717C19.521 66.4082 22.4188 65.7968 25.3693 65.4586C26.805 65.3025 28.2276 65.0033 29.6633 64.8992C31.9421 64.7301 34.2208 64.626 36.4995 64.561C37.6323 64.522 38.7783 64.6261 39.9242 64.6651C41.5048 64.7301 43.0987 64.7171 44.6661 64.9122C47.5112 65.2765 50.3564 65.7448 53.1883 66.2261C54.7689 66.4993 56.3628 66.7855 57.9039 67.2278C60.8675 68.0863 63.7917 69.036 66.729 69.9856C68.5204 70.571 70.3645 71.0263 71.9583 72.0669C72.3139 72.2881 72.6695 72.3011 73.0779 72.2491V0.871094H0.816876H0.803711ZM16.7944 21.4897C16.6627 22.3092 16.5968 23.1287 16.3729 23.9093C15.846 25.7825 14.7923 27.4086 13.6463 28.9696C13.0009 29.8542 12.1579 30.5957 11.4729 31.4412C10.9461 32.0786 10.4587 32.7681 10.0635 33.4966C9.83963 33.9389 9.83963 34.4982 9.73425 35.0056C10.9461 35.5129 12.0393 35.4478 13.1194 34.7064C13.8175 34.225 14.3312 33.6136 14.8186 32.9502C14.9635 32.7421 15.0294 32.4689 15.0952 32.2087C15.1479 32.0006 15.2533 31.9355 15.464 31.9485C15.7802 31.9616 16.1094 31.9485 16.4651 31.9485V36.6837H3.67517C3.67517 36.5926 3.63567 36.5015 3.64884 36.4235C3.79373 35.604 3.95179 34.7844 4.10985 33.9649C4.13619 33.8348 4.22841 33.7177 4.26792 33.5746C4.66308 32.1177 5.69047 31.051 6.59933 29.8932C8.29851 27.7468 9.78693 25.4703 11.1305 23.1027C11.1832 23.0117 11.2227 22.8946 11.2885 22.7645C10.3006 22.7385 9.36544 22.7645 8.41706 22.8946C7.61358 23.0117 7.15257 23.584 6.57301 23.9873C6.49397 24.0393 6.48079 24.1954 6.45444 24.2995C6.28321 24.8589 6.13833 25.4182 5.95392 25.9776C5.92758 26.0687 5.76952 26.1858 5.66414 26.1858C5.11092 26.2118 4.54452 26.1858 3.96496 26.1858V21.4636H16.7944V21.4897ZM31.5205 21.4897V26.1858H29.6501C29.637 26.1467 29.6106 26.1207 29.6106 26.1077C29.6238 25.9906 29.637 25.8735 29.6238 25.7695C29.5843 25.002 29.0442 24.4166 28.7149 23.7532C28.6623 23.6491 28.5305 23.597 28.4252 23.519C27.5295 22.8816 26.5416 22.6084 25.4483 22.7515C25.2507 22.7775 25.0532 22.7515 24.8292 22.7515V28.111C25.3561 27.9939 25.8566 27.8899 26.344 27.7728C26.4099 27.7598 26.4757 27.6557 26.5021 27.5777C26.6074 27.2394 26.6865 26.8882 26.7918 26.511H28.2803V31.5713H26.7787C26.5943 31.103 26.7128 30.5176 26.2518 30.1924C25.8435 29.9062 25.4483 29.5029 24.8292 29.7111V35.3698C25.8435 35.4739 26.7655 35.3698 27.6744 34.9015C28.6359 34.4202 29.2682 33.7697 29.5052 32.7291C29.5316 32.638 29.5711 32.5599 29.6106 32.4689C29.7423 32.1827 29.795 31.7664 30.019 31.6233C30.2429 31.4672 30.6512 31.5713 30.9673 31.5713C31.1386 31.5713 31.3098 31.5713 31.5074 31.5713V36.6576H18.0457C18.0457 36.2804 18.0457 35.9162 18.0457 35.5519C18.0457 35.4869 18.1379 35.3958 18.2038 35.3698C18.3355 35.3178 18.4672 35.2917 18.5989 35.2527C18.8492 35.1617 19.218 35.1487 19.3234 34.9795C19.5341 34.6413 19.679 34.212 19.6922 33.8218C19.7185 30.6607 19.7185 27.4996 19.6922 24.3385C19.6922 23.9353 19.4946 23.519 19.3497 23.1287C19.3234 23.0507 19.1653 23.0117 19.06 22.9856C18.7307 22.9076 18.4014 22.8426 18.0589 22.7645V21.5027H31.4942L31.5205 21.4897ZM41.518 36.6837H33.1012C33.1012 36.3064 33.1012 35.9292 33.1012 35.5519C33.1012 35.4739 33.1934 35.3698 33.2724 35.3308C33.4832 35.2007 33.6939 35.0706 33.9178 34.9925C34.5501 34.7714 34.7608 34.3161 34.7608 33.6917C34.7608 30.5696 34.7608 27.4606 34.7477 24.3385C34.7477 23.9223 34.6028 23.467 34.3789 23.1027C34.2603 22.9076 33.8652 22.8426 33.5885 22.7645C33.4568 22.7255 33.2856 22.7645 33.1144 22.7645V21.5027H41.4917C41.4917 21.8799 41.4917 22.2442 41.4917 22.6084C41.4917 22.6734 41.3731 22.7645 41.2941 22.7905C41.1097 22.8556 40.9121 22.8816 40.7145 22.9206C40.0823 23.0637 39.832 23.3629 39.832 24.0133V33.7828C39.832 34.186 40.2272 34.7064 40.6223 34.8364C40.8989 34.9275 41.2941 34.9275 41.4127 35.1096C41.5575 35.3308 41.4785 35.708 41.4785 36.0072C41.4785 36.2284 41.4785 36.4365 41.4785 36.6837H41.518ZM55.9017 21.5027V26.2118C55.4144 26.2118 54.927 26.2118 54.4396 26.2118C54.387 26.2118 54.3079 26.1077 54.2684 26.0297C54.2025 25.8866 54.1499 25.7435 54.0972 25.6004C54.0972 25.5744 54.0708 25.5483 54.0708 25.5223C53.8864 25.015 53.6493 24.5597 53.3464 24.1564C53.0303 23.7532 52.6483 23.4149 52.1872 23.1287C52.1082 23.0767 52.0292 23.0377 51.937 23.0117C51.7131 22.9726 51.4891 22.9206 51.2521 22.8816C51.015 22.8295 50.7647 22.7905 50.5276 22.7775C50.0139 22.7385 49.5002 22.7775 48.9206 22.7775C49.1841 23.2718 49.3816 23.7532 49.6582 24.1694C49.8295 24.4166 49.9875 24.6638 50.1588 24.9239C51.476 26.9272 52.7931 28.9436 54.2421 30.8558C54.624 31.3632 54.9138 31.9485 55.1509 32.5469C55.2826 32.8982 55.4012 33.2624 55.4934 33.6397C55.5988 34.0819 55.7041 34.5373 55.8359 34.9795C55.8622 35.0576 55.8622 35.1356 55.8754 35.2137C55.8754 35.2787 55.9017 35.3568 55.9017 35.4218C55.9017 35.5649 55.8754 35.721 55.8227 35.8771C55.7437 36.0983 55.6383 36.2674 55.5066 36.3975C55.4671 36.4365 55.4407 36.4755 55.4144 36.5015C55.4012 36.5015 55.3748 36.5145 55.3617 36.5276C55.1904 36.6446 54.9665 36.7097 54.6899 36.7097H43.5201V31.5973C43.6387 31.5973 43.7441 31.5973 43.8626 31.5973C44.2051 31.5973 44.5475 31.5973 44.8768 31.5973C44.9559 31.5973 45.0613 31.7014 45.1139 31.7924C45.1139 31.7924 45.1403 31.8185 45.1403 31.8315C45.4037 32.5209 45.6408 33.2104 45.9043 33.8998C45.9043 33.9128 45.9306 33.9389 45.9306 33.9519C45.9833 34.0559 46.0623 34.147 46.1545 34.212C47.0239 34.7584 47.9459 34.9665 48.9206 35.0316C49.4343 35.0576 49.9612 35.0576 50.4881 35.0316C50.3037 34.6673 50.1456 34.3161 49.9612 33.9909C49.9217 33.9258 49.8954 33.8608 49.8558 33.7958C49.7373 33.6267 49.6187 33.4575 49.5002 33.2754C48.4069 31.6624 47.3137 30.0363 46.1414 28.4883C45.4696 27.5907 44.7583 26.7321 44.35 25.7044C44.3236 25.6394 44.2973 25.5874 44.2709 25.5223C43.8099 24.2345 43.3753 22.9336 43.507 21.5027H55.9412H55.9017ZM70.022 21.5027V26.2248C69.5215 26.2248 69.0078 26.2248 68.5072 26.2248C68.4414 26.2248 68.3623 26.1077 68.3228 26.0166C68.2306 25.7695 68.1647 25.5093 68.0725 25.2621C67.7564 24.3255 67.111 23.6621 66.2943 23.1287C66.2285 23.0897 66.1495 23.0507 66.0704 23.0247C64.9772 22.7515 63.8707 22.7125 62.7116 22.7905C62.7643 22.8816 62.8038 22.9596 62.8565 23.0377C64.6742 25.6394 66.5183 28.2281 68.2833 30.8688C68.9551 31.8575 69.5214 32.9242 69.719 34.134C69.7585 34.3942 69.8112 34.6673 69.9166 34.9015C69.9693 35.0316 70.0088 35.1617 70.0088 35.2787C70.0352 35.643 69.8771 35.9812 69.6795 36.2674C69.5215 36.5015 69.1395 36.7097 68.8629 36.7097C65.1089 36.7357 61.3549 36.7227 57.6141 36.7227C57.5877 36.7227 57.5746 36.7227 57.5219 36.6967V31.6233H59.1157C59.4055 32.3908 59.682 33.1583 59.985 33.9128C60.0377 34.0559 60.1826 34.186 60.3143 34.2771C61.6051 35.0836 63.0541 35.1487 64.582 35.0446C64.3317 34.5633 64.121 34.0819 63.8312 33.6397C62.8301 32.1307 61.8027 30.6347 60.7622 29.1387C60.4987 28.7484 60.1958 28.3842 59.8665 28.033C59.142 27.2525 58.6151 26.3419 58.1936 25.3792C57.8775 24.6638 57.7326 23.8572 57.5746 23.0897C57.4692 22.5824 57.4824 22.049 57.4428 21.5027H70.0088H70.022Z" fill="#8C9592"/>
</svg>
