<svg height="187" viewBox="0 0 335 187" width="335" xmlns="http://www.w3.org/2000/svg" xmlns:xlink="http://www.w3.org/1999/xlink"><mask id="a" fill="#fff"><ellipse cx="195.082938" cy="195" fill="#fff" fill-rule="evenodd" rx="194.917062" ry="195"/></mask><g fill="none" fill-rule="evenodd" mask="url(#a)" transform="translate(-55 -153)"><g transform="translate(55 151)"><path d="m250.493039 167.427529c138.350291-1.671666 250.506961 1.707365 250.506961 7.545002s-112.15667 11.928274-250.506961 13.59994c-138.34871 1.671666-250.493039-1.707365-250.493039-7.545002s112.144329-11.928274 250.493039-13.59994" fill="#201e1c" fill-opacity=".3" fill-rule="evenodd"/><path d="m123.859794 153.888298h19.291595c.975747.981548 2.198599 1.936051 3.546587 1.986958 6.994965.28476 13.964586.259306 20.354462 0 2.581928-.100223 4.992783-1.751513 7.007637-3.315308 1.889718 1.266308 4.337005 2.160359 6.673413 2.160359h39.880489c5.363441 13.367816 15.016366 22.279693 26.039456 22.279693h22.578405c4.683902 0 9.1207-1.61311 13.088632-4.492528h17.598294c8.873595 0 14.558588-7.336947 17.462069-18.358276l1.371748-.012727c5.486993-1.2154 10.986658-2.419665 16.47365-3.636656h33.628423c3.533915 0 6.648068-1.465163 9.713118-4.3064h21.430001c1.001091.96723 2.941497 2.481708 5.437889 2.481708h5.610545c2.794184 14.993652 9.92379 25.631589 18.624729 25.631589h18.772041c14.002603 0 20.243582-17.849207 20.243582-39.88073 0-2.344895-.085536-4.642066-.247105-6.862877 5.16544-1.477889 8.354042-4.034366 13.693722-12.933517 2.187511-.335667 4.077228-2.780785 6.264739-8.440989 1.237108-3.238947 2.619944-6.4174421-.82685-7.4467146 2.198598-1.6767438 3.027033-3.240538 1.976838-4.6420667-1.335316-10.7620224-5.05456-24.4400517-10.714209-30.1257084-3.75726-3.7734689-31.181135-10.5870301-43.997318-13.9007467-11.753316-12.1635511-16.411875-25.9290765-25.877887-29.2936999-25.187261-8.9856921-50.102073-18.80371089-76.795723-20.28080442-38.212533-2.11008817-81.90097 2.73067426-115.033599 9.68152482-5.350769 1.1294954-12.000421 4.0832052-13.68105 9.1102548-4.782111 4.1329984-9.614909 8.3789463-14.496812 12.7473888-11.740644-1.7371957-30.314685-1.1167686-41.203134 1.811965-2.532824.6824697-4.053468 3.240538-5.277904 5.9576901-51.8302225.5472485-63.9304354.620427-69.5035981 7.7457926-20.5523043 5.1256816-45.7636421 8.6016637-55.7370117 18.0846519-2.5334574.9051871-4.0289164 2.5692042-2.805431 6.1183648 3.1637328 9.1616389 6.3770451 18.3216869 9.5654884 27.4817349-8.8610815 1.178811-14.36058786 4.95228-12.6921556 7.769655.8897356 1.514478 3.0031148 3.611204 4.7827442 4.145725 2.0020238.607701 4.0412716.769966 6.2533343.657017 3.3368646 4.183905 6.8837683 8.068732 10.7150008 11.581304-1.7550774 7.28604-7.7613069 21.175651-5.2771122 21.858121 1.7300501.458161 8.5396869.905187 18.5254118 1.266307 4.2760211 17.798301 15.4852313 30.483647 28.634689 30.483647h22.5671586c11.2464345 0 21.0704325-9.284133 26.3610085-23.111702" fill="none"/><path d="m36.664165 72.8671044c-5.6766952.6817948-7.1730652 10.5527214-3.908157 15.0042534 3.5247122 4.810706 7.7419711 2.7144651 9.0283103-2.7287685-1.6572614 1.9834031-3.5247122 2.8638561-5.1448814 2.6286448-5.6519671-.8184716-4.98399-11.5189947.0247281-14.9041297zm112.480738-7.8366671c-7.296389.7803293-9.238183 11.8289014-5.032812 16.8144266 4.55093 5.4066805 10.338268 3.0005328 11.612718-3.0513893-1.892654 2.4427007-4.365469 3.1372096-6.418222 2.9639797-7.359795-.6452417-5.974384-14.0856581-.161684-16.727017zm.370922-1.5129805c-3.05456-2.7287685-10.747234-3.3358678-14.419998 1.8228873 1.360048-3.1499238 4.514473-5.2334506 7.989094-5.2334506 8.112735 0 14.927242 7.2915491 14.927242 16.3932713 0 6.3729537-2.892876 10.8753423-8.223694 10.8753423s-9.918207-5.9533878-9.918207-12.3263415 4.31633-11.5317088 9.645563-11.5317088zm-116.4629207-3.744309c-3.3021589 1.2269128-9.0281518 3.3724209-10.5741367 4.8361342l44.9925488-7.7254185 72.8935086-1.6496573 1.978252-2.1455081-75.0326521.8184716zm-5.5899882 41.1921662c-8.8550547 1.19036-14.8532158 2.703341-13.1837488 5.517929 22.4715462-2.889284 146.2692167-9.672268 209.7127677-8.8283682 2.634499.0365531 4.959896.5085649 5.034398 1.3635896 1.27445-.3353349 3.327204-2.6779119 2.101892-2.8527311-11.327394-1.5749619-77.196206.2368005-136.8449383 3.5218118 16.3617913-2.5666634 52.7961813-3.4963836 67.3287243-5.1333268 2.114574-.2352113 3.499984-1.8467263 1.60733-1.8101732-51.696097 2.4299866-111.6277757 4.7248857-135.7564249 8.2212689zm117.1928769-45.7311078c8.669118 1.2396269 10.525314 2.5666634 13.480011 6.6097543 3.747265 5.1460409 9.041625 17.1974395 8.249057 22.3196414-.407381 2.5666635-1.78011 4.4261038-3.140158 5.9517985 1.643788-.0492672 4.303649-.6452417 4.872713-1.401732.963764-1.4128568 1.916432-3.4598305 1.978252-5.3685381.160099-5.0967737-5.243636-20.2249898-12.738167-26.9205644-2.559997-2.282185-6.96351-3.0752283-11.019877-3.2246193zm58.917983 7.4774931c.656247 0 1.287132.0985344 1.892655.2717644-4.329011.3846022-7.729132 4.5262275-7.729132 9.573734 0 5.2938426 3.759947 9.5848588 8.383794 9.5848588 1.10167 0 2.152617-.2352112 3.117966-.6817948-1.49637 1.7609059-3.488889 2.8273029-5.665283 2.8273029-4.638113 0-8.396474-4.8234201-8.396474-10.7879326 0-5.9517985 3.758361-10.7879327 8.396474-10.7879327zm-11.489078-30.0704882 15.385347-14.4702603c1.879973-1.7736201 3.091018-3.5965073 6.430904-4.3021411 34.245315-7.26707441 73.388705-12.0161169 123.68671-7.81266918 1.581967.13651789 2.807279 2.07081265 2.138351 4.30277678l-10.214628 34.1000703c-.494563 1.6369433-3.079922 1.9087076-4.787116 1.8228873l-49.023554-2.4427007 48.368893.7930434c1.050946.0254282 2.472814-.4831367 2.807278-1.4875523l10.463494-32.5624562c.209239-.68211267.185462-1.81049101-.829027-1.95924624-21.432647-3.06283203-79.472464-2.72797384-123.51393 8.06043564-1.891069.4577084-3.376343 1.5495336-4.698348 2.8145888l-14.569001 13.8011796zm-144.1538497 88.7223229c.0494563 2.280596 5.4787115 10.973877 7.4327107 11.841616 18.3037437 1.10295 37.7451407.457708 56.036045-1.029844-1.767429-3.97952-3.572901-8.13386-5.429097-12.076827-19.3798936.532404-38.6600821 1.487552-58.0396587 1.265055zm-21.4202829-8.779101c2.8074374 3.458241 5.1819737 6.894233 9.0652441 7.761971 3.6978092.842311 6.8886914.557833 10.7101414.855025.0370922 2.046974 6.3816059 13.403863 8.9045111 13.565968 16.5475696 1.004416 39.130868.384603 56.816249-1.079111 1.100086-.087409 1.322005-1.040968 1.074724-1.587676-2.127255-4.748724-3.747266-8.356356-5.527375-12.138808 16.634435-.818471 40.57794-1.004415 49.889039-2.479254 5.565418-.880453 9.758107-6.59704 12.77621-11.074-7.469169.222497-14.519862.707223-22.421773.657956-.939987 0-1.112767 8.245108.358241 8.208555 9.139904-.185944 9.721649-.185944 13.987255-1.551123-2.410994 1.77362-4.463748 2.504682-5.936341 2.604806-15.916367 1.115664-82.489932 3.682327-115.6468916 3.099067 2.4117871-.545118 5.1201534-1.648068 4.0441619-2.739893-2.9928985-3.000533-5.1323589-5.270004-6.8019844-5.344699-2.1025267-.111249-4.4028785.162105-6.5917952.247925 1.7190818 3.733184 4.1059822 6.274419 7.148337 7.639598-1.4841644.023839-3.5988966.036553-5.5530544-1.327036-2.7207304-1.897583-5.2436356-5.357414-6.2948989-5.319271zm148.5196366 30.515482c-22.95438 2.827303-106.5325089 2.901999-143.350027-.284478-3.166154-.273354 1.3974574-9.114437 3.7967219-17.893538 4.8108929 4.662904 9.1765207 5.815122 14.6677547 7.018196 2.1394604 3.199191 3.9698189 4.885401 5.6889008 4.960096 6.7897788.309907 12.6765047.459298 19.6270166.459298-1.1007197 1.462124-2.2508956 3.186477-2.5599974 4.090769-.2227119.657956 1.1996322.905881 1.9045429.905881 17.2034996.061982 34.4307765.185944 51.6215945-.743776 10.06721-.533993 15.854548-5.25729 22.916336-10.75138 18.514408-1.921421 36.843356-5.840549 54.923437-12.399447-7.209207 5.133327-16.39825 23.063417-29.23628 24.638379zm-16.201693-88.9448199c.792569.3973163 2.201756 1.8356014 2.4744 2.1455081 14.259899-.0746955 27.56713-.0492672 41.194559.9551484 2.177979.1605158 4.305234 1.5129806 6.270805 3.5456508-1.409188-.8423106-2.967378-1.3143223-4.625432-1.3143223-6.047301 0-10.956472 6.3125616-10.956472 14.0983722 0 7.7873998 4.909171 14.0999615 10.956472 14.0999615 6.059981 0 10.970738-6.3125617 10.970738-14.0999615 0-1.2396269-.123641-2.4427007-.359826-3.5949181 2.374536 5.1571659 3.661668 10.5400073 3.079922 13.3545961-.654662 3.0990673-3.845544 5.9136561-9.807247 6.236277-13.554512.7437761-27.579811.4958507-32.46362.4592976-4.230733-.0254282 4.821989-2.6413589 9.571061-4.1289112-3.140157-.0127141-10.53641 2.132794-15.236343 4.2528739-1.19995.545118-1.038265 1.797459.470786 1.8228873 12.861807.2113723 30.868971.0365531 39.625272-.4958508 5.563833-.335335 12.156421-2.6413589 10.350949-13.1066707-1.112766-6.4476492-5.158038-13.9871237-8.658022-18.4386557 4.045272 2.2440426 7.878135 4.786867 10.388993 7.2406926-1.916432-3.6441853-3.907365-7.650723-6.245443-11.1216784-4.290968-2.8654453-10.461909-4.6883325-18.489046-5.4559477 6.456266 1.4128569 10.772596 3.0879425 13.616333 4.9473828-14.705323-1.3016082-31.709095-1.6496573-52.128839-1.4017319zm180.650219-5.541768c-1.012903.9042919 2.659861 2.1947753 3.785309 1.4494099 2.225533-1.4748382 3.450845-4.3514083 4.25451-6.7813949-1.608915-1.2412162-4.416194-4.5262275-2.598041-5.0347924 2.634499-.7564903 12.850711.6690807 16.979995 1.9341358-.085597-2.9258373-.876581-5.9390843-3.214659-6.3236865-5.292775-.8550247-14.852741.335335-15.743588 3.2738865-.754525 2.4792538.778303 4.0542157 1.978252 5.7785685-1.223726 3.1244955-3.994547 4.4133897-5.441778 5.7038731zm2.090797-41.7635075c.445424.90508657.592841 1.84752088.494563 2.80235145 1.138129.44642465 3.276479.83070895 2.930919 2.07081265l-8.63266 30.6524772c-.618203 2.1947753-.432742 3.8682716.149003 4.5262275l10.783692-35.8360248c.718068-2.35592685-3.512665-3.76941939-5.725517-4.215844zm46.5016 13.3665156c6.0473 11.8670438 9.980027 22.5691561 13.727292 34.7699456.680024.1366768 1.372729.2733536 2.052754.4084412 2.201756-1.1903597 4.403512-2.3680053 6.603683-3.558365-.247281-1.1156642.123641-2.0215454.816346-2.8018746-3.610944-6.6097543-7.30907-13.4547198-12.441746-19.5177669-1.62001-1.8975827-3.956503-3.385135-5.93634-4.5500664 3.872491 7.6999902 8.372697 19.5781589 8.570839 22.9013125-3.289161-9.0015985-6.307263-16.7508559-11.105475-25.9399877-.630884-1.2030738-1.360048-1.9341359-2.287353-1.7116387zm-37.041498-10.27904996c15.249024 2.95126566 29.941666 7.13071546 44.090605 10.86231026-2.003614-1.9102968-16.238151-6.8322514-38.154265-11.94110352.496148-.28511419 1.076309-.48361343 1.818153-.49585077 10.537996 2.02106869 37.659702 9.75904229 39.550771 12.42424019 5.392639 7.5760276 11.823543 16.8398548 18.41613 26.2626086.185461-1.0155405-.334464-2.5666634-.989126-3.6330604-4.810893-7.7746857-9.425229-13.9744095-14.532542-21.5504371 6.208984 2.0708127 9.585328 2.8145888 12.540024 4.2163208-.641981-.7692044-2.336493-2.2567567-4.327426-3.0005328-11.51444-4.3402835-31.265256-11.4705221-43.521541-14.58278033-23.150936-5.88997603-36.161746-7.60113794-70.308783-5.84039095 46.748882.13635896 56.494308 2.67838876 55.418 7.27867602zm131.861265 90.02361346c0 1.6989243-.34556 3.0132473-.654662 4.5007993-.087182.397316 2.670957.707223 2.856418.384602.605523-1.053683.718068-1.934136.890848-2.925837.259962-.025428.754525.333746.618204.917006-.878167 3.819004-2.856419 6.77027-2.559998 7.96063.754526-.967863 3.821767-6.633594 3.956504-8.97776.112545-1.8228871-5.107314-2.4427006-5.107314-1.8594403zm-212.348218-1.5384087c11.143518 0 20.172463 14.38444 20.172463 32.128587 0 17.744146-9.028945 32.141301-20.172463 32.141301-5.923659 0-11.252892-4.06852-14.951019-10.540008 3.549124 5.120613 8.347336 8.257823 13.629014 8.257823 10.894652 0 19.725454-13.367311 19.725454-29.859116 0-16.491806-8.830802-29.859116-19.725454-29.859116-5.281678 0-10.07989 3.149924-13.629014 8.270536 3.698127-6.471488 9.02736-10.540007 14.951019-10.540007zm-14.976381 12.760211c1.681831-2.604806 3.698127-4.613637 5.936341-5.791283l6.183622 16.293148c-.358241.273353-.703801.608688-1.025584 1.004415zm-4.365469 11.619118c.692705-3.769737 1.879973-7.193014 3.425483-10.031442l10.698094 12.164236c-.221919.545118-.420062 1.128379-.592842 1.748192zm-.34556 13.750323c-.247282-1.872154-.370922-3.80629-.370922-5.789693 0-1.996117.12364-3.931842.370922-5.791283l13.392828 4.786867c-.023777.322621-.023777.656367-.023777 1.004416 0 .333746 0 .669081.023777 1.004416zm3.771043 12.189665c-1.54551-2.840017-2.732778-6.248991-3.425483-10.031442l13.530735-3.868272c.17278.607099.370923 1.19036.592842 1.735478zm6.876327 7.390084c-2.238214-1.19036-4.25451-3.186477-5.936341-5.802408l11.094379-11.495156c.321783.384603.667343.719937 1.025584 1.004416zm8.138097.570546c-1.100086.421155-2.250896.632527-3.425483.632527-1.187268 0-2.325397-.211372-3.438163-.632527l6.740005-16.045222c.185461.036553.383604.049267.592842.049267.198142 0 .396284-.012714.594426-.049267zm7.210791-6.372954c-1.683416 2.615931-3.698126 4.612048-5.93634 5.802408l1.607329-16.293148c.358241-.284479.705387-.619813 1.025584-1.004416zm4.36547-11.619118c-.692706 3.782451-1.879974 7.191425-3.425483 10.031442l-2.907142-12.164236c.221919-.545118.432742-1.128379.594426-1.735478zm.34556-13.739199c.247281 1.859441.370922 3.795166.370922 5.791283 0 1.983403-.123641 3.917539-.370922 5.789693l-5.601877-4.785277c.023777-.335335.036458-.67067.036458-1.004416 0-.348049-.012681-.681795-.036458-1.004416zm-3.771043-12.200789c1.545509 2.838428 2.732777 6.261705 3.425483 10.031442l-5.738199 3.880986c-.161684-.619813-.372507-1.203074-.594426-1.748192zm-6.876327-7.378959c2.238214 1.177646 4.252924 3.186477 5.93634 5.791283l-3.303427 11.50628c-.320197-.395727-.667343-.731062-1.025584-1.004415zm-4.699934-1.214198c1.174587 0 2.325397.222497 3.425483.632527l1.063627 16.045222c-.198142-.025428-.396284-.049267-.594426-.049267-.209238 0-.407381.023839-.592842.049267l-6.740005-16.045222c1.112766-.41003 2.250895-.632527 3.438163-.632527zm4.327426-8.582033c12.121548 0 21.952572 15.649495 21.952572 34.95589 0 19.306394-9.831024 34.968604-21.952572 34.968604-12.131059 0-21.963668-15.66221-21.963668-34.968604 0-19.306395 9.832609-34.95589 21.963668-34.95589zm183.07548 13.232223c5.256317 0 9.510826 11.469727 9.510826 25.617367 0 14.147639-4.254509 25.606242-9.510826 25.606242-.754525 0-1.49637-.235212-2.201756-.694509.210823.036553.40738.061981.618204.061981 5.256316 0 9.510826-11.185249 9.510826-24.973714 0-13.788466-4.25451-24.973715-9.510826-24.973715-.210824 0-.407381.025428-.618204.049267.705386-.444994 1.447231-.692919 2.201756-.692919zm-7.123609 9.014312c.692705-2.220203 1.509051-3.919128 2.423676-4.910829l.914624 13.168652c-.2346.074695-.481882.211372-.703801.384602zm-1.781695 9.845499c.285325-3.199191.779888-6.088476 1.398092-8.507337l2.212852 8.135449c-.45652.632527-.840123 1.450999-1.149225 2.417272zm-.136321 11.655671c-.098279-1.574962-.147418-3.224619-.147418-4.910829 0-1.686211.049139-3.323154.147418-4.909241l2.139936 2.231329c-.123641.831185-.198143 1.735477-.198143 2.665197 0 .942435.074502 1.848316.210824 2.692216zm1.534413 10.341349c-.618204-2.406147-1.112767-5.306556-1.398092-8.505747l2.4744-2.046974c.296421.955148.692706 1.77362 1.149225 2.393433zm2.807279 6.261706c-.914625-1.004416-1.730971-2.703341-2.423676-4.921955l2.634499-8.667853c.2346.17323.469201.297193.716482.384602zm3.314523.484725c-.445424.359174-.914625.545118-1.398092.545118-.481882 0-.939986-.185944-1.396506-.545118l1.187268-13.60411c.17278.012714.34556-.036553.494563-.111249zm2.9436-5.40668c-.680024 2.218614-1.509051 3.917539-2.423675 4.921955l-.890847-13.713771c.185461-.162105.358241-.348049.531021-.557832zm1.78011-9.845498c-.28374 3.199191-.765621 6.0996-1.396506 8.505747l-2.449038-9.200256c.271059-.570547.51834-1.228502.705386-1.94685zm.136322-11.655672c.098279 1.586087.161684 3.22303.161684 4.909241 0 1.68621-.063405 3.335867-.161684 4.910829l-2.88178-3.038675c.06182-.607099.099863-1.239627.099863-1.884869 0-.630938-.038043-1.252341-.099863-1.85944zm-1.532828-10.342938c.630885 2.418861 1.112766 5.308146 1.396506 8.507337l-3.140158 2.641359c-.187046-.732652-.421646-1.389018-.705386-1.972279zm-2.807279-6.248991c.914624.991701 1.743651 2.690626 2.423675 4.910829l-2.783501 9.336934c-.17278-.224087-.34556-.410031-.531021-.570546zm-1.918017-1.029844c.483467 0 .952668.187533 1.398092.533993l-1.125448 13.702645c-.247282-.08741-.309102-.100124-.481882-.112838l-1.187268-13.589807c.45652-.34646.914624-.533993 1.396506-.533993zm2.968963-6.001066c5.972799 0 10.809054 12.78405 10.809054 28.544794 0 15.760743-4.836255 28.544793-10.809054 28.544793-5.961703 0-10.797958-12.78405-10.797958-28.544793 0-15.760744 4.836255-28.544794 10.797958-28.544794zm-384.069039-39.1467821c.3709222 0 .7543671-.0111249 1.1252893-.0111249 1.5583489 4.5373524 3.1166977 9.076294 4.6872522 13.6025215 1.5580318 4.5373523 3.1162222 9.0635798 4.6744126 13.6025215-.3836033.0127141-.7656215.0365531-1.1492249.0619813-1.5581903-4.5389416-3.1170148-9.0890081-4.6753636-13.6279497-1.5581904-4.5389416-3.1165393-9.0890081-4.6623656-13.6279497zm4.98399-.0492672h1.1378119c1.5705544 4.5007992 3.1414259 9.0031877 4.7122973 13.4912729 1.5819675 4.5007992 3.1528389 8.9904736 4.7237104 13.4912729-.3836033.0127141-.7672066.0365531-1.1492248.0619813-1.5708715-4.5135134-3.141743-9.0143126-4.7126144-13.5167011-1.5708715-4.5007993-3.1412674-9.0143127-4.7119804-13.527826zm-39.9094876.3226208c.3709222 0 .754367 0 1.1378118-.0127141l.173097.5578321c-.4081729-.1239627-.8285514-.2479254-1.2490885-.3226209zm14.630504 27.4164152.3339885 1.066397c-.3834448.023839-.7667311.0365531-1.1501759.0619814l-.0618204-.1732299zm-9.6465141-27.4529683c.3834449 0 .7667311-.0127141 1.1378119-.0127141.5318137 1.7100494 1.0636274 3.4216881 1.5954411 5.1206127-.5318137-.5943852-1.0883556-1.1649315-1.6696256-1.6862105zm4.9965126-.0381424c.3832863 0 .754367-.0127141 1.1376533-.0127141 1.4841645 4.7248857 2.9681704 9.4497713 4.4646989 14.1619429 1.4841645 4.7105822 2.9681704 9.4354679 4.4646989 14.1476394-.3834448.0254283-.7792537.0365531-1.16254.0619814-1.4841644-4.7248857-2.9681704-9.4481821-4.4523348-14.1730677-1.4840059-4.7248857-2.9681704-9.4608962-4.4521763-14.1857819zm4.98399-.0365531c.3710807-.0127141.754367-.0127141 1.1378118-.0127141 1.49637 4.6867433 3.0052626 9.3623617 4.5016326 14.049105 1.5088926 4.6740292 3.0054211 9.3623617 4.5141552 14.0363909-.3958089.0254283-.7790952.0381424-1.16254.0619814-1.49637-4.6867433-2.9928985-9.3734866-4.5016326-14.0618192-1.4965285-4.6994574-2.9928985-9.3862007-4.489427-14.072944zm4.98399-.0492672c.3834448 0 .7545255 0 1.1378118-.0127141 1.5212567 4.6501902 3.0299908 9.2987911 4.5512474 13.9489813 1.5210982 4.6374761 3.0423548 9.2876662 4.5512474 13.9251423-.3834448.0127141-.7668896.0381424-1.1501759.0619814-1.5212567-4.6501902-3.0299907-9.3115053-4.5388833-13.9616955-1.5212567-4.6501902-3.0423548-9.3003803-4.5512474-13.9616954zm4.9965126-.0381424c.3709222 0 .754367 0 1.1378118-.0127141 1.5210982 4.6136371 3.0547189 9.2256849 4.5881811 13.8266079 1.5336207 4.6120478 3.0672415 9.2129708 4.5883396 13.8250186-.3834448.0127141-.7667311.0381424-1.1501759.0619813-1.5210981-4.6120478-3.0547189-9.2368097-4.5883396-13.8504468-1.5210982-4.6120478-3.0547189-9.2368098-4.575817-13.8504469zm67.2543815-6.0264939c.51834-.0619813 1.025584-.1239627 1.545509-.185944 1.360048 5.1094878 2.732777 10.2301006 4.092826 15.3268743 1.361633 5.1078986 2.734362 10.2173864 4.09441 15.325285-.507244.0254283-1.001807.0508565-1.509051.0746955-1.372729-5.0840596-2.745458-10.1792441-4.105507-15.2633037-1.372729-5.0840596-2.745458-10.1808333-4.118187-15.2776071zm15.656405 27.516539.680024 2.6397696c-.507244.0254282-1.014488.0508565-1.509051.0746954l-.989126-3.8317185c.581745.4100304 1.187268.7946326 1.818153 1.1172535zm-8.86726-28.3477247c.507244-.0619813 1.014488-.1239627 1.532828-.185944l.607107 2.3441662c-.458104.4592977-.854389.9424343-1.21263 1.4637134zm-47.441587 5.8039968c.5199252-.0619814 1.0271693-.1239627 1.5455093-.1859441 1.5344133 4.5882089 3.0799226 9.1764177 4.6143359 13.7630373 1.5455092 4.5882088 3.0910185 9.1764177 4.6254318 13.7646265-.5072441.0127141-1.001807.0365531-1.5090511.0619814-1.5470944-4.5627806-3.0926037-9.1382754-4.6381129-13.7026452-1.5455093-4.5627806-3.0926037-9.1382753-4.638113-13.7010559zm6.7780489-.8311858c.507244-.0619813 1.0255841-.1239627 1.5455092-.185944 1.5090511 4.6756184 3.0181022 9.3496476 4.5271533 14.025266 1.5201466 4.6740292 3.0291986 9.3480584 4.5382496 14.0236768-.507244.0254282-1.001807.0365531-1.509051.0619813-1.521733-4.6501901-3.0291986-9.3003803-4.5509308-13.9505705-1.5217322-4.6613151-3.0307833-9.3115053-4.5509303-13.9744096zm6.7764637-.8311857c.5199254-.0619813 1.0271694-.1239627 1.5344134-.185944 1.483689 4.7614387 2.967378 9.5355916 4.451067 14.2859055 1.485274 4.7614388 2.956281 9.5228775 4.452651 14.2843163-.507244.0238389-1.001807.0492672-1.509051.0746954-1.483689-4.7375997-2.980059-9.4863244-4.463747-14.2239242-1.483689-4.7360105-2.981645-9.4847351-4.4653334-14.235049zm6.7780484-.8184716c.507244-.0619814 1.025585-.1239627 1.54551-.1970689 1.44723 4.8599732 2.894461 9.7088215 4.341692 14.5576699 1.458327 4.8345449 2.905557 9.6961074 4.365469 14.5322416-.507244.023839-1.001807.0492673-1.509051.0746955-1.459912-4.8234201-2.918238-9.6595543-4.365469-14.4829744-1.459912-4.8250094-2.93092-9.6595543-4.378151-14.4845637zm6.776464-.8295965c.507244-.0619813 1.027169-.1239627 1.547095-.1986581 1.421868 4.9473827 2.831055 9.8820514 4.252924 14.8183094 1.436135 4.9346686 2.858003 9.8693373 4.279872 14.8055952-.507244.0111249-1.014488.0365531-1.509051.0619814-1.421869-4.9108297-2.856418-9.8216594-4.278287-14.743614-1.43455-4.9108296-2.869099-9.8343735-4.292553-14.7436139zm6.778049-.8311857c.507244-.0619814 1.025584-.1239627 1.532828-.1859441 1.398092 5.0220783 2.783502 10.0568707 4.180008 15.0662348 1.398092 5.0220783 2.783502 10.0441565 4.181594 15.0662348-.496149.023839-.990712.0492672-1.497956.0731062-1.409187-5.0093641-2.807278-10.0060142-4.203785-15.0026642-1.398091-5.0109534-2.796183-10.0076034-4.192689-15.0169675zm-40.6524417 4.972811c.507244-.0619813 1.0144881-.1239627 1.5344133-.185944 1.5708714 4.5007992 3.1417429 9.0015985 4.6999333 13.5023977 1.5708715 4.4896744 3.1401578 9.0031878 4.7110293 13.4912729-.494563.0254283-1.0018071.0492673-1.49637.0746955-1.5708715-4.4769603-3.141743-8.9650454-4.7237104-13.4420057-1.5708715-4.475371-3.1544241-8.9650454-4.7252955-13.4404164zm-14.8525819.185944c.3834449 0 .7543671-.0127141 1.1378119-.0127141 1.5336207 4.5754947 3.079447 9.1509895 4.6254318 13.7137701 1.5581904 4.5754947 3.1041752 9.1398645 4.65016 13.7153593-.3958089.0111248-.7792537.0365531-1.16254.0619813-1.5336207-4.5882088-3.0796055-9.1637036-4.6254318-13.7391983-1.5459848-4.5754947-3.0918111-9.1637035-4.6254319-13.7391983zm355.4748986 22.7789392v8.2705365c13.814475.5816711 15.410709-2.2567567 21.58165-7.9240767-9.585328 13.3911488-13.616333 36.2940508-23.510763 46.2142448-.667343.681795.272644 1.624229 1.076309.818472 5.774657-5.691159 9.918207-17.384973 12.94899-24.55097 4.525568-10.702113 9.014678-26.3373043 22.681735-26.4501422 9.758108-.0858203 13.047269 7.254996 14.011033 13.3053289 1.088989 6.8195373-1.37273 13.0081363-1.520147 19.9150833-.04914 2.070812.147417 3.594918.890847 5.529054.28374.745365 1.396506.360763 1.125448-.271765-.74343-1.786334-1.163491-3.137209-1.114352-5.257289.174365-7.03091 2.981644-13.305329 1.856196-20.2504183-.854389-5.3192708-3.240021-10.2173864-7.668896-14.2096208 4.416194 2.9385515 6.245442 5.5926245 7.569032 9.8327843.025363-.7437762-.17278-2.2933098.321783-2.4554149 2.214438-.7056338 14.55632 1.7243528 17.401642 1.8737438-2.177979-12.7856391-4.354373-22.2211071-10.01807-28.4955264-4.810893-3.72047-39.736232-13.3053288-52.128839-15.1536443-8.496338-1.2634659-13.541831 3.361296-18.885331 6.039208.347146.4211553.607108.9551484.816346 1.5622478 2.250896 1.3651788 4.01991 3.3231537 5.281679 5.9517984 1.050947.1366768 1.990933.4720118 2.436357 1.1283784 1.656469 2.504682 1.78011 4.2163207-.210823 4.3164444 1.534413 2.9258374 2.028976 6.608165 4.452651 8.7791014.210824 2.132794.321783 4.1161971.334464 5.9517984 13.739974 1.6369433 23.559902-2.0962408 28.876454-2.6048057-11.118156 3.4232774-12.774625 9.6102871-28.605395 8.1354489zm-81.72336-8.172002-.085597 11.0231439 78.692576 5.3939663c-.049139 4.2163204-.110959 8.9523314-.110959 14.1603534 0 5.295432-1.916432 9.896355-2.572679 12.313628 1.645373-3.286601 3.809086-8.580444 3.821767-12.238932 0-1.698925.198142-31.5580408-.074501-33.7401021-2.472815-2.3552911-2.832641-6.0264939-4.378151-9.0635798-5.032812-.6579558-8.916399-1.0918252-15.08734-1.9849923-1.805472-.2606395-4.687253-5.0093642-2.4744-4.8726874 5.070855.2971926 10.030751.8057575 15.174523 1.4875523-1.001807-2.1073657-2.720096-4.1416253-4.934534-5.4925007-.692705-.4211553-.456519-1.1045394-1.174587-1.6369433-17.969121-2.4299866-35.827282-4.9108297-53.921629-7.0928909.210823.4704225.432742.9297202.656247 1.401732 17.647338 2.4045583 35.296261 4.7979918 52.943599 7.1914253-1.260184.694509-3.449259.5578322-4.847351.4211553-16.845258-1.6862104-32.414481-3.9429671-49.66712-5.8771029-1.905335 3.199191-6.419807 2.7891605-14.012617.917006.927305 4.8615625.469201 9.8963549 2.312716 13.9632847-.049139 3.0370859-.025362 5.1953082-.074502 8.009897 6.629046.7437761 77.815996 7.7127043 78.434199 7.986058.061821 1.611515.074502 3.4582412.074502 5.517929zm-3.536442.1986581c-11.921821-.3226208-24.22883-2.6667871-22.274355.694509 2.127255 3.6330604 11.254478 9.1875425 22.225216 10.0314424-.112545 6.434935-.359827 12.7347821-.829027 19.8515121-.285325 4.513514-2.745459 9.982176-2.300035 11.209088 1.545509-3.54565 3.190882-8.009897 3.536442-12.237342 1.174587-14.3097448.667343-28.719613.989126-43.0786247-1.55819-4.7741529-.790984-10.16653-2.016295-14.9168439-2.385632-.917006-6.009257-1.7847449-7.023745-2.7144651-.890848-.7946326 3.796405-.7692044 5.998161-.8804529-40.776083-3.199191-92.792377-7.4155118-134.730365-8.9904737-10.19085-.3846022-20.479979-.6579558-30.90543-.7930434 3.029198-.4465835 5.205592-.5594213 8.087373-1.1410924 1.410772-.2860678 1.459912-1.401732 1.521732-3.9318423.023777-1.0044157-.458105-1.4255709-1.756333-1.4255709-8.792759.0127141-18.736327.5705462-26.701644 2.7033402 2.547316.7437761 15.225247-1.3397506 26.379861-1.215788.865486 0 .481882 2.3934335-.12364 2.4808431-9.95625 1.4748382-24.227245 3.2866006-29.669023 4.0176626-39.030846 1.3016083-66.314236-.0619813-70.6797052 8.2085552-15.1624763 3.4216881-19.0457466 4.0923581-29.7558881 6.8449655 16.2506733-3.1626379 24.4502737-4.6867433 30.9184281-5.7531403.9773959-1.0044156 1.5955996-1.6989246 3.0919696-2.7907498 3.7837237-2.7526075 32.1671996-4.5135134 47.9488306-4.7360105-15.310845 1.27618-31.6234973 1.4128568-44.523348 5.5052149-3.1290618.9917015-2.5726785 2.7271792 5.4417777 2.8018747 19.0707923.1986581 38.1526793-.2113723 57.2234713-.3226209 5.145357-3.3469926 11.303617-4.2036066 17.648923-4.4642461 26.52728-1.1156643 104.825157-.8423106 148.581298 3.2500474-27.579811-.6086885-82.985129-.683384-95.599655.3957271-3.834448.335335 1.421869 3.0259611 2.485496 6.1266176 2.523539 4.289427 4.774435 8.4564805 6.839869 12.4868573 16.46007 4.8472591 24.227245-4.4531213 37.274514-6.1139035-7.952636 3.0386752-12.280062 4.5500664-18.303586 17.8553953-.865485 1.923011-.556383 3.7077559 5.392639-1.8959935-11.650762 14.2716022-21.64347 33.988027-34.418095 42.902216-.990711.694509-.458105 3.175352.816346 2.232918 10.64737-7.885935 15.012839-15.797297 29.64366-37.2619138 8.707161-12.7713357 20.690803-18.5260653 31.054433-17.9682332 20.739942 1.1172535 27.950733 12.4757324 29.681703 27.8629988 2.114574 18.7739902-4.329011 29.0533582-5.516279 32.4639222-.4692 1.338161.97803 2.329862 2.387218 2.342577 38.90879.348049 75.032493.224086 113.977742.14939 2.53622 0 1.472592-2.132794-.370923-2.132794-39.339947.085821-73.783405.160516-113.112256-.074695-.605523-.012714-1.558191-.408441-.976445-1.425571 5.156453-8.941206 6.678185-17.831556 5.341914-31.6947173-1.285547-13.3545961-9.151-25.0102676-17.809022-29.8829549 16.06537 6.3729537 23.919728 7.7985247 44.857812 9.1748284.023777 2.1582222.049139 4.241749.049139 6.2505803zm-111.319466 69.1902525c4.416194 14.335173 13.654376 22.592996 23.510763 22.952169-10.00539-2.825713-17.2035-9.595983-21.716387-23.993137-.594427.397316-1.187268.75649-1.794376 1.040968zm-173.9343075-4.661315c4.7367085 17.210154 12.7877814 26.311876 24.9573591 27.613484-10.7719618-3.607632-18.0440981-11.444299-22.2860851-27.476807zm365.0971595 1.884869c2.572679 14.036391 8.867261 23.757927 18.068985 23.037989-7.816314-.818471-13.468915-9.484735-16.288875-23.087256-.592841.023839-1.187268.036553-1.78011.049267zm-186.290139-.707223c4.180009 16.579215 14.989063 26.337304 24.785214 26.696478-10.438132-2.280596-18.87265-11.506281-23.065339-28.171316-.581746.483136-1.15081.991701-1.719875 1.474838zm5.158039-4.128911c3.091018 17.831556 13.281868 30.006917 25.167231 30.825389-11.699902-3.000533-19.861776-13.62636-23.287258-31.879072-.643566.309907-1.26177.656366-1.879973 1.053683zm-177.1878033 2.951265c4.7367085 17.210154 12.78794 26.311876 24.9575177 27.613484-10.7721203-3.607632-18.0440981-11.444299-22.2860851-27.476807zm6.7650507 0c4.7490726 17.210154 12.7877815 26.311876 24.9578348 27.613484-10.7599148-3.607632-18.0445737-11.444299-22.2865607-27.476807zm356.4893866 1.53682c2.534635 14.223924 8.854579 24.11869 18.143486 23.386038-7.939954-.829596-13.654376-9.770803-16.425197-23.745212-.556383.149391-1.136543.260639-1.718289.359174zm4.749073-1.586087c2.338078 15.07736 8.780077 25.728616 18.401863 24.972125-8.383793-.867738-14.283676-10.775218-16.856354-26.089378-.481882.422744-1.001807.794632-1.545509 1.117253zm-105.110482-135.6681066-45.64721 32.227598 2.447452-.1621051 34.196176-23.3733243c2.461719-.3226209 4.303649 1.0171297 6.468947 1.4764274 1.929113.4084412 3.698126-.3099067 5.638335-.9805767l-33.205465 22.8043674 5.318137-.0874096 26.341819-17.4707931c.779887 1.1522173.049139 2.8384278 2.361855 3.4471164 1.310909.3464598 2.116159 2.1693471 3.847129 1.2269127l-.161684 4.8361343 6.61795-20.596878c.247281-.7930433.160099-1.8222515-1.312494-2.1323172-4.216466-.9174828-8.780078-.9546716-12.910947-1.2151522zm31.265256 2.2939455-2.858003 10.663811c3.030783 1.1283784 5.492502-.5085648 7.854357.6579559 2.287354 1.1283783 2.856419 4.4626568 5.070856 5.7404261 1.421869.8184716 3.325619-.4211553 4.909171 0 3.067242.8311858 2.536221 4.810706 4.823575 5.9025313 2.485495 1.1903596 5.429096-.2733537 8.261737.3353349l-4.910756 14.7547388 3.772627.5832604 7.35821-21.5758654 1.472593.8184716-6.950829 20.9194988 1.954475.1605158 5.243635-15.5001042c1.260185-.3464598 2.349174 1.2904834 3.438164.9789874.641981-.1732299.716482-1.4128568 1.383825-1.4748381.656247-.0492673 1.03985.8184716 1.559775 1.2396269l-6.67977-15.5732104c-11.896458-3.2611724-23.794502-6.3364007-35.703642-8.6311408zm-154.468499 21.7997928 13.690834-13.4165774c2.040072-1.9977065 5.045494-2.8654453 7.852772-3.4359915 17.834385-3.6823277 35.457946-5.4804224 53.328788-6.8939149 13.925435-1.10358585 28.543575-1.26473735 41.887264-.6571612l-46.389055 32.8839645-15.867228-1.3016083 19.230891-14.8548625c-4.329012 2.3187381-8.6818 3.2484583-13.097993 2.6286448-4.996354-.707223-6.701963-6.9689282-13.739974-6.398382l-20.616301 16.0833646-6.0473-.1748192 10.463494-8.6916918c-1.249089-1.1903597-5.590781 1.0044157-9.647149.9917015-1.905335-.0127141-3.660082 2.7398934-5.478235 3.2738865-4.614336 1.3397506-5.29436-2.4061476-10.06721-2.2933098l-3.327204 3.2357441zm-159.2055252 37.0123989c-1.075833-1.1029501-3.5618044-2.4665397-6.0599815-2.8018746 6.3568778-2.0326703 12.6519352 8.1465737 12.6519352 15.115502 0 5.6911589-2.2508956 8.9777595-6.39397 8.9777595s-7.7048789-5.3192709-7.7048789-10.999305c0-5.6911589 3.3639793-10.2920819 7.5068952-10.2920819z" fill="#fffffe" fill-rule="evenodd"/></g></g></svg>