<svg height="34" viewBox="0 0 220 34" width="220" xmlns="http://www.w3.org/2000/svg"><g fill="#fff" fill-rule="evenodd" transform="translate(5 -1)"><path d="m103.2 8h3.3v18h5.43v3h-8.73zm13.77 8.85h4.53v3h-4.53v6.15h5.7v3h-9v-21h9v3h-5.7zm12.99.45h4.62v6.66c0 1.7000085-.414996 3.0049954-1.245 3.915s-2.054992 1.365-3.675 1.365-2.844996-.4549954-3.675-1.365-1.245-2.2149915-1.245-3.915v-10.92c0-1.7000085.414996-3.0049954 1.245-3.915.830004-.91000455 2.054992-1.365 3.675-1.365s2.844996.45499545 3.675 1.365c.830004.9100046 1.245 2.2149915 1.245 3.915v2.04h-3.12v-2.25c0-.7600038-.154998-1.2949984-.465-1.605s-.724997-.465-1.245-.465-.934998.1549984-1.245.465-.465.8449962-.465 1.605v11.34c0 .7600038.154998 1.2899985.465 1.59s.724997.45 1.245.45.934998-.1499985 1.245-.45.465-.8299962.465-1.59v-3.87h-1.5zm10.35-.45h4.53v3h-4.53v6.15h5.7v3h-9v-21h9v3h-5.7zm10.98-3.06v15.21h-2.97v-21h4.14l3.39 12.57v-12.57h2.94v21h-3.39zm10.17-5.79h5.22c1.660008 0 2.894996.4399956 3.705 1.32s1.215 2.1699915 1.215 3.87v10.62c0 1.7000085-.404996 2.9899956-1.215 3.87s-2.044992 1.32-3.705 1.32h-5.22zm3.3 3v15h1.86c.520003 0 .929999-.1499985 1.23-.45.300002-.3000015.45-.8299962.45-1.59v-10.92c0-.7600038-.149998-1.2899985-.45-1.59-.300001-.3000015-.709997-.45-1.23-.45zm19.89 18h-3.33l-.57-3.81h-4.05l-.57 3.81h-3.03l3.36-21h4.83zm-7.53-6.66h3.18l-1.59-10.62zm16.26 6.66c-.04-.1400007-.08-.2699994-.12-.39s-.075-.2699991-.105-.45-.05-.4099986-.06-.69-.015-.6299979-.015-1.05v-3.3c0-.9800049-.169998-1.669998-.51-2.07s-.889996-.6-1.65-.6h-1.14v8.55h-3.3v-21h4.98c1.720009 0 2.964996.399996 3.735 1.2s1.155 2.0099919 1.155 3.63v1.65c0 2.1600108-.719993 3.5799966-2.16 4.26.840004.3400017 1.414999.8949961 1.725 1.665.310002.7700038.465 1.7049945.465 2.805v3.24c0 .5200026.02.974998.06 1.365.04.3900019.139999.784998.3 1.185zm-3.6-18v6.45h1.29c.620003 0 1.104998-.1599984 1.455-.48s.525-.8999958.525-1.74v-2.07c0-.7600038-.134999-1.3099983-.405-1.65s-.694997-.51-1.275-.51zm11.85 11.04-4.17-14.04h3.45l2.52 9.57 2.52-9.57h3.15l-4.17 14.04v6.96h-3.3z"/><path d="m5.58 7.82c.800004 0 1.4799972.1299987 2.04.39s1.0199982.62499765 1.38 1.095.62499915 1.0249968.795 1.665.255 1.3399962.255 2.1v.45h-1.32v-.54c0-.5600028-.05499945-1.0749976-.165-1.545-.11000055-.4700023-.28999875-.8799982-.54-1.23-.25000125-.35000175-.574998-.624999-.975-.825s-.8799972-.3-1.44-.3c-1.1400057 0-1.94499765.36499635-2.415 1.095-.47000235.7300036-.705 1.6549944-.705 2.775 0 .8600043.18499815 1.589997.555 2.19s.83999715 1.1449975 1.41 1.635c.57000285.4900024 1.17999675.9599977 1.83 1.41.65000325.4500022 1.25999715.9399974 1.83 1.47.57000285.5300027 1.03999815 1.1349966 1.41 1.815s.555 1.4999952.555 2.46c0 .7600038-.08499915 1.4599968-.255 2.1s-.43999815 1.1949976-.81 1.665-.83999715.8349987-1.41 1.095-1.254996.39-2.055.39-1.48499715-.1299987-2.055-.39-1.03999815-.6249976-1.41-1.095-.63999915-1.0249968-.81-1.665-.255-1.3399962-.255-2.1v-1.08h1.32v1.17c0 1.1200056.2399976 2.0449964.72 2.775.4800024.7300037 1.2999942 1.095 2.46 1.095s1.9799976-.3649963 2.46-1.095c.4800024-.7300036.72-1.6549944.72-2.775 0-.8400042-.18499815-1.559997-.555-2.16s-.83999715-1.1449975-1.41-1.635c-.57000285-.4900024-1.17999675-.9549978-1.83-1.395s-1.25999715-.9249973-1.83-1.455-1.03999815-1.1399965-1.41-1.83-.555-1.5249951-.555-2.505c0-1.5800079.35499645-2.8399953 1.065-3.78s1.8449922-1.4199999 3.405-1.44zm7.13 5.31c0-.7600038.0899991-1.4649967.27-2.115.1800009-.6500032.4549981-1.20999765.825-1.68.3700018-.47000235.8449971-.83999865 1.425-1.11s1.269996-.405 2.07-.405 1.494997.13499865 2.085.405c.5900029.27000135 1.0749981.63999765 1.455 1.11s.6599991 1.0299968.84 1.68c.1800009.6500033.27 1.3549962.27 2.115v10.74c0 .7600038-.0899991 1.4649968-.27 2.115-.1800009.6500033-.4599981 1.2099977-.84 1.68-.3800019.4700024-.8649971.8399986-1.455 1.11-.590003.2700013-1.284996.405-2.085.405s-1.4899971-.1349987-2.07-.405c-.5800029-.2700014-1.0549982-.6399976-1.425-1.11-.3700019-.4700023-.6449991-1.0299967-.825-1.68-.1800009-.6500032-.27-1.3549962-.27-2.115zm1.38 10.83c0 1.1400057.2449976 2.0849963.735 2.835s1.3149942 1.125 2.475 1.125 1.9949975-.3749963 2.505-1.125.765-1.6949943.765-2.835v-10.92c0-1.1400057-.2549975-2.0849962-.765-2.835-.5100025-.75000375-1.3449942-1.125-2.505-1.125s-1.9849976.37499625-2.475 1.125c-.4900024.7500038-.735 1.6949943-.735 2.835zm17.69 5.01h-1.38l-4.44-18.57v18.6h-1.23v-21h1.98l4.41 18.57 4.38-18.57h1.98v21h-1.32v-18.66zm15.71-11.25v1.26h-5.73v8.76h6.9v1.26h-8.28v-21h8.28v1.26h-6.9v8.46zm7.46 11.28v-19.74h-4.26v-1.26h9.93v1.26h-4.29v19.74zm9.26-9.87v9.87h-1.38v-21h1.38v9.87h6.54v-9.87h1.41v21h-1.41v-9.87zm12.23-11.13v21h-1.38v-21zm4.16 21h-1.26v-21h1.8l6.3 17.73v-17.73h1.26v21h-1.53l-6.57-18.72zm15.41-21.18c.800004 0 1.4849972.13499865 2.055.405.5700029.27000135 1.0399982.63999765 1.41 1.11.3700019.47000235.639999 1.0299968.81 1.68.170001.6500033.255 1.3549962.255 2.115v1.56h-1.32v-1.65c0-.5600028-.0549994-1.0799976-.165-1.56-.1100005-.4800024-.2949987-.8999982-.555-1.26s-.589998-.639999-.99-.84-.8899971-.3-1.47-.3-1.069998.099999-1.47.3-.7299987.4799982-.99.84-.4449994.7799976-.555 1.26-.165.9999972-.165 1.56v10.92c0 .5600028.0549994 1.0799976.165 1.56s.2949987.8949983.555 1.245.589998.624999.99.825.8899971.3 1.47.3 1.069998-.099999 1.47-.3.7299987-.4749983.99-.825.4449995-.7649976.555-1.245c.1100006-.4800024.165-.9999972.165-1.56v-4.53h-2.79v-1.26h4.11v5.7c0 .7600038-.084999 1.4649968-.255 2.115-.170001.6500033-.4399981 1.2099977-.81 1.68-.3700018.4700024-.8399971.8399986-1.41 1.11-.5700028.2700013-1.254996.405-2.055.405s-1.4849972-.1349987-2.055-.405c-.5700028-.2700014-1.0399981-.6399976-1.41-1.11-.3700018-.4700023-.6399991-1.0299967-.81-1.68-.1700008-.6500032-.255-1.3549962-.255-2.115v-10.74c0-.7600038.0849992-1.4649967.255-2.115.1700009-.6500032.4399982-1.20999765.81-1.68.3700019-.47000235.8399972-.83999865 1.41-1.11s1.254996-.405 2.055-.405z"/></g></svg>