<svg width="152" height="43" viewBox="0 0 152 43" fill="none" xmlns="http://www.w3.org/2000/svg">
<path d="M59.5885 11.2617L59.5406 12.3137C58.5749 11.9044 57.3247 11.6998 55.7899 11.6998C53.7307 11.6998 52.7011 12.1378 52.7011 13.0139C52.7011 13.3081 52.8386 13.5415 53.1104 13.711C53.3854 13.8804 53.7403 13.9955 54.1815 14.0499C54.6228 14.1075 55.1056 14.1682 55.6332 14.2354C56.1608 14.3025 56.6948 14.3696 57.2288 14.44C57.766 14.5071 58.252 14.6159 58.6932 14.7661C59.1345 14.9164 59.4894 15.1595 59.7644 15.5016C60.0394 15.8437 60.1769 16.2658 60.1769 16.771C60.1769 17.2186 60.0682 17.6087 59.8476 17.9412C59.6269 18.2738 59.3583 18.5296 59.0418 18.7055C58.7252 18.8814 58.3415 19.0253 57.8906 19.134C57.4398 19.2427 57.0337 19.3098 56.6756 19.3354C56.3175 19.361 55.9338 19.377 55.5245 19.377C53.7883 19.377 52.311 19.2043 51.0928 18.8558V17.839C52.4421 18.2547 53.897 18.4625 55.4573 18.4625C57.75 18.4625 58.8947 17.9541 58.8947 16.9341C58.8947 16.6047 58.7572 16.3425 58.4822 16.1507C58.2072 15.9588 57.8523 15.8373 57.411 15.7829C56.9698 15.7286 56.4838 15.6711 55.953 15.6039C55.4222 15.54 54.8882 15.4728 54.3574 15.4088C53.8266 15.3449 53.3406 15.2426 52.8993 15.1019C52.4581 14.9644 52.1032 14.7342 51.8282 14.4145C51.5532 14.0947 51.4189 13.6886 51.4189 13.193C51.4189 11.5815 52.8194 10.7725 55.6204 10.7725C57.3247 10.7725 58.6485 10.9355 59.5917 11.2585" fill="white"/>
<path d="M71.9343 11.9681C73.095 12.7483 73.677 13.7907 73.677 15.0921C73.677 16.3935 73.1014 17.4359 71.9535 18.2129C70.8024 18.9867 69.2996 19.3768 67.4386 19.3768C65.5777 19.3768 64.1068 18.9899 62.9525 18.2193C61.7982 17.4487 61.2227 16.4095 61.2227 15.1049C61.2227 13.8003 61.7982 12.7579 62.9525 11.9745C64.1068 11.1911 65.6001 10.7979 67.4386 10.7979C69.2772 10.7979 70.7736 11.1879 71.9343 11.9681ZM70.7256 17.5766C71.573 16.9722 71.9983 16.1409 71.9983 15.0825C71.9983 14.0241 71.5698 13.1959 70.7129 12.5948C69.8559 11.9937 68.7656 11.6932 67.4386 11.6932C66.1117 11.6932 65.0149 11.9969 64.1707 12.6012C63.3266 13.2055 62.9045 14.0369 62.9045 15.0953C62.9045 16.1537 63.3298 16.9818 64.1772 17.583C65.0277 18.1841 66.1149 18.4847 67.4418 18.4847C68.7688 18.4847 69.8815 18.1809 70.7288 17.5766" fill="white"/>
<path d="M81.5904 19.3768L77.4272 13.4645L75.6781 19.236H74.6006L77.1746 10.7979L81.8845 17.4135L86.5209 10.7979L89.0821 19.236H87.493L85.7535 13.4486L81.5904 19.3768Z" fill="white"/>
<path d="M99.2992 19.236H90.7363V10.9033H99.2992V11.7954H92.3191V14.4781H98.0394V15.3702H92.3191V18.3439H99.2992V19.236Z" fill="white"/>
<path d="M106.087 19.236H104.501V11.7826H100.463V10.9033H110.126V11.7826H106.087V19.236Z" fill="white"/>
<path d="M121.873 19.236H120.274V15.3478H113.111V19.236H111.513V10.9033H113.111V14.4333H120.274V10.9033H121.873V19.236Z" fill="white"/>
<path d="M125.655 10.9033H124.092V19.236H125.655V10.9033Z" fill="white"/>
<path d="M137.851 19.3863L128.927 13.1767V19.236H127.885V10.7754L136.809 16.9849V10.9033H137.851V19.3863Z" fill="white"/>
<path d="M150.801 15.0927L150.814 18.4725C149.401 19.0832 147.805 19.387 146.024 19.387C144.08 19.387 142.533 19.0161 141.378 18.271C140.224 17.526 139.648 16.4645 139.648 15.0831C139.648 13.7018 140.224 12.6498 141.378 11.9016C142.533 11.1534 144.08 10.7793 146.024 10.7793C147.69 10.7793 149.18 11.0543 150.491 11.6011V12.6083C149.951 12.3237 149.286 12.0967 148.496 11.924C147.706 11.7546 146.916 11.6682 146.13 11.6682C144.64 11.6682 143.463 11.9688 142.593 12.5699C141.724 13.1711 141.292 14.0088 141.292 15.0799C141.292 16.1511 141.72 16.9921 142.584 17.6028C143.447 18.2135 144.592 18.5173 146.027 18.5173C147.239 18.5173 148.301 18.3446 149.209 17.9961V15.8889H146.35V15.0895H150.808L150.801 15.0927Z" fill="white"/>
<path d="M59.448 31.9011H51.208V23.5684H52.7812V31.0122H59.448V31.9011Z" fill="white"/>
<path d="M69.437 31.9011H60.874V23.5684H69.437V24.4605H62.4568V27.1464H68.1771V28.0353H62.4568V31.0122H69.437V31.9011Z" fill="white"/>
<path d="M81.7281 27.7607L81.7409 31.1404C80.3276 31.7511 78.7321 32.0549 76.951 32.0549C75.007 32.0549 73.4562 31.684 72.3051 30.939C71.1508 30.194 70.5752 29.1324 70.5752 27.7511C70.5752 26.3698 71.1508 25.3178 72.3051 24.5696C73.4594 23.8214 75.007 23.4473 76.951 23.4473C78.6169 23.4473 80.107 23.7222 81.418 24.269V25.2762C80.8776 24.9917 80.2125 24.7646 79.4227 24.5919C78.6329 24.4225 77.8431 24.3361 77.0566 24.3361C75.5665 24.3361 74.3898 24.6367 73.5201 25.2378C72.6504 25.839 72.2187 26.6767 72.2187 27.7479C72.2187 28.8191 72.6472 29.66 73.5105 30.2707C74.3739 30.8814 75.5186 31.1852 76.9542 31.1852C78.1661 31.1852 79.2277 31.0125 80.1358 30.664V28.5569H77.2772V27.7575H81.7345L81.7281 27.7607Z" fill="white"/>
<path d="M92.2709 31.9011H83.708V23.5684H92.2709V24.4605H85.294V27.1464H91.0111V28.0353H85.294V31.0122H92.2709V31.9011Z" fill="white"/>
<path d="M104.018 32.0552L95.0971 25.8457V31.9049H94.0547V23.4443L102.979 29.6539V23.569H104.018V32.0552Z" fill="white"/>
<path d="M111.356 31.905H106.461V23.5723H111.321C112.456 23.5723 113.476 23.7257 114.381 24.0295C115.286 24.3333 116.022 24.8097 116.587 25.4524C117.15 26.0983 117.432 26.8657 117.432 27.761C117.432 28.6563 117.15 29.4237 116.587 30.0568C116.025 30.6931 115.292 31.1599 114.394 31.4573C113.495 31.7547 112.482 31.9018 111.356 31.9018M107.999 31.0225H111.264C112.645 31.0225 113.745 30.7443 114.563 30.1879C115.382 29.6315 115.791 28.8194 115.791 27.745C115.791 26.6707 115.382 25.8553 114.563 25.2957C113.745 24.7361 112.645 24.458 111.264 24.458H107.999V31.0193V31.0225Z" fill="white"/>
<path d="M123.507 23.4668L129.215 31.9051H127.421L126.097 29.913H120.319L118.995 31.9051H117.803L123.507 23.4668ZM123.206 25.5708L120.917 29.0113H125.493L123.203 25.5708H123.206Z" fill="white"/>
<path d="M134.743 28.733H131.977V31.905H130.439V23.5723H135.3C136.109 23.5723 136.796 23.6362 137.359 23.7641C137.922 23.892 138.36 24.0743 138.673 24.3141C138.986 24.5539 139.207 24.8257 139.338 25.1295C139.469 25.4333 139.533 25.7881 139.533 26.1878C139.533 26.7889 139.338 27.3102 138.948 27.7514C138.558 28.1927 137.912 28.4869 137.01 28.6435C137.343 28.813 137.621 29.0496 137.848 29.3566C138.075 29.6603 138.241 29.9385 138.347 30.1847C138.449 30.4309 138.606 30.6483 138.811 30.837C139.015 31.0256 139.274 31.1216 139.591 31.1216C139.859 31.1216 140.115 31.0673 140.355 30.9585V31.7675C140 31.9466 139.552 32.0329 139.012 32.0329C138.625 32.0329 138.289 31.9721 137.998 31.8538C137.711 31.7355 137.48 31.5756 137.314 31.3806C137.148 31.1855 136.998 30.9681 136.863 30.7315C136.729 30.4948 136.604 30.2614 136.486 30.0312C136.371 29.801 136.243 29.5868 136.105 29.3885C135.968 29.1935 135.783 29.0336 135.549 28.9153C135.319 28.797 135.047 28.7362 134.74 28.7362M135.549 24.4772H131.971V27.8442H135.549C136.451 27.8442 137.068 27.6938 137.4 27.3933C137.733 27.0927 137.899 26.6835 137.899 26.1655C137.899 25.04 137.116 24.4772 135.549 24.4772Z" fill="white"/>
<path d="M147.21 31.9011H145.576V28.8346L140.729 23.5684H142.602L146.647 28.0289L150.705 23.5684H152L147.21 28.8346V31.9011Z" fill="white"/>
<path d="M21.4113 15.5184L15.5146 21.415L21.4113 27.3117L27.3079 21.4151L21.4113 15.5184Z" fill="white"/>
<path d="M42.8306 21.468V21.3658C42.8178 20.4992 42.4757 19.6902 41.8618 19.0763L40.0584 17.2729L41.5644 15.7669C42.1911 15.1402 42.5365 14.3088 42.5365 13.4263C42.5365 12.5438 42.1911 11.7093 41.5676 11.0857L31.7481 1.2662C31.1214 0.639489 30.29 0.297346 29.4075 0.297346C28.525 0.297346 27.6904 0.642687 27.0669 1.2662L25.5609 2.77221L23.7575 0.968854C23.1308 0.342143 22.2994 0 21.4169 0C20.5312 0 19.6999 0.34534 19.0763 0.968854L17.2729 2.77221L15.7669 1.2662C15.1402 0.639489 14.3088 0.297346 13.4263 0.297346C12.5438 0.297346 11.7093 0.642687 11.0858 1.2662L1.2662 11.0857C0.639489 11.7124 0.297346 12.5438 0.297346 13.4263C0.297346 14.3088 0.642687 15.1434 1.2662 15.7669L2.77225 17.2729L0.968854 19.0763C0.348538 19.6966 0.00319751 20.5216 0 21.4009V21.4361C0.00639502 22.3154 0.348538 23.1404 0.968854 23.7607L2.77225 25.5673L1.2694 27.0701C0.64269 27.6968 0.300547 28.5282 0.300547 29.4107C0.300547 30.2932 0.645887 31.1278 1.2694 31.7513L11.0889 41.5708C11.7156 42.1975 12.547 42.5397 13.4295 42.5397C14.3152 42.5397 15.1466 42.1943 15.7701 41.5676L17.2729 40.0648L19.0763 41.8682C19.7158 42.5077 20.5536 42.8306 21.3945 42.837H21.4425C22.2834 42.8306 23.1212 42.5077 23.7607 41.8682L25.5673 40.0648L27.0701 41.5708C27.716 42.2167 28.5633 42.5397 29.4107 42.5397C30.258 42.5397 31.1085 42.2167 31.7512 41.5708L41.5708 31.7513C42.1975 31.1246 42.5397 30.2932 42.5397 29.4107C42.5397 28.5282 42.1943 27.6936 41.5708 27.0701L40.068 25.5641L41.8714 23.7607C42.4853 23.1468 42.8274 22.3346 42.8402 21.4712M28.1093 2.29899C28.4578 1.95046 28.9215 1.75863 29.4139 1.75863C29.9063 1.75863 30.3731 1.95046 30.7216 2.29899L40.5412 12.1185C40.8898 12.4671 41.0816 12.9307 41.0816 13.4263C41.0816 13.9219 40.8898 14.3824 40.5412 14.7341L39.0352 16.2402L26.6033 3.8082L28.1093 2.30219V2.29899ZM37.996 17.2729L34.888 20.3809L22.4561 7.94896L25.5641 4.84099L37.996 17.2729ZM33.852 21.4169L21.4201 33.8488L8.98819 21.4169L21.4201 8.98503L33.852 21.4169ZM20.1123 2.00164C20.4609 1.65312 20.9245 1.46128 21.4169 1.46128C21.9093 1.46128 22.3729 1.65312 22.7215 2.00164L24.5249 3.805L21.4169 6.91297L18.3057 3.8018L20.1091 1.99844L20.1123 2.00164ZM17.2729 4.84099L20.3841 7.95216L7.9522 20.3841L4.84103 17.2729L17.2729 4.84099ZM2.29899 14.7309C1.95046 14.3824 1.75863 13.9187 1.75863 13.4231C1.75863 12.9275 1.95046 12.4671 2.29899 12.1153L12.1186 2.29579C12.4671 1.94726 12.9307 1.75543 13.4231 1.75543C13.9156 1.75543 14.3792 1.94726 14.7277 2.29579L16.2338 3.8018L3.80184 16.2338L2.29579 14.7277L2.29899 14.7309ZM1.99844 22.7247C1.64991 22.3762 1.45804 21.9125 1.45804 21.4201C1.45804 20.9277 1.64991 20.464 1.99844 20.1123L3.80184 18.3089L6.91301 21.4201L3.80184 24.5313L1.99844 22.7279V22.7247ZM14.7309 40.5348C14.3824 40.8834 13.9187 41.0752 13.4231 41.0752C12.9275 41.0752 12.4671 40.8834 12.1186 40.5348L2.29899 30.7153C1.95046 30.3668 1.75863 29.9031 1.75863 29.4075C1.75863 28.9119 1.95046 28.4514 2.29899 28.1029L3.80184 26.6001L16.2338 39.032L14.7309 40.5348ZM17.2697 37.996L4.83783 25.5641L7.949 22.4529L20.3809 34.8848L17.2697 37.996ZM22.7215 40.8354C22.002 41.5548 20.8286 41.5548 20.1091 40.8354L18.3057 39.032L21.4169 35.9208L24.5281 39.032L22.7215 40.8386V40.8354ZM22.4529 34.8848L34.8848 22.4529L37.996 25.5641L25.5641 37.996L22.4529 34.8848ZM40.5348 28.1029C40.8834 28.4514 41.0752 28.9151 41.0752 29.4107C41.0752 29.9063 40.8834 30.3668 40.5348 30.7153L30.7152 40.5348C29.9958 41.2543 28.8223 41.2543 28.1029 40.5348L26.5969 39.0288L39.0288 26.5969L40.5348 28.1029ZM40.8322 22.7247L39.0288 24.5281L35.9176 21.4169L39.0256 18.3089L40.829 20.1123C41.1775 20.4608 41.3694 20.9245 41.3694 21.4201C41.3694 21.9157 41.1775 22.3762 40.829 22.7247" fill="white"/>
</svg>
