<svg height="114" viewBox="0 0 200 114" width="200" xmlns="http://www.w3.org/2000/svg" xmlns:xlink="http://www.w3.org/1999/xlink"><linearGradient id="a"><stop offset="0" stop-color="#3023ae"/><stop offset=".475247532" stop-color="#53a0fd"/><stop offset="1" stop-color="#b4ec51"/></linearGradient><linearGradient id="b" x1="101.257813%" x2=".257813%" xlink:href="#a" y1="49.75%" y2="49.75%"/><linearGradient id="c" x1=".257813%" x2="101.257813%" xlink:href="#a" y1="49.75%" y2="49.75%"/><mask id="d" fill="#fff"><path d="m9.94858333 9.95138889h27.38679167c6.67425 0 12.6082917-3.77083333 15.5177917-9.72222222h-52.52958337c0 5.36944444 4.30925 9.72222222 9.625 9.72222222" fill="#fff" fill-rule="evenodd"/></mask><mask id="e" fill="#fff"><path d="m43.2222083.2337963h-27.3909166c-6.6737917 0-12.60783337 3.77083333-15.5177917 9.72222222h52.5337083c0-5.36944445-4.30925-9.72222222-9.625-9.72222222" fill="#fff" fill-rule="evenodd"/></mask><mask id="f" fill="#fff"><path d="m9.94858333 9.95138889h27.38679167c6.67425 0 12.6082917-3.77083333 15.5177917-9.72222222h-52.52958337c0 5.36944444 4.30925 9.72222222 9.625 9.72222222" fill="#fff" fill-rule="evenodd"/></mask><g fill="none" fill-rule="evenodd"><g transform="translate(37)"><path d="m9.94858333 55.3217593c-5.31575 0-9.625 4.3523148-9.625 9.7222222 0 5.3694444 4.30925 9.7222222 9.625 9.7222222h27.38679167c7.1875833 0 13.5222083-4.3689815 16.13975-11.1300926 1.051875-2.7185185 1.3915-5.562963 1.09175-8.3143518z" fill="#405bd2"/><path d="m9.94858333 9.95138889h27.38679167c6.67425 0 12.6082917-3.77083333 15.5177917-9.72222222h-52.52958337c0 5.36944444 4.30925 9.72222222 9.625 9.72222222" fill="url(#b)" mask="url(#d)" transform="translate(0 64.814815)"/><path d="m45.0555417.2337963h-27.3909167c-7.187125 0-13.52175 4.36898148-16.13929167 11.1300926-1.05233333 2.7185185-1.3915 5.5625-1.09175 8.3143518h44.62195837c5.31575 0 9.625-4.3523148 9.625-9.72222218 0-5.36944445-4.30925-9.72222222-9.625-9.72222222" fill="#405bd2"/><path d="m43.2222083.2337963h-27.3909166c-6.6737917 0-12.60783337 3.77083333-15.5177917 9.72222222h52.5337083c0-5.36944445-4.30925-9.72222222-9.625-9.72222222" fill="url(#c)" mask="url(#e)" transform="translate(1.833333)"/><path d="m34.2544583 74.7662037h3.0809167c7.1875833 0 13.5222083-4.3689815 16.13975-11.1300926 2.6170833-6.7611111.8955833-14.312037-4.3853333-19.2365741l-33.9849584-31.6884259c-3.499375-3.26296295-2.6954583-12.4773148 5.8868334-12.4773148h-3.3270417c-7.187125 0-13.52175 4.36898148-16.13929167 11.1300926-2.61708333 6.7611111-.89604166 14.312037 4.38533334 19.2365741l34.11833333 31.8129629c3.4989167 3.262963 2.80775 12.3527778-5.7745417 12.3527778" fill="url(#b)"/></g><g transform="translate(97)"><path d="m12.9485833 55.3217593c-5.31574997 0-9.62499997 4.3523148-9.62499997 9.7222222 0 5.3694444 4.30925 9.7222222 9.62499997 9.7222222h27.3867917c7.1875833 0 13.5222083-4.3689815 16.13975-11.1300926 1.051875-2.7185185 1.3915-5.562963 1.09175-8.3143518z" fill="#405bd2" transform="matrix(-1 0 0 1 60.994934 0)"/><path d="m7.94858333 9.95138889h27.38679167c6.67425 0 12.6082917-3.77083333 15.5177917-9.72222222h-52.52958337c0 5.36944444 4.30925 9.72222222 9.625 9.72222222" fill="url(#b)" mask="url(#f)" transform="matrix(-1 0 0 1 58 64.814815)"/><path d="m17.7116004 74.767638c-7.2378462 0-12.61676925-4.3421779-15.25261541-11.0618098-2.63538461-6.7196319-.90184615-14.2242331 4.416-19.1185583l25.91492311-31.9541411c3.5238461-3.24294475 2.7143077-12.40076684-5.928-12.40076684h3.3503077c7.2373846 0 14.8436175 4.2140284 16.2521538 11.06180984 1.4085363 6.8477814-1.1878355 11.6336116-4.8775385 16.3578221l-27.4338461 33.4582822c-4.65652193 6.0463799-1.9725586 13.6359066 6.6610769 13.6573619z" fill="url(#c)"/></g><g fill="#9b9b9b" font-size="30" transform="translate(-1 84)"><text font-family="BebasNeueRegular, Bebas Neue"><tspan x="97" y="29">legendary</tspan></text><text font-family="BebasNeueLight, Bebas Neue" font-weight="300"><tspan x="0" y="29">Something</tspan></text></g></g></svg>