<svg height="23" viewBox="0 0 201 23" width="201" xmlns="http://www.w3.org/2000/svg"><g fill="#fff" fill-rule="evenodd" transform="translate(-1 -7)"><path d="m99.2 29v-21h2.34v18.87h6v2.13zm17.58-11.7v2.1h-5.13v7.47h6.3v2.13h-8.64v-21h8.64v2.13h-6.3v7.17zm7.86-9.51c1.620008 0 2.814996.4799952 3.585 1.44s1.155 2.239992 1.155 3.84v1.8h-2.22v-1.92c0-.9600048-.194998-1.7049973-.585-2.235-.390002-.5300026-1.014996-.795-1.875-.795-.840004 0-1.459998.2649974-1.86.795-.400002.5300027-.6 1.2749952-.6 2.235v11.1c0 .9600048.199998 1.7049974.6 2.235.400002.5300027 1.019996.795 1.86.795.860004 0 1.484998-.2649973 1.875-.795.390002-.5300026.585-1.2749952.585-2.235v-4.2h-2.16v-2.1h4.38v6.18c0 1.600008-.384996 2.8799952-1.155 3.84s-1.964992 1.44-3.585 1.44c-1.600008 0-2.784996-.4799952-3.555-1.44s-1.155-2.239992-1.155-3.84v-10.86c0-.800004.094999-1.5249967.285-2.175s.479998-1.2049977.87-1.665.879997-.81499875 1.47-1.065 1.284996-.375 2.085-.375zm14.43 9.51v2.1h-5.13v7.47h6.3v2.13h-8.64v-21h8.64v2.13h-6.3v7.17zm5.4 11.7h-2.1v-21h2.97l4.86 15.18v-15.18h2.07v21h-2.43l-5.37-16.98zm15.12-21c1.640008 0 2.844996.46499535 3.615 1.395.770004.9300046 1.155 2.2049919 1.155 3.825v10.59c0 1.6200081-.384996 2.8899954-1.155 3.81s-1.974992 1.38-3.615 1.38h-4.92v-21zm-.03 18.87c.840004 0 1.464998-.2549975 1.875-.765.410002-.5100026.615-1.2449952.615-2.205v-10.8c0-.9600048-.204998-1.6949975-.615-2.205s-1.044996-.765-1.905-.765h-2.52v16.74zm9.33-2.1-.81 4.23h-2.16l4.02-21h3.39l4.02 21h-2.34l-.81-4.23zm.3-2.01h4.68l-2.37-12.12zm14.67-14.76c1.660008 0 2.854996.4099959 3.585 1.23s1.095 2.0099922 1.095 3.57v1.71c0 1.1600058-.209998 2.0999964-.63 2.82s-1.079996 1.2199986-1.98 1.5c.960005.2800014 1.639998.7949962 2.04 1.545s.6 1.6949943.6 2.835v3.27c0 .4600023.02.9049978.06 1.335s.159999.8249982.36 1.185h-2.37c-.140001-.3000015-.24-.6249982-.3-.975-.06-.3500017-.09-.8749965-.09-1.575v-3.3c0-1.1800059-.264997-1.9949978-.795-2.445s-1.284995-.675-2.265-.675h-1.65v8.97h-2.34v-21zm-.6 9.9c.940005 0 1.669997-.1949981 2.19-.585.520003-.390002.78-1.1549943.78-2.295v-2.01c0-.9600048-.184998-1.6799976-.555-2.16s-.994996-.72-1.875-.72h-2.28v7.77zm11.16 3.57-4.44-13.47h2.43l3.27 10.32 3.3-10.32h2.22l-4.47 13.47v7.53h-2.31z"/><path d="m5.58 7.82c.800004 0 1.4799972.1299987 2.04.39s1.0199982.62499765 1.38 1.095.62499915 1.0249968.795 1.665.255 1.3399962.255 2.1v.45h-1.32v-.54c0-.5600028-.05499945-1.0749976-.165-1.545-.11000055-.4700023-.28999875-.8799982-.54-1.23-.25000125-.35000175-.574998-.624999-.975-.825s-.8799972-.3-1.44-.3c-1.1400057 0-1.94499765.36499635-2.415 1.095-.47000235.7300036-.705 1.6549944-.705 2.775 0 .8600043.18499815 1.589997.555 2.19s.83999715 1.1449975 1.41 1.635c.57000285.4900024 1.17999675.9599977 1.83 1.41.65000325.4500022 1.25999715.9399974 1.83 1.47.57000285.5300027 1.03999815 1.1349966 1.41 1.815s.555 1.4999952.555 2.46c0 .7600038-.08499915 1.4599968-.255 2.1s-.43999815 1.1949976-.81 1.665-.83999715.8349987-1.41 1.095-1.254996.39-2.055.39-1.48499715-.1299987-2.055-.39-1.03999815-.6249976-1.41-1.095-.63999915-1.0249968-.81-1.665-.255-1.3399962-.255-2.1v-1.08h1.32v1.17c0 1.1200056.2399976 2.0449964.72 2.775.4800024.7300037 1.2999942 1.095 2.46 1.095s1.9799976-.3649963 2.46-1.095c.4800024-.7300036.72-1.6549944.72-2.775 0-.8400042-.18499815-1.559997-.555-2.16s-.83999715-1.1449975-1.41-1.635c-.57000285-.4900024-1.17999675-.9549978-1.83-1.395s-1.25999715-.9249973-1.83-1.455-1.03999815-1.1399965-1.41-1.83-.555-1.5249951-.555-2.505c0-1.5800079.35499645-2.8399953 1.065-3.78s1.8449922-1.4199999 3.405-1.44zm6.63 5.31c0-.7600038.0899991-1.4649967.27-2.115.1800009-.6500032.4549981-1.20999765.825-1.68.3700018-.47000235.8449971-.83999865 1.425-1.11s1.269996-.405 2.07-.405 1.494997.13499865 2.085.405c.5900029.27000135 1.0749981.63999765 1.455 1.11s.6599991 1.0299968.84 1.68c.1800009.6500033.27 1.3549962.27 2.115v10.74c0 .7600038-.0899991 1.4649968-.27 2.115-.1800009.6500033-.4599981 1.2099977-.84 1.68-.3800019.4700024-.8649971.8399986-1.455 1.11-.590003.2700013-1.284996.405-2.085.405s-1.4899971-.1349987-2.07-.405c-.5800029-.2700014-1.0549982-.6399976-1.425-1.11-.3700019-.4700023-.6449991-1.0299967-.825-1.68-.1800009-.6500032-.27-1.3549962-.27-2.115zm1.38 10.83c0 1.1400057.2449976 2.0849963.735 2.835s1.3149942 1.125 2.475 1.125 1.9949974-.3749963 2.505-1.125c.5100025-.7500037.765-1.6949943.765-2.835v-10.92c0-1.1400057-.2549975-2.0849962-.765-2.835-.5100026-.75000375-1.3449942-1.125-2.505-1.125s-1.9849976.37499625-2.475 1.125c-.4900024.7500038-.735 1.6949943-.735 2.835zm17.19 5.01h-1.38l-4.44-18.57v18.6h-1.23v-21h1.98l4.41 18.57 4.38-18.57h1.98v21h-1.32v-18.66zm15.21-11.25v1.26h-5.73v8.76h6.9v1.26h-8.28v-21h8.28v1.26h-6.9v8.46zm6.96 11.28v-19.74h-4.26v-1.26h9.93v1.26h-4.29v19.74zm8.76-9.87v9.87h-1.38v-21h1.38v9.87h6.54v-9.87h1.41v21h-1.41v-9.87zm11.73-11.13v21h-1.38v-21zm3.66 21h-1.26v-21h1.8l6.3 17.73v-17.73h1.26v21h-1.53l-6.57-18.72zm14.91-21.18c.800004 0 1.4849972.13499865 2.055.405s1.0399982.63999765 1.41 1.11c.3700019.47000235.6399992 1.0299968.81 1.68.1700009.6500033.255 1.3549962.255 2.115v1.56h-1.32v-1.65c0-.5600028-.0549994-1.0799976-.165-1.56-.1100005-.4800024-.2949987-.8999982-.555-1.26s-.589998-.639999-.99-.84-.8899971-.3-1.47-.3-1.069998.099999-1.47.3-.7299987.4799982-.99.84-.4449994.7799976-.555 1.26-.165.9999972-.165 1.56v10.92c0 .5600028.0549994 1.0799976.165 1.56s.2949987.8949983.555 1.245.589998.624999.99.825.8899971.3 1.47.3 1.069998-.099999 1.47-.3.7299987-.4749983.99-.825.4449995-.7649976.555-1.245c.1100006-.4800024.165-.9999972.165-1.56v-4.53h-2.79v-1.26h4.11v5.7c0 .7600038-.0849991 1.4649968-.255 2.115-.1700008.6500033-.4399981 1.2099977-.81 1.68-.3700018.4700024-.8399972.8399986-1.41 1.11-.5700028.2700013-1.254996.405-2.055.405s-1.4849972-.1349987-2.055-.405c-.5700028-.2700014-1.0399981-.6399976-1.41-1.11-.3700018-.4700023-.6399991-1.0299967-.81-1.68-.1700008-.6500032-.255-1.3549962-.255-2.115v-10.74c0-.7600038.0849992-1.4649967.255-2.115.1700009-.6500032.4399982-1.20999765.81-1.68.3700019-.47000235.8399972-.83999865 1.41-1.11s1.254996-.405 2.055-.405z"/></g></svg>