<svg width="1192" height="587" viewBox="0 0 1192 587" fill="none" xmlns="http://www.w3.org/2000/svg">
<g clip-path="url(#clip0_410_8121)">
<path d="M912.64 321.046C911.36 314.645 911.36 306.964 910.08 300.563C910.08 299.283 908.8 298.003 907.52 296.723C906.24 298.003 904.96 298.003 903.68 299.283C902.4 301.844 901.12 304.404 899.84 306.964H897.28V295.443C898.56 286.482 890.88 281.361 888.32 273.68H887.04C881.92 274.96 874.24 276.24 870.4 280.081C864 285.201 858.88 291.602 852.48 298.003C851.2 299.283 849.92 303.124 849.92 305.684C851.2 315.925 846.08 323.606 840.96 332.567C840.96 333.848 839.68 333.848 838.4 333.848C837.12 333.848 837.12 332.567 835.84 331.287C833.28 323.606 829.44 315.925 826.88 308.244C824.32 300.563 823.04 291.602 820.48 283.921C820.48 281.361 820.48 278.801 815.36 280.081C811.52 281.361 810.24 278.801 810.24 276.24C810.24 268.559 801.28 267.279 798.72 262.159C798.72 262.159 796.16 262.159 794.88 263.439C787.2 267.279 780.8 265.999 773.12 263.439C771.84 263.439 770.56 262.159 769.28 260.878C766.72 257.038 764.16 255.758 760.32 258.318C756.48 259.598 747.52 253.197 744.96 248.077C743.68 246.797 742.4 245.516 741.12 244.236C741.12 246.797 739.84 249.357 741.12 250.637C743.68 257.038 747.52 262.159 751.36 267.279C752.64 268.559 755.2 268.559 756.48 267.279C759.04 265.999 761.6 263.439 764.16 262.159C768 264.719 771.84 267.279 774.4 269.84C778.24 272.4 778.24 274.96 776.96 278.801C770.56 292.882 760.32 301.844 746.24 305.684C743.68 306.964 741.12 308.244 738.56 309.525C733.44 312.085 728.32 313.365 720.64 315.925C720.64 317.206 720.64 322.326 721.92 323.606C724.48 324.886 728.32 323.606 730.88 322.326C734.72 321.046 738.56 319.766 742.4 318.486C746.24 317.206 748.8 318.486 747.52 322.326C746.24 327.447 744.96 331.287 743.68 336.408C741.12 341.529 738.56 346.649 736 351.77C734.72 354.33 733.44 356.891 730.88 356.891C719.36 363.291 714.24 374.813 707.84 383.774C704 390.175 706.56 397.856 710.4 404.257C714.24 411.938 714.24 428.58 705.28 433.7L697.6 441.381C693.76 445.222 692.48 450.342 695.04 455.463C697.6 460.584 696.32 464.424 689.92 465.704C686.08 466.984 684.8 469.545 686.08 473.385C687.36 474.665 686.08 477.226 684.8 479.786C680.96 486.187 675.84 491.308 670.72 496.428C668.16 498.989 663.04 500.269 659.2 501.549C655.36 502.829 650.24 502.829 646.4 505.389C641.28 507.95 637.44 506.669 636.16 501.549C634.88 492.588 632.32 484.907 627.2 477.226C625.92 475.946 625.92 472.105 627.2 469.545C629.76 464.424 627.2 460.584 624.64 455.463C618.24 446.502 613.12 437.541 614.4 427.299C614.4 423.459 616.96 419.618 618.24 415.778C619.52 413.218 619.52 409.377 619.52 406.817C618.24 400.416 616.96 394.015 615.68 387.614C614.4 381.214 613.12 376.093 606.72 372.252C605.44 372.252 605.44 368.412 605.44 367.132C605.44 363.291 608 358.171 608 354.33C608 351.77 608 349.21 606.72 347.929C605.44 346.649 602.88 346.649 600.32 347.929C596.48 350.49 592.64 349.21 591.36 344.089C587.52 335.128 581.12 335.128 573.44 341.529C570.88 344.089 565.76 345.369 561.92 345.369C556.8 346.649 551.68 342.809 547.84 349.21C547.84 349.21 542.72 349.21 542.72 347.929C538.88 344.089 536.32 338.968 533.76 333.848C531.2 328.727 528.64 324.886 523.52 322.326C517.12 319.766 513.28 309.525 517.12 303.124C520.96 295.443 522.24 289.042 519.68 281.361C518.4 278.801 519.68 276.24 520.96 273.68C522.24 269.84 523.52 267.279 524.8 264.719C526.08 258.318 529.92 253.197 536.32 250.637C540.16 249.357 541.44 246.797 542.72 242.956C542.72 232.715 550.4 228.874 556.8 223.754H558.08C565.76 226.314 570.88 221.193 577.28 218.633C582.4 216.073 588.8 216.073 593.92 214.793C597.76 213.512 601.6 213.512 606.72 213.512C611.84 212.232 614.4 214.793 616.96 218.633C619.52 222.474 616.96 225.034 611.84 227.594C616.96 230.154 619.52 232.715 623.36 235.275C628.48 237.835 633.6 240.396 640 242.956C643.84 245.516 647.68 244.236 648.96 240.396C651.52 235.275 654.08 235.275 659.2 236.555C661.76 237.835 665.6 237.835 668.16 237.835C674.56 239.116 680.96 239.116 687.36 240.396C691.2 241.676 693.76 240.396 696.32 237.835C697.6 235.275 698.88 233.995 698.88 231.435C701.44 222.474 700.16 221.193 691.2 222.474C686.08 222.474 680.96 222.474 677.12 221.193C672 219.913 666.88 216.073 668.16 209.672C668.16 208.392 666.88 205.831 665.6 204.551C661.76 207.112 657.92 208.392 660.48 212.232C663.04 216.073 659.2 218.633 656.64 219.913C655.36 221.193 652.8 222.474 651.52 223.754C647.68 216.073 646.4 207.112 641.28 200.711C636.16 194.31 629.76 189.189 623.36 185.349C625.92 194.31 634.88 198.15 640 203.271C638.72 207.112 637.44 210.952 636.16 214.793C634.88 213.512 633.6 210.952 632.32 210.952C629.76 208.392 627.2 205.831 623.36 203.271C619.52 200.711 615.68 196.87 611.84 194.31C609.28 191.75 608 190.469 604.16 193.03C601.6 194.31 597.76 194.31 593.92 195.59C592.64 195.59 590.08 196.87 588.8 198.15C586.24 199.431 584.96 201.991 582.4 204.551C579.84 207.112 577.28 208.392 577.28 210.952C576 217.353 572.16 219.913 565.76 221.193C563.2 222.474 559.36 222.474 558.08 223.754C555.52 222.474 551.68 221.193 549.12 219.913C545.28 218.633 542.72 213.512 544 209.672C545.28 205.831 545.28 203.271 545.28 199.431C545.28 193.03 547.84 191.75 554.24 191.75C558.08 191.75 561.92 193.03 564.48 193.03C568.32 193.03 572.16 193.03 572.16 187.909C573.44 182.788 572.16 178.948 567.04 177.668C565.76 176.388 563.2 176.388 561.92 175.108V173.827C567.04 172.547 573.44 169.987 578.56 168.707V167.427C572.16 166.146 564.48 164.866 555.52 163.586C559.36 159.746 561.92 155.905 564.48 152.065C561.92 150.784 560.64 149.504 558.08 148.224C558.08 155.905 554.24 159.746 547.84 162.306C544 163.586 542.72 162.306 541.44 158.465C540.16 149.504 546.56 146.944 551.68 145.664C552.96 141.823 552.96 137.983 554.24 136.703C559.36 132.862 567.04 131.582 573.44 135.423C574.72 135.423 574.72 137.983 573.44 139.263C569.6 144.384 572.16 146.944 576 150.784C578.56 153.345 579.84 157.185 583.68 158.465C584.96 159.746 588.8 161.026 590.08 159.746C595.2 157.185 599.04 154.625 604.16 152.065C605.44 150.784 605.44 148.224 605.44 146.944C606.72 144.384 608 141.823 609.28 140.543C611.84 139.263 614.4 140.543 614.4 144.384C614.4 149.504 616.96 150.784 620.8 150.784C628.48 150.784 636.16 150.784 643.84 149.504C645.12 149.504 646.4 148.224 647.68 146.944C648.96 140.543 651.52 136.703 660.48 137.983C659.2 135.423 659.2 134.142 657.92 132.862C663.04 132.862 666.88 132.862 672 131.582C673.28 131.582 674.56 130.302 677.12 129.022C675.84 127.742 674.56 126.461 672 126.461C668.16 126.461 664.32 126.461 660.48 127.742C656.64 129.022 654.08 127.742 652.8 123.901C651.52 120.061 648.96 116.22 654.08 113.66C657.92 111.099 660.48 108.539 664.32 105.979C657.92 102.138 655.36 103.418 652.8 108.539C651.52 113.66 647.68 114.94 643.84 116.22C639.573 117.927 638.72 120.487 641.28 123.901C641.28 125.181 642.56 125.181 642.56 126.461C642.56 134.142 628.48 146.944 620.8 144.384C619.52 144.384 618.24 143.103 618.24 141.823C616.96 139.263 616.96 136.703 615.68 132.862C614.4 134.142 611.84 134.142 611.84 135.423C606.72 139.263 600.32 136.703 599.04 131.582C595.2 121.341 597.76 114.94 606.72 108.539C608 107.259 610.56 107.259 613.12 105.979C618.24 103.418 623.36 99.578 627.2 97.0176C632.32 93.1772 637.44 89.3367 642.56 85.4962C656.64 76.5351 669.44 77.8152 683.52 84.216C692.48 88.0565 701.44 91.897 711.68 90.6168C718.08 89.3367 721.92 94.4573 721.92 100.858H728.32C730.88 98.2978 727.04 90.6168 733.44 90.6168C736 90.6168 737.28 93.1772 738.56 94.4573C751.36 93.1772 765.44 93.1772 779.52 91.897C780.8 91.897 783.36 90.6168 784.64 90.6168C788.48 86.7764 793.6 86.7764 797.44 88.0565C802.56 89.3367 806.4 90.6168 812.8 91.897C811.52 89.3367 811.52 88.0565 811.52 88.0565C806.4 84.216 806.4 81.6557 811.52 77.8152L815.36 73.9747C817.92 72.6946 820.48 71.4144 823.04 71.4144C825.6 72.6946 829.44 75.2549 828.16 79.0954C828.16 82.9359 829.44 85.4962 828.16 89.3367C826.88 93.1772 825.6 97.0176 824.32 100.858C832 99.578 834.56 93.1772 833.28 82.9359C833.28 80.3755 833.28 77.8152 834.56 73.9747H837.12C838.4 76.5351 839.68 77.8152 842.24 81.6557C843.52 79.0954 843.52 77.8152 844.8 76.5351C847.36 72.6946 849.92 71.4144 853.76 75.2549C857.6 79.0954 862.72 81.6557 867.84 84.216C866.56 82.9359 865.28 80.3755 864 79.0954C862.72 77.8152 860.16 76.5351 858.88 75.2549C852.434 68.8312 852.434 67.5511 852.434 66.2709C852.434 66.2709 853.714 64.9907 854.994 64.9907C865.234 66.2709 871.634 61.1503 880.594 57.3098C883.154 56.0296 885.714 56.0296 888.274 56.0296C894.674 57.3098 897.234 52.1891 902.354 50.909C906.194 49.6288 911.314 53.4693 916.434 53.4693C918.994 53.4693 920.274 52.1891 922.834 50.909C926.674 49.6288 930.514 48.3486 933.074 48.3486C942.034 52.1891 949.714 49.6288 958.674 50.909H959.954C965.928 51.7624 967.634 54.7494 965.074 59.8701V62.4304C968.914 62.4304 974.034 62.4304 977.874 63.7106C980.434 63.7106 982.994 64.9907 985.554 64.9907H997.074C1002.19 64.9907 1008.59 63.7106 1013.71 63.7106C1017.55 63.7106 1018.83 66.2709 1018.83 70.1114C1018.83 76.5122 1021.39 77.7924 1026.51 75.232C1027.79 73.9519 1030.35 73.9519 1032.91 73.9519C1038.03 73.9519 1043.15 73.9519 1048.27 72.6717C1050.83 71.3916 1053.39 68.8312 1054.67 66.2709C1055.95 62.4304 1052.11 62.4304 1049.55 62.4304C1048.27 62.4304 1046.99 61.1503 1044.43 59.8701C1045.71 58.5899 1045.71 56.0296 1046.99 56.0296C1053.39 56.0296 1059.79 57.3098 1067.47 57.3098C1068.75 57.3098 1070.03 58.5899 1072.59 59.8701C1071.31 61.1503 1070.03 62.4304 1068.75 62.4304C1068.75 62.4304 1067.47 62.4304 1066.19 63.7106C1068.75 68.8312 1072.59 68.8312 1077.71 68.8312C1081.55 68.8312 1086.67 70.1114 1089.23 71.3915C1095.63 75.232 1102.03 75.232 1108.43 75.232C1114.83 75.232 1119.95 75.232 1126.35 79.0725C1127.63 80.3527 1130.19 80.3527 1132.75 80.3527C1141.71 80.3527 1149.39 76.5122 1157.07 82.913C1157.07 82.913 1159.63 81.6329 1160.91 80.3527C1162.19 76.5122 1164.75 76.5122 1168.59 77.7924C1173.71 79.0725 1177.55 79.0725 1182.67 80.3527C1190.35 80.3527 1192.91 82.913 1191.63 89.3138C1191.63 93.1543 1192.91 98.2749 1189.07 102.115C1187.79 103.396 1190.35 105.956 1190.35 109.796C1186.51 111.077 1181.39 109.796 1176.27 112.357C1166.03 117.477 1154.51 120.038 1142.99 118.758C1137.87 118.758 1134.03 122.598 1134.03 126.439C1134.03 134.119 1131.47 139.24 1125.07 144.361C1119.95 148.201 1116.11 153.322 1110.99 158.443C1109.71 159.723 1108.43 159.723 1109.71 159.723C1108.43 153.322 1108.43 148.201 1107.15 141.8C1105.87 136.68 1109.71 130.279 1114.83 126.439C1118.67 123.878 1122.51 122.598 1125.07 120.038V118.758C1121.66 113.637 1117.39 112.783 1112.27 116.197C1109.71 117.477 1107.15 120.038 1104.59 121.318C1100.75 125.158 1096.91 125.158 1093.07 122.598C1090.51 121.318 1086.67 121.318 1084.11 121.318H1068.75C1064.91 121.318 1062.35 122.598 1059.79 125.158C1054.67 128.999 1049.55 132.839 1044.43 136.68C1045.71 140.52 1048.27 141.8 1053.39 140.52C1057.23 140.52 1062.35 141.8 1066.19 143.081C1066.19 143.081 1067.47 143.081 1067.47 144.361C1068.75 149.481 1070.03 155.882 1070.03 161.003C1070.03 163.563 1068.75 167.404 1067.47 169.964C1067.47 171.244 1066.19 172.524 1066.19 173.805C1064.91 172.524 1063.63 172.524 1063.63 171.244C1062.35 167.404 1062.35 162.283 1062.35 157.162L1059.79 159.723C1058.51 168.684 1052.11 172.524 1046.99 177.645C1044.43 180.205 1043.15 182.766 1040.59 184.046C1039.31 185.326 1036.75 186.606 1034.19 186.606C1029.07 185.326 1025.23 187.886 1022.67 191.727C1018.83 196.847 1013.71 200.688 1020.11 208.369C1021.39 210.929 1018.83 216.05 1017.55 219.89C1017.55 221.171 1013.71 221.171 1011.15 221.171C1011.15 218.61 1009.87 217.33 1009.87 214.77C1011.15 209.649 1011.15 207.089 1004.75 207.089C1004.75 203.248 1004.75 200.688 1003.47 196.847C999.634 198.128 997.074 199.408 994.514 200.688C993.257 198.128 993.257 196.847 991.977 195.567H990.697L986.857 199.408C985.577 200.688 984.297 201.968 983.017 203.248C985.577 204.528 986.857 207.089 989.417 208.369C991.977 209.649 994.537 209.649 997.097 210.929C995.817 213.49 993.257 214.77 991.977 217.33L990.697 218.61C991.977 221.171 993.257 225.011 994.537 227.571C999.657 239.093 998.377 245.494 989.417 254.455C986.857 257.015 984.297 259.575 983.017 262.136C979.177 268.536 972.777 271.097 965.097 272.377C957.417 273.657 957.417 273.657 958.697 281.338C958.697 283.898 957.417 286.459 956.137 289.019H953.577C952.297 286.459 952.297 285.179 952.297 282.618V273.657C949.737 274.937 947.177 276.217 945.897 278.778C944.617 281.338 944.617 285.179 945.897 287.739C948.457 291.579 951.017 295.42 953.577 299.26C958.697 306.941 957.417 314.622 949.737 319.743C947.177 321.023 945.897 323.583 944.617 326.144C943.337 328.704 942.057 331.264 940.777 333.825C935.657 324.864 935.657 314.622 926.697 309.502C925.417 312.062 925.417 314.622 924.137 315.902C916.457 318.463 915.177 319.743 912.617 321.023L912.64 321.046ZM761.6 180.228C756.48 169.987 755.2 169.987 747.52 173.827C746.24 175.108 743.68 175.108 741.12 175.108C736 175.108 732.16 180.228 734.72 184.069C737.28 187.909 739.84 190.469 742.4 193.03C748.8 198.15 750.08 198.15 742.4 203.271C739.84 205.831 738.56 208.392 741.12 209.672C746.24 212.232 751.36 213.512 756.48 214.793C756.48 214.793 759.04 213.512 759.04 212.232C757.76 205.831 757.76 199.431 755.2 193.03C753.92 190.469 751.36 187.909 748.8 185.349C747.52 184.069 746.24 181.508 747.52 180.228C748.8 178.948 750.08 177.668 752.64 177.668C755.2 178.948 757.76 178.948 761.6 180.228ZM700.16 175.108C698.88 176.388 697.6 178.948 695.04 180.228C692.48 182.788 689.92 182.788 687.36 180.228C683.093 175.108 679.253 175.534 675.84 181.508C675.84 182.788 674.56 182.788 674.56 184.069C669.44 187.909 670.72 193.03 672 198.15C677.12 196.87 680.96 196.87 684.8 195.59C689.92 193.03 695.04 193.03 700.16 195.59C704 196.87 709.12 198.15 712.96 196.87C718.08 196.87 718.08 193.03 714.24 190.469C710.4 187.909 706.56 185.349 704 182.788C702.72 180.228 701.44 177.691 700.16 175.108ZM719.36 305.684C721.92 296.723 719.36 289.042 712.96 282.641C710.4 280.081 709.12 277.52 706.56 273.68C702.72 267.279 700.16 259.598 697.6 253.197C696.32 251.917 695.04 251.917 692.48 250.637V255.758C695.04 263.439 696.32 269.84 698.88 277.52C700.16 281.361 700.16 285.201 701.44 287.762C705.28 292.882 709.12 296.723 712.96 301.844C715.52 303.124 718.08 304.404 719.36 305.684ZM712.96 95.7375C707.84 95.7375 702.72 97.0176 696.32 97.0176C696.32 100.858 696.32 103.418 701.44 100.858C702.72 100.858 704 99.578 705.28 100.858C711.68 104.699 711.68 100.858 712.96 95.7375ZM692.48 364.572C691.2 363.291 688.64 362.011 688.64 362.011C687.36 363.291 686.08 365.852 684.8 367.132C684.8 368.412 686.08 369.692 687.36 370.972C688.64 368.412 689.92 367.132 692.48 364.572ZM834.56 85.4962C837.12 85.4962 839.68 86.7764 843.52 86.7764C843.52 85.4962 843.52 82.9359 842.24 81.6557C838.4 80.3755 835.84 81.6557 834.56 85.4962Z" fill="#F7F7F7"/>
<path d="M449.28 381.214C446.72 379.934 444.16 378.654 442.88 377.374C440.32 373.533 436.48 373.533 432.64 373.533C431.36 373.533 430.08 373.533 428.8 372.253C421.12 368.412 412.16 364.572 404.48 360.731V354.331C400.64 349.21 396.8 344.089 392.96 338.969C390.4 336.408 387.84 333.848 382.72 336.408C381.44 336.408 378.88 336.408 377.6 335.128C376.32 333.848 375.04 331.288 372.48 330.008C367.36 328.727 364.8 324.887 366.08 321.046C363.52 321.046 362.24 319.766 359.68 319.766H354.56C349.44 319.766 344.32 321.046 341.76 319.766C335.36 314.646 334.08 318.486 330.24 323.607C330.24 319.766 331.52 317.206 331.52 314.646C325.12 315.926 320 318.486 316.16 323.607C313.6 327.447 312.32 330.008 307.2 326.167C305.92 324.887 302.08 324.887 300.8 326.167C294.4 328.727 290.56 327.447 289.28 319.766C289.28 315.926 289.28 313.365 290.56 309.525C291.84 303.124 288 299.284 280.32 300.564H272.64C273.92 295.443 275.2 290.323 275.2 286.482C275.2 283.922 276.48 280.081 275.2 278.801C273.92 277.521 270.08 277.521 267.52 277.521C264.96 277.521 262.4 280.081 262.4 282.642C262.4 289.042 256 286.482 253.44 289.042C252.16 289.042 249.6 287.762 248.32 286.482C241.92 281.361 240.64 273.68 240.64 264.719C240.64 260.879 240.64 255.758 241.92 253.198C244.48 248.077 254.72 244.237 261.12 245.517C263.68 245.517 266.24 245.517 268.8 244.237C275.2 240.396 289.28 242.957 290.56 251.918C290.56 254.478 293.12 257.038 294.4 259.599C295.68 260.879 296.96 260.879 298.24 262.159C299.52 260.879 300.8 259.599 300.8 258.318C300.8 254.478 299.52 249.357 298.24 246.797C295.68 242.957 296.96 240.396 299.52 237.836C304.64 232.715 309.76 228.875 313.6 223.754C314.88 222.474 316.16 221.194 314.88 219.914C312.32 213.513 317.44 210.952 320 207.112C321.28 203.272 325.12 199.431 331.52 200.711C334.08 200.711 336.64 200.711 335.36 196.871C334.08 193.03 332.8 190.47 336.64 189.19C340.48 187.91 344.32 184.069 348.16 190.47C348.16 191.75 350.72 191.75 352 191.75C357.12 190.47 363.52 187.91 368.64 186.629C369.92 186.629 371.2 184.069 369.92 182.789C369.92 181.509 367.36 180.229 367.36 180.229C362.24 184.069 359.68 177.668 355.84 177.668C354.56 169.987 352 168.707 345.6 171.267C343.04 172.548 340.48 172.548 337.92 173.828C338.773 169.561 342.186 167 348.16 166.147C352 164.867 354.56 164.867 357.12 168.707C357.12 169.987 362.24 169.987 362.24 169.987C366.08 162.306 372.48 163.587 378.88 161.026C376.32 166.147 375.04 169.987 372.48 176.388H394.24L395.52 175.108C392.96 172.548 391.68 168.707 389.12 168.707C381.44 167.427 382.72 163.587 385.28 158.466C386.56 157.186 386.56 155.906 386.56 153.345C380.16 149.505 373.76 146.944 367.36 143.104C366.08 143.104 366.08 140.544 364.8 139.263C362.24 135.423 359.68 131.582 357.12 127.742C354.56 123.901 352 123.901 349.44 127.742C346.88 131.582 343.04 132.863 339.2 130.302C337.92 129.022 336.64 125.182 336.64 123.901L337.92 122.621C330.24 121.341 322.56 118.781 314.88 117.501C313.6 117.501 309.76 118.781 309.76 120.061C308.48 125.182 304.64 130.302 311.04 135.423C312.32 136.703 312.32 139.263 312.32 140.544C311.04 141.824 308.48 141.824 307.2 143.104H303.36C304.64 146.944 305.92 150.785 305.92 154.625C305.92 155.906 304.64 157.186 303.36 158.466C302.08 157.186 300.8 155.906 300.8 154.625C299.52 153.345 300.8 150.785 299.52 150.785C294.4 145.664 290.56 139.263 281.6 141.824C279.04 143.104 275.2 140.544 271.36 139.263C268.822 132.863 266.262 131.582 263.702 131.582C258.582 131.582 257.302 129.022 256.022 125.182C253.462 118.781 262.422 107.259 270.102 105.979C272.662 105.979 276.502 104.699 280.342 104.699C280.342 105.979 281.622 107.259 281.622 107.259C286.742 107.259 290.582 107.259 294.422 108.54H299.542C298.262 107.259 298.262 104.699 296.982 103.419C294.422 100.859 291.862 99.5784 289.302 98.2982C296.129 94.8845 298.262 90.6173 295.702 85.4966C299.542 85.4966 303.382 84.2165 307.222 84.2165C314.902 84.2165 314.902 86.7768 312.342 94.4578C316.182 93.1776 320.022 91.8974 323.862 90.6173C320.022 94.4578 317.462 100.859 311.062 99.5784C309.782 99.5784 308.502 102.139 307.222 104.699C308.502 105.979 311.062 107.259 312.342 107.259C317.462 108.54 322.582 107.259 327.702 109.82C336.662 113.66 345.622 117.501 357.142 112.38C354.582 108.54 350.742 104.699 348.182 100.859C350.742 100.859 353.302 103.419 355.862 103.419C358.422 103.419 363.542 102.139 364.822 99.5784C367.382 95.7379 363.542 95.7379 360.982 94.4578C357.142 93.1776 352.022 90.6173 348.182 89.3371C346.902 89.3371 345.622 86.7768 345.622 86.7768C344.342 81.6561 340.502 80.376 336.662 79.0958C330.262 77.8156 325.142 76.5355 320.022 72.695C313.622 68.8545 307.222 66.2942 300.822 67.5744C294.422 68.8545 286.742 66.2942 282.902 75.2553C281.622 72.695 282.902 71.4148 281.622 70.1347C281.622 68.8545 280.342 67.5744 279.062 66.2942C275.222 65.014 267.542 70.1347 267.542 73.9752C267.542 79.0958 271.382 82.9363 276.502 82.9363C279.062 82.9363 281.622 82.9363 284.182 84.2165V86.7768C281.622 88.0569 279.062 90.6173 277.782 91.8974V90.6173C275.222 89.3371 272.662 89.3371 270.102 88.0569C268.822 88.0569 267.542 86.7768 266.262 85.4966C263.702 84.2165 262.422 81.6561 259.862 79.0958C258.582 77.8156 256.022 77.8157 253.462 76.5355V82.9363C254.742 88.0569 254.742 90.6173 249.622 93.1776C244.502 87.2035 241.089 84.6432 239.382 85.4966C239.382 88.057 238.102 93.1776 238.102 93.1776H216.342V90.6173C218.902 89.3371 221.462 89.3371 224.022 88.0569C226.582 86.7768 227.862 85.4966 230.422 84.2165C229.142 82.9363 226.582 81.6561 225.302 80.376C217.622 77.8157 217.622 76.5355 220.182 68.8545C217.622 68.8545 216.342 68.8545 213.782 67.5744C215.062 63.7339 215.062 61.1735 216.342 57.3331C209.942 58.6132 203.542 53.4926 198.422 58.6132H197.142C192.022 56.0529 185.622 54.7727 180.502 52.2124C174.102 48.3719 162.582 52.2124 160.022 61.1735C165.142 59.8934 168.982 59.8934 172.822 59.8934C174.102 59.8934 175.382 61.1735 176.662 61.1735C175.382 62.4537 175.382 63.7339 174.102 65.014C171.542 66.2942 167.702 66.2942 165.142 66.2942C157.462 65.014 152.342 67.5744 149.782 76.5355C152.342 77.8157 153.622 79.0958 157.462 81.6561C148.502 79.0958 144.662 80.376 142.102 80.376C135.702 79.0958 130.582 79.0958 124.182 80.376C119.062 81.6561 111.382 79.0958 106.262 84.2165H104.982C99.8625 82.9363 94.7425 80.376 89.6225 79.0958C85.7825 77.8156 83.2225 77.8157 79.3825 77.8157C75.5425 77.8157 72.9825 79.0958 69.1425 77.8157C65.3025 77.8157 60.1825 76.5355 56.3425 75.2553C49.9425 73.9752 44.8225 73.9752 38.4225 73.9752H34.5825C26.9025 76.5355 19.2225 79.0958 11.5425 81.6561C8.98246 82.9363 7.70246 84.2165 6.42246 85.4966C7.70246 86.7768 8.98246 88.0569 11.5425 89.3371C15.3825 91.8974 19.2225 93.1776 21.7825 94.4578C21.7825 95.3112 21.3558 96.1646 20.5025 97.0181C19.2225 97.0181 16.6625 95.7379 15.3825 95.7379C11.5425 95.7379 7.70246 94.4578 5.14246 94.4578C3.86246 94.4578 1.30246 97.0181 0.0224609 98.2982C1.30246 99.5784 2.58246 102.139 3.86246 102.139C7.70246 104.653 10.2625 105.933 14.1025 107.214C10.2625 109.774 3.86246 112.334 7.70246 118.735C10.2625 123.856 14.1025 125.136 19.2225 121.295C20.5025 123.856 20.5025 125.136 20.5025 125.136C25.6225 126.416 29.4625 127.696 34.5825 127.696C26.9025 134.097 17.9425 135.377 12.8225 143.058H19.2225C21.7825 143.058 25.6225 141.778 28.1825 140.498C32.0225 139.218 34.5825 139.218 37.1425 136.657C39.7025 135.377 40.9825 132.817 44.8225 135.377C48.6625 136.657 53.7825 132.817 52.5025 128.976V120.015C58.9025 126.416 66.5825 125.136 71.6796 117.455C79.3596 118.735 87.0396 121.295 94.7196 123.856C101.12 125.136 107.52 126.416 108.8 134.097L110.08 135.377C116.48 136.657 117.76 140.498 117.76 145.619C117.76 148.179 121.6 150.739 122.88 152.019C124.16 152.019 126.72 150.739 129.28 149.459C130.56 152.019 131.84 155.86 133.12 158.42C134.4 160.98 135.68 163.541 136.96 164.821C144.64 167.381 145.92 173.782 147.2 180.183V189.144C144.64 201.946 153.6 210.907 156.16 222.428C156.16 223.708 158.72 224.989 160 224.989C168.96 226.269 172.8 233.95 174.08 241.631C175.36 246.751 181.76 249.312 179.2 255.712L180.48 256.993C183.04 259.553 185.6 262.113 188.16 263.393C190.72 265.954 192 268.514 194.56 269.794C195.84 271.074 197.12 271.074 198.4 271.074C198.4 269.794 198.4 268.514 197.12 265.954C194.56 260.833 190.72 255.712 188.16 250.592L189.44 249.312C197.12 256.993 204.8 265.954 209.92 276.195C212.48 281.316 212.48 287.716 220.16 287.716C221.44 287.716 222.72 288.997 222.72 288.997C225.28 297.958 231.68 300.518 239.36 300.518H244.48C248.32 297.958 250.88 299.238 252.16 301.798C256 306.919 261.12 309.479 267.52 310.759C270.08 310.759 272.64 313.32 272.64 314.6C272.64 322.281 279.04 323.561 282.88 327.402C288 331.669 293.546 332.522 299.52 329.962C307.2 338.923 308.48 349.164 300.8 355.565C289.28 363.246 295.68 376.048 293.12 385.009C293.12 385.009 293.12 386.289 294.4 387.569C300.8 392.69 302.08 400.371 304.64 406.772C308.48 415.733 309.76 425.974 321.28 429.815C330.24 432.375 332.8 440.056 331.52 450.297C330.24 457.978 330.24 466.939 330.24 474.62C330.24 475.9 328.96 477.181 328.96 478.461C327.68 482.301 326.4 484.861 325.12 488.702C327.68 492.542 327.68 497.663 326.4 502.784C326.4 505.344 323.84 507.904 323.84 510.465C323.84 514.305 323.84 519.426 322.56 523.266C321.28 530.947 323.84 541.189 316.16 547.589V548.87C316.16 553.99 316.16 560.391 317.44 565.512C317.44 568.072 320 570.632 320 573.193C322.56 584.714 340.48 592.395 350.72 582.154C349.866 582.154 349.013 581.727 348.16 580.874C341.76 579.594 339.2 575.753 337.92 570.632C337.92 568.072 340.48 564.232 343.04 561.671C345.6 557.831 348.16 555.27 350.72 552.71C348.16 551.43 345.6 550.15 344.32 548.87C345.6 546.309 346.88 545.029 348.16 543.749C350.72 538.628 359.68 536.068 352 528.387H359.68C358.4 521.986 360.96 520.706 366.08 520.706C371.2 520.706 375.04 519.426 377.6 514.305C378.88 511.745 380.16 509.185 380.16 505.344C387.84 505.344 392.96 500.223 394.24 495.103C396.8 487.422 401.92 483.581 405.76 477.181C407.04 475.9 408.32 473.34 407.04 472.06C404.48 466.939 407.04 464.379 410.88 461.819C416 459.258 421.12 457.978 426.24 455.418C427.52 454.138 430.08 454.138 431.36 452.857C436.48 443.896 440.32 434.935 440.32 424.694C440.32 420.853 441.6 417.013 444.16 414.453C446.72 408.052 451.84 402.931 454.4 397.81C459.542 390.107 455.702 383.729 449.325 381.145L449.28 381.214ZM316.16 182.789C311.04 185.349 307.2 187.91 302.08 190.47C304.64 184.069 307.2 181.509 316.16 182.789ZM300.8 175.108L299.52 176.388C298.24 180.229 296.96 182.789 295.68 187.91C294.4 185.349 293.12 184.069 293.12 182.789C293.12 178.948 293.12 175.108 288 176.388C282.88 176.388 281.6 180.229 280.32 184.069C280.32 186.629 280.32 189.19 279.04 193.03C276.48 189.19 275.2 178.948 277.76 175.108C280.32 171.267 284.16 172.548 288 172.548C293.097 175.108 296.937 175.108 300.777 175.108H300.8ZM286.72 168.707H266.24C276.48 158.466 279.04 158.466 286.72 168.707ZM174.08 84.2165C168.96 81.6561 165.12 80.376 158.72 77.8157C162.56 75.2553 165.12 73.9752 167.68 72.695C170.24 75.2553 172.8 79.0958 175.36 81.6561C174.08 82.9363 174.08 84.2165 174.08 84.2165ZM179.2 63.7339V62.4537C180.48 62.4537 184.32 61.1735 184.32 62.4537C186.88 66.2942 190.72 65.014 194.56 65.014H204.8C198.4 68.8545 188.16 68.8545 179.2 63.7339Z" fill="#F7F7F7"/>
<path d="M326.4 48.3722C328.96 48.3722 330.24 47.0921 332.8 47.0921C335.36 45.8119 337.92 43.2516 340.48 41.9714C341.76 40.6913 343.04 40.6912 344.32 39.4111L348.16 35.5706C349.44 34.2904 349.44 31.7301 350.72 31.7301C362.24 26.6095 371.2 15.088 386.56 22.769C390.4 25.3293 394.24 22.769 395.52 17.6483C396.374 13.3811 398.507 12.101 401.92 13.8079C407.04 11.2475 410.88 6.12688 416 4.84672C431.36 -0.27393 446.72 -2.83425 462.08 4.84672C465.92 6.12688 471.04 6.12688 474.88 4.84672C480 4.84672 481.28 6.12688 482.56 9.96737C483.84 15.088 486.4 20.2087 488.96 24.0491C492.8 29.1698 496.64 25.3293 499.2 22.769C501.76 20.2087 505.6 17.6483 509.44 18.9285C510.72 18.9285 513.28 20.2087 514.56 21.4888C513.28 22.769 513.28 25.3293 512 26.6095C506.88 30.45 501.76 35.5706 497.92 39.4111C495.36 41.9714 494.08 45.8119 497.92 48.3722C497.92 48.3722 499.2 50.9325 497.92 50.9325C496.64 54.773 495.36 58.6135 494.08 62.454H490.24C483.84 61.1738 482.56 62.454 483.84 67.5747C486.4 76.5358 486.4 77.816 476.16 81.6564C469.76 84.2168 463.36 84.2168 455.68 86.7771C453.12 88.0573 450.56 89.3374 449.28 90.6176C446.72 94.4581 444.16 94.4581 440.32 94.4581C433.92 94.4581 428.8 95.7382 427.52 103.419C426.24 108.54 422.4 112.38 419.84 116.221C418.56 118.781 416 118.781 413.44 117.501C409.6 114.941 403.2 113.66 400.64 109.82C395.52 104.699 389.12 98.2985 389.12 91.8977C387.84 81.6564 380.16 73.9755 381.44 63.7342C381.44 62.454 378.88 59.8937 376.32 58.6135C366.08 53.4929 355.84 52.2127 344.32 54.773C343.04 54.773 341.76 54.773 340.48 53.4929C334.08 54.7502 331.52 52.1898 326.4 48.3494V48.3722Z" fill="#F7F7F7"/>
<path d="M1045.76 497.709C1043.2 500.269 1040.64 502.829 1038.08 505.39C1036.8 504.11 1036.8 502.829 1036.8 501.549C1036.8 497.709 1034.24 496.429 1031.68 493.868C1022.72 486.187 1015.04 495.148 1006.08 493.868C1004.8 493.868 1003.52 497.709 1002.24 498.989C999.68 502.829 998.4 505.39 993.28 502.829C990.72 501.549 988.16 502.829 984.32 504.11C980.48 505.39 977.92 506.67 975.36 506.67C972.8 506.67 970.24 504.11 968.96 502.829C967.68 501.549 968.96 497.709 970.24 497.709C972.8 493.868 972.8 491.308 970.24 488.748C967.68 482.347 966.4 475.946 963.84 469.545C963.84 468.265 962.56 466.985 962.56 465.705C958.72 461.864 960 458.024 962.56 455.463C967.68 450.343 971.52 445.222 979.2 445.222C981.76 445.222 985.6 443.942 988.16 441.382C989.44 440.102 990.72 437.541 989.44 434.981C989.44 429.86 992 427.3 997.12 427.3C998.4 427.3 1000.96 426.02 1002.24 423.459C1004.8 419.619 1007.36 414.498 1012.48 420.899C1012.48 420.899 1016.32 420.899 1017.6 419.619C1018.88 417.059 1020.16 414.498 1021.44 411.938C1024 411.938 1025.28 410.658 1027.84 410.658C1032.96 410.658 1036.8 411.938 1041.92 413.218C1043.2 413.218 1043.2 417.059 1041.92 418.339C1040.64 422.179 1041.92 424.74 1045.76 426.02C1049.6 427.3 1052.16 429.86 1056 432.421C1059.84 428.58 1061.12 423.459 1059.84 418.339C1058.56 414.498 1058.56 409.378 1062.4 405.537C1066.24 411.938 1070.08 418.339 1073.92 424.74C1073.92 426.02 1075.2 427.3 1075.2 428.58C1075.2 436.261 1079.04 441.382 1086.72 442.662C1090.56 443.942 1091.84 446.502 1091.84 450.343C1093.12 456.744 1095.68 461.864 1098.24 466.985C1099.52 472.106 1103.36 475.946 1103.36 481.067C1103.36 484.907 1102.08 488.748 1100.8 491.308C1095.68 497.709 1090.56 502.829 1088 510.51C1086.72 514.351 1075.2 519.472 1071.36 518.191C1070.08 518.191 1070.08 516.911 1068.8 518.191C1063.68 522.032 1059.84 516.911 1056 515.631C1054.72 515.631 1054.72 514.351 1053.44 514.351C1052.21 509.23 1048.37 504.11 1045.81 497.709H1045.76Z" fill="#F7F7F7"/>
<path d="M1049.6 394.016C1050.88 388.895 1048.32 385.055 1041.92 382.495C1038.08 381.214 1032.96 379.934 1027.84 378.654C1030.4 373.533 1029.12 369.693 1024 368.413C1025.71 364.999 1027.84 364.146 1030.4 365.852C1034.24 367.133 1038.08 369.693 1043.2 369.693C1059.84 369.693 1071.36 377.374 1080.32 391.456C1082.88 395.296 1086.72 399.137 1089.28 402.977C1090.56 404.257 1089.28 405.538 1089.28 406.818H1085.44C1082.88 404.257 1079.04 401.697 1077.76 399.137C1075.2 395.296 1071.36 394.016 1068.8 397.857C1067.52 399.137 1067.52 400.417 1066.24 401.697C1063.68 405.537 1062.4 405.537 1059.84 401.697C1054.72 397.857 1052.16 396.576 1049.6 394.016Z" fill="#F7F7F7"/>
<path d="M980.48 341.529V354.331C980.48 358.171 979.2 360.731 977.92 364.572C976.64 367.132 976.64 370.973 975.36 373.533C974.08 374.813 974.08 377.373 972.8 378.654C962.56 382.494 947.2 369.693 949.76 358.171C949.76 356.891 951.04 355.611 951.04 355.611C957.44 355.611 961.28 350.49 965.12 346.65C967.68 344.089 974.08 342.809 974.08 337.688H977.92C979.2 338.969 979.2 340.249 980.48 341.529Z" fill="#F7F7F7"/>
<path d="M902.4 341.529C903.68 341.529 906.24 341.529 907.52 342.809C910.08 345.37 913.92 346.65 916.48 349.21C924.16 355.611 931.84 363.292 938.24 370.973C939.52 372.253 939.52 374.814 938.24 377.374C935.68 385.055 939.52 390.175 947.2 391.456C951.04 391.456 956.16 391.456 960 392.736C962.56 392.736 965.12 395.296 966.4 396.576C966.4 397.43 965.973 398.283 965.12 399.137C961.28 399.137 956.16 397.856 952.32 397.856C951.04 397.856 949.76 396.576 948.48 396.576C940.8 397.856 935.68 394.016 930.56 387.615C929.28 386.335 926.72 383.775 924.16 383.775C917.76 382.495 915.2 377.374 915.2 372.253C915.2 363.292 910.08 356.891 903.68 350.49C901.12 349.21 899.84 346.65 898.56 344.09C900.266 342.383 901.546 341.529 902.4 341.529Z" fill="#F7F7F7"/>
<path d="M1053.44 194.31C1052.16 187.909 1057.28 184.069 1061.12 182.788C1064.96 181.508 1070.08 185.349 1075.2 187.909C1073.92 189.189 1073.92 190.469 1072.64 191.75C1070.08 193.03 1066.24 193.03 1063.68 194.31C1058.56 194.31 1058.56 196.87 1059.84 200.711C1062.4 207.112 1058.56 218.633 1052.16 222.473C1044.48 226.314 1038.08 231.435 1029.12 232.715C1027.84 232.715 1027.84 233.995 1026.56 233.995C1025.28 236.555 1022.72 239.116 1020.16 235.275C1017.6 232.715 1016.32 228.874 1020.16 226.314C1025.28 222.473 1027.84 218.633 1035.52 219.913C1043.2 221.193 1052.16 210.952 1053.44 201.991C1053.44 198.15 1053.44 195.613 1053.44 194.31Z" fill="#F7F7F7"/>
<path d="M1152 551.475C1149.44 550.195 1146.88 548.915 1146.88 547.635C1146.88 546.355 1146.88 542.514 1148.16 541.234C1153.28 536.113 1158.4 530.993 1164.8 527.152C1166.08 525.872 1168.64 525.872 1169.92 525.872C1171.2 525.872 1172.48 528.432 1171.2 529.713C1169.92 532.273 1168.64 534.833 1167.36 537.394C1164.8 541.234 1160.96 543.794 1157.12 547.635C1157.12 550.195 1154.56 551.475 1152 551.475Z" fill="#F7F7F7"/>
<path d="M912.64 321.046C916.48 326.167 920.32 331.287 924.16 336.408C929.28 342.809 930.56 351.77 933.12 359.451C926.72 358.171 922.88 354.33 921.6 349.209C919.04 342.809 915.2 336.408 912.64 328.727C911.36 326.167 912.64 323.629 912.64 321.046Z" fill="#F7F7F7"/>
<path d="M992 287.762C994.56 289.469 994.56 294.163 992 301.843C994.56 303.124 998.4 304.404 1000.96 305.684C995.84 309.524 990.72 313.365 986.88 317.205C986.88 317.205 985.6 315.925 986.88 315.925C990.72 312.085 990.72 306.964 986.88 303.124C985.6 301.844 985.6 298.003 986.88 296.723C986.88 292.882 989.44 290.322 992 287.762Z" fill="#F7F7F7"/>
<path d="M1176.32 528.432C1173.76 525.872 1172.48 523.312 1171.2 520.751V504.109C1172.48 505.39 1173.76 505.39 1175.04 507.95C1176.32 511.79 1178.88 515.631 1184 515.631C1184 515.631 1185.28 516.911 1185.28 518.191C1185.28 519.471 1177.6 528.432 1176.32 528.432Z" fill="#F7F7F7"/>
<path d="M983.04 378.653C980.48 368.412 983.041 365.852 992.001 365.852C993.281 365.852 995.84 367.132 997.12 367.132C995.84 368.412 995.841 369.692 994.561 372.252C995.841 373.533 997.12 376.093 997.12 378.653V383.774C995.84 383.774 993.281 382.494 992.001 381.214C990.721 379.933 990.721 378.653 989.441 376.093C988.161 377.396 985.6 377.396 983.04 378.653Z" fill="#F7F7F7"/>
<path d="M851.2 324.887C852.48 326.167 853.76 328.727 853.76 330.007C853.76 335.128 856.32 340.249 849.92 344.089C846.08 337.688 848.64 331.288 849.92 326.167C849.92 325.313 850.346 324.887 851.2 324.887Z" fill="#F7F7F7"/>
<path d="M619.52 207.112C622.08 208.392 624.64 208.392 625.92 209.673C627.2 210.953 627.2 212.233 627.2 213.513C625.92 213.513 623.36 214.793 623.36 214.793C620.8 213.513 619.52 210.953 618.24 209.673C619.094 208.819 619.52 207.966 619.52 207.112Z" fill="#F7F7F7"/>
<path d="M992 260.879V267.28C990.72 268.56 989.44 271.12 988.16 272.4C988.16 272.4 985.6 272.4 985.6 271.12C985.6 268.56 985.6 266 986.88 264.719C988.16 263.439 989.44 263.439 992 260.879Z" fill="#F7F7F7"/>
<path d="M999.68 324.887C997.12 323.607 994.56 322.327 992 321.047L995.84 317.206L1000.96 322.327C1000.96 323.607 999.68 323.607 999.68 324.887Z" fill="#F7F7F7"/>
<path d="M609.28 200.712C608 201.992 606.72 203.272 605.44 203.272C604.16 203.272 602.88 201.992 602.88 200.712C602.88 199.431 604.16 198.151 605.44 196.871C606.72 198.151 608 199.431 609.28 200.712Z" fill="#F7F7F7"/>
<path d="M25.5996 131.582C25.5996 139.263 23.0396 140.543 16.6396 139.263C20.4796 136.703 23.0396 135.423 25.5996 131.582Z" fill="#F7F7F7"/>
</g>
<defs>
<clipPath id="clip0_410_8121">
<rect width="1192" height="587" fill="white"/>
</clipPath>
</defs>
</svg>
