<svg width="66" height="64" viewBox="0 0 66 64" fill="none" xmlns="http://www.w3.org/2000/svg">
<g clip-path="url(#clip0_455_5201)">
<path d="M48.3507 38.0354C47.8345 37.7559 47.2304 37.6949 46.6703 37.8652C46.1102 38.0354 45.6392 38.4229 45.3604 38.9439C45.0816 39.4648 45.0188 40.0759 45.1845 40.6439C45.3415 41.1775 45.8966 41.4811 46.4241 41.3211C46.9516 41.1622 47.2518 40.6007 47.0948 40.067C47.0609 39.9489 47.1262 39.8256 47.243 39.79C47.3598 39.7557 47.4816 39.8218 47.5168 39.94C47.6738 40.4736 48.2289 40.7773 48.7564 40.6172C49.2839 40.4584 49.584 39.8968 49.427 39.3631C49.2587 38.7939 48.8707 38.3149 48.3507 38.0367V38.0354Z" fill="black"/>
<path d="M66.0006 28.8287C66.0006 21.1279 63.0366 13.8883 57.6537 8.44406C52.2709 2.99849 45.1159 0 37.5037 0C31.6411 0 26.0095 1.78766 21.2169 5.16986C16.9216 8.20138 13.5708 12.3091 11.4609 17.1092C10.8128 16.8729 10.1773 16.695 9.6373 16.5476C7.34022 15.8971 4.15519 14.2848 2.10176 11.7056C1.8556 11.3955 1.45119 11.2609 1.0719 11.3625C0.691359 11.4641 0.406265 11.7818 0.343469 12.1757C-1.79788 25.3385 6.70095 29.4729 9.24671 30.4016C9.43384 32.1588 9.75284 33.9007 10.2 35.6096C11.3893 40.1391 14.0129 46.1602 19.7952 50.8282L19.76 50.8803L20.6153 51.4622C20.712 51.5347 20.8062 51.6071 20.9042 51.6782H20.9255L21.0624 51.7672H21.0637C21.4166 52.0213 21.7821 52.269 22.1563 52.513L22.3648 52.6553L22.3686 52.6502C22.5633 52.7734 22.7604 52.8967 22.9626 53.0174C22.984 53.0174 23.0079 53.0352 23.033 53.0453C27.1411 55.5204 31.778 56.9574 36.5505 57.2356C36.3608 59.1643 36.3169 61.1057 36.4199 63.042C36.4374 63.3978 36.6384 63.7192 36.9511 63.8856C37.2638 64.0521 37.6394 64.0381 37.9395 63.8501C39.8912 62.6291 43.5171 60.3599 44.822 56.735C55.6531 51.1598 57.4817 49.1537 58.7125 47.8234C58.9021 47.6176 59.0641 47.4359 59.24 47.2758C59.9772 46.5884 65.227 39.1519 65.4606 34.4445C65.8198 32.6048 66.0019 30.7269 66.0019 28.83L66.0006 28.8287ZM63.495 28.8287C63.495 29.5186 63.4662 30.2047 63.4147 30.887C61.0359 30.084 57.3737 31.6925 55.9758 32.3075C51.8715 34.1116 42.7409 37.4646 32.9435 36.7671L52.5145 7.37426C59.1546 12.1426 63.4963 19.9819 63.4963 28.8287H63.495ZM22.6499 7.2472C27.0193 4.16358 32.1547 2.53347 37.5025 2.53347C41.9673 2.53347 46.1721 3.67823 49.8457 5.69332L29.4407 36.3389C27.7075 36.0353 25.9693 35.588 24.25 34.9642C22.1526 34.2006 20.4973 32.5374 19.7274 30.422C22.5796 29.2937 30.3826 25.0006 28.333 12.3103C28.2702 11.9177 27.9851 11.5988 27.6045 11.4985C27.224 11.3968 26.8208 11.5315 26.5747 11.8415C24.5175 14.4131 21.3312 16.0318 19.0354 16.6823C17.6564 17.0736 15.6356 17.6504 14.4073 18.9197C14.195 18.6783 13.9526 18.4623 13.6927 18.2654C15.6142 13.8324 18.6912 10.0399 22.6487 7.2472H22.6499ZM11.1193 25.3627C11.1695 24.8087 10.7664 24.317 10.2188 24.2674C9.67121 24.2166 9.18642 24.6232 9.13618 25.1784C9.06711 26.1695 9.05706 27.163 9.10855 28.1553C7.80239 27.5671 6.61178 26.7476 5.59197 25.7362C2.88797 23.0426 1.72373 19.2907 2.07539 14.5579C4.10747 16.3697 6.50879 17.7051 9.10855 18.4712C11.5174 19.1548 13.1526 19.8625 13.3285 21.114C13.341 21.1991 13.3649 21.2829 13.3988 21.363C13.5131 21.8318 13.9401 22.152 14.4173 22.1266C14.8933 22.1012 15.2852 21.7378 15.3505 21.2601C15.5226 20.0111 17.1615 19.2996 19.5704 18.6199C22.1702 17.8537 24.5715 16.5184 26.6036 14.7066C27.5103 26.3715 18.6485 28.6953 18.2554 28.7944C17.7342 28.9189 17.4027 29.4373 17.5069 29.9684C17.5634 30.1742 18.5581 35.0455 23.5831 36.8586C24.8289 37.3109 26.3875 37.7784 28.2363 38.1507L20.9306 49.1232C9.95505 40.1455 11.103 25.5621 11.1205 25.3601L11.1193 25.3627ZM57.8936 45.8045V45.8083C57.6575 46.0256 57.4603 46.2416 57.2493 46.4728C56.2433 47.5718 54.5905 49.376 45.2929 54.2384V53.626C45.2716 53.1025 45.2477 52.6299 45.2264 52.203C47.1605 51.3695 49.0205 50.3696 50.7864 49.2146C55.2072 46.3267 58.3545 42.8327 59.8905 39.1151C60.1028 38.6018 59.8642 38.0097 59.3555 37.795C58.8481 37.5802 58.2629 37.8216 58.0506 38.3362C55.3881 44.7792 48.0711 48.6886 45.1171 50.0443C45.0744 49.2159 45.0506 48.5578 45.0719 48.2338L45.3256 48.1156C47.0839 47.2936 52.4894 44.7995 55.6531 39.2218C55.8553 38.7542 55.6794 38.2092 55.2436 37.9512C54.8091 37.6933 54.2514 37.8064 53.9475 38.2117C51.1028 43.224 46.1482 45.5186 44.5193 46.2733C44.2229 46.3864 43.9428 46.5376 43.6866 46.7244C43.0047 47.3075 43.0398 47.9835 43.1868 50.827C43.2257 51.5918 43.2747 52.5422 43.3274 53.7124C43.4781 57.1988 40.6762 59.628 38.3803 61.1832C38.3276 53.2461 40.6737 50.6669 40.7365 50.5995C41.1308 50.212 41.1409 49.5729 40.7578 49.1727C40.3748 48.7725 39.743 48.7636 39.3474 49.1511C39.252 49.2439 38.3841 50.1256 37.6142 52.2995C37.2852 53.2563 37.0315 54.2371 36.8544 55.2345C32.1058 54.9817 27.5078 53.5091 23.4901 50.9667L31.6737 38.6767C37.9069 39.3336 46.4358 38.6945 56.7733 34.1523C61.939 31.8831 63.0605 32.8246 63.279 33.1702C64.7949 35.5283 59.034 44.7461 57.8949 45.8032L57.8936 45.8045Z" fill="black"/>
</g>
<defs>
<clipPath id="clip0_455_5201">
<rect width="66" height="64" fill="white"/>
</clipPath>
</defs>
</svg>
